<?xml version="1.0" standalone="no"?>
<!DOCTYPE svg PUBLIC "-//W3C//DTD SVG 20010904//EN"
 "http://www.w3.org/TR/2001/REC-SVG-20010904/DTD/svg10.dtd">
<svg version="1.0" xmlns="http://www.w3.org/2000/svg"
 width="944.000000pt" height="944.000000pt" viewBox="0 0 944.000000 944.000000"
 preserveAspectRatio="xMidYMid meet">
<metadata>
Created by potrace 1.11, written by Peter Selinger 2001-2013
</metadata>
<g transform="translate(0.000000,944.000000) scale(0.100000,-0.100000)"
fill="#000000" stroke="none">
<path d="M4062 8135 c-203 -46 -386 -177 -491 -350 -40 -66 -91 -208 -99 -279
-29 -246 43 -460 208 -626 108 -108 167 -146 305 -195 89 -32 277 -44 366 -23
24 5 53 12 64 14 55 10 235 99 235 116 0 4 5 8 11 8 18 0 118 101 164 165 47
66 95 159 95 185 0 9 3 20 7 24 4 3 8 12 9 19 1 7 9 41 16 77 24 113 10 270
-33 386 -11 30 -19 55 -17 58 2 2 -4 12 -13 22 -9 11 -28 41 -43 67 -34 59
-198 227 -222 227 -3 0 -18 8 -32 18 -28 19 -125 62 -152 67 -8 2 -15 4 -15 5
0 1 -7 3 -15 5 -8 2 -28 6 -45 10 -63 14 -240 14 -303 0z"/>
<path d="M978 7945 c-2 -2 -41 -6 -88 -9 -82 -6 -117 -12 -265 -42 -155 -32
-360 -104 -534 -187 -104 -50 -100 -53 79 -72 25 -3 61 -7 80 -10 19 -2 53 -7
75 -10 22 -3 58 -7 80 -10 22 -3 60 -8 85 -11 25 -3 52 -7 60 -9 8 -2 31 -7
50 -10 432 -70 814 -199 1125 -380 28 -16 52 -33 53 -37 2 -4 9 -8 15 -8 18 0
196 -140 268 -210 193 -188 351 -330 459 -413 63 -49 178 -134 191 -142 9 -5
76 -51 150 -100 134 -91 434 -273 434 -265 0 3 14 -5 31 -17 60 -43 645 -333
672 -333 6 0 12 -4 12 -10 0 -5 5 -10 10 -10 6 0 47 -17 93 -39 172 -80 239
-110 337 -148 95 -36 231 -84 259 -89 13 -3 32 -9 43 -15 10 -5 18 -7 18 -4 0
3 16 -1 35 -9 19 -8 35 -13 35 -11 0 2 15 -1 33 -6 17 -6 42 -12 55 -15 46 -9
68 -13 87 -17 18 -4 55 -10 145 -23 154 -22 445 -22 570 0 14 2 43 7 65 10 37
5 54 9 103 20 9 2 31 7 47 11 17 4 66 19 110 33 44 14 82 27 85 28 60 17 226
100 374 188 70 42 132 76 137 76 5 0 9 4 9 8 0 5 12 14 28 21 59 27 310 202
358 250 38 38 51 58 50 78 -1 31 -6 32 -96 13 -30 -6 -71 -13 -90 -15 -19 -3
-53 -9 -75 -14 -22 -6 -58 -12 -80 -15 -22 -2 -40 -5 -40 -6 0 -2 -36 -9 -89
-15 -27 -4 -57 -8 -67 -10 -9 -2 -39 -6 -66 -10 -26 -3 -64 -8 -83 -11 -271
-37 -696 -46 -891 -19 -20 3 -54 8 -75 10 -21 2 -50 7 -64 10 -14 3 -36 7 -50
10 -130 20 -300 80 -463 164 -62 31 -146 72 -187 90 -264 119 -899 442 -942
479 -10 8 -18 12 -18 9 0 -4 -30 13 -67 36 -38 24 -71 44 -76 45 -4 1 -17 8
-30 16 -12 7 -83 48 -157 91 -74 43 -151 88 -170 101 -19 12 -47 28 -62 35
-16 7 -28 16 -28 21 0 4 -5 8 -11 8 -14 0 -281 161 -291 175 -4 5 -8 6 -8 2 0
-4 -27 10 -59 33 -33 22 -63 40 -66 40 -4 0 -26 14 -50 30 -24 17 -48 30 -53
30 -6 0 -12 4 -14 8 -1 4 -21 19 -43 32 -120 72 -493 326 -515 350 -8 9 -149
77 -210 100 -43 17 -221 74 -245 79 -3 1 -6 1 -7 2 -2 0 -12 2 -23 3 -27 4
-96 16 -120 20 -74 14 -426 30 -437 21z"/>
<path d="M2426 6378 c-21 -40 -51 -96 -66 -124 -16 -28 -32 -65 -35 -82 -3
-18 -8 -47 -11 -64 -3 -18 -7 -49 -9 -68 -2 -19 -7 -46 -10 -60 -3 -14 -7 -38
-9 -55 -3 -16 -10 -68 -17 -113 -14 -95 -11 -111 51 -302 112 -342 237 -566
413 -743 147 -149 241 -205 587 -357 41 -18 98 -43 125 -55 41 -18 102 -38
112 -36 2 0 19 -7 40 -15 20 -9 45 -17 54 -19 56 -11 510 -174 589 -212 19
-10 37 -18 40 -19 70 -17 242 -133 355 -237 16 -16 82 -68 145 -115 142 -107
201 -165 269 -265 57 -85 161 -291 161 -319 0 -10 5 -18 12 -18 6 0 9 -3 6 -6
-4 -3 1 -22 9 -42 33 -80 119 -386 138 -497 4 -22 9 -51 12 -65 3 -14 5 -33 5
-42 0 -10 3 -20 7 -22 9 -6 7 857 -3 909 -4 22 -9 47 -12 55 -3 8 -8 26 -11
40 -17 92 -130 349 -186 424 -4 6 -25 36 -47 66 -22 30 -45 61 -51 69 -7 7
-27 34 -46 58 -19 25 -49 61 -66 81 -18 19 -41 45 -52 58 -11 12 -36 41 -55
64 -19 23 -45 54 -58 69 -13 14 -55 69 -94 121 -40 52 -90 112 -112 134 -61
58 -198 158 -298 218 -159 95 -213 125 -428 234 -74 38 -136 72 -138 77 -2 4
-9 7 -15 7 -12 0 -132 63 -198 103 -20 12 -80 49 -135 82 -54 32 -101 62 -104
65 -3 3 -34 27 -70 54 -161 122 -416 417 -499 579 -8 15 -18 27 -23 27 -4 0
-8 9 -8 19 0 11 -4 21 -8 23 -10 3 -118 218 -146 287 -18 48 -53 101 -64 101
-4 0 -25 -33 -46 -72z"/>
<path d="M2420 4920 c-1 -3 -3 -57 -4 -120 -4 -127 -13 -224 -27 -285 -5 -22
-12 -56 -15 -75 -7 -51 -71 -233 -112 -320 -36 -78 -139 -244 -182 -294 -131
-155 -238 -255 -380 -357 -82 -58 -91 -64 -162 -106 -27 -16 -48 -31 -48 -35
0 -5 -6 -8 -14 -8 -8 0 -40 -15 -73 -33 -60 -34 -109 -58 -203 -97 -30 -13
-78 -33 -106 -46 -58 -25 -321 -111 -367 -119 -17 -3 -34 -8 -39 -11 -4 -3
-17 -7 -28 -10 -11 -2 -30 -6 -43 -9 -12 -3 -54 -12 -93 -21 -89 -19 -96 -21
-167 -29 -60 -8 -66 -23 -11 -29 16 -2 30 -5 32 -6 2 -3 5 -3 52 -13 19 -4 46
-10 60 -13 14 -3 36 -7 50 -10 14 -3 33 -7 42 -10 18 -5 48 -12 93 -19 17 -3
55 -10 85 -16 117 -22 97 -19 300 -45 99 -12 158 -15 300 -15 85 0 166 3 180
6 14 2 45 7 70 9 49 6 52 7 151 30 259 60 517 232 679 451 25 33 47 62 50 65
8 7 91 146 117 195 56 106 121 292 138 395 3 19 8 53 12 75 12 75 5 298 -11
323 -4 7 -5 12 -2 12 2 0 -6 40 -19 90 -26 96 -84 227 -139 313 -32 49 -164
198 -166 187z"/>
<path d="M9334 4822 c-49 -48 -130 -123 -178 -167 -48 -44 -100 -91 -115 -105
-15 -14 -62 -56 -105 -95 -43 -38 -84 -74 -90 -80 -6 -5 -45 -39 -86 -74 -41
-36 -84 -74 -96 -85 -11 -12 -35 -32 -53 -46 -18 -14 -39 -31 -47 -38 -8 -8
-47 -41 -87 -73 -39 -33 -83 -70 -97 -83 -14 -12 -70 -58 -125 -102 -55 -43
-102 -81 -105 -84 -3 -3 -30 -25 -60 -48 -30 -23 -64 -49 -75 -58 -11 -9 -119
-90 -240 -180 -121 -90 -224 -167 -230 -171 -5 -5 -30 -21 -55 -38 -25 -16
-47 -32 -50 -36 -21 -23 -661 -434 -720 -463 -8 -4 -24 -12 -35 -19 -162 -98
-498 -274 -680 -357 -124 -56 -140 -63 -167 -77 -16 -8 -28 -11 -28 -7 0 3 -6
2 -12 -4 -7 -5 -56 -26 -108 -46 -52 -20 -104 -41 -115 -46 -26 -11 -119 -45
-125 -45 -3 0 -18 -5 -35 -12 -32 -12 -221 -70 -315 -97 -73 -20 -238 -57
-270 -61 -14 -1 -41 -6 -60 -10 -19 -4 -44 -9 -55 -11 -70 -9 -168 -27 -222
-39 -13 -3 -32 -7 -44 -10 -11 -2 -29 -7 -39 -10 -10 -3 -31 -8 -46 -10 -16
-2 -40 -7 -54 -9 -52 -12 -69 -15 -117 -21 -26 -4 -59 -9 -73 -11 -14 -2 -48
-7 -76 -9 -28 -3 -61 -7 -72 -10 -94 -18 -607 -25 -792 -11 -52 4 -124 10
-160 12 -72 5 -101 8 -174 18 -26 4 -68 9 -92 11 -25 3 -59 8 -77 11 -17 4
-45 8 -62 9 -16 2 -30 4 -30 5 0 1 -9 3 -20 4 -11 1 -38 6 -60 11 -22 5 -44 8
-48 6 -5 -1 -27 4 -50 10 -23 6 -53 13 -67 15 -14 1 -47 8 -75 14 -27 6 -61
13 -75 16 -14 3 -41 9 -60 14 -19 5 -46 11 -60 14 -25 4 -149 35 -250 62 -30
8 -64 16 -75 19 -76 18 -607 188 -665 213 -19 9 -41 17 -48 18 -8 1 -51 17
-95 36 -45 18 -84 33 -87 34 -7 1 -41 14 -65 24 -11 5 -49 21 -85 36 -83 33
-111 45 -185 79 -33 15 -78 34 -100 43 -22 8 -50 22 -62 30 -13 8 -23 10 -23
6 1 -8 139 -105 198 -139 9 -5 57 -36 105 -67 48 -32 92 -58 97 -58 4 0 10 -4
12 -8 1 -5 30 -25 63 -44 111 -67 280 -165 325 -191 25 -13 83 -46 130 -72 75
-41 447 -228 460 -231 6 -1 90 -38 140 -61 19 -9 37 -17 40 -18 3 -1 16 -6 30
-12 14 -6 61 -25 105 -42 44 -17 89 -36 100 -41 11 -4 61 -23 110 -40 50 -18
97 -35 105 -38 8 -3 17 -6 20 -7 3 0 39 -11 80 -25 41 -13 80 -24 85 -25 6 -2
31 -9 56 -18 39 -13 138 -41 191 -53 28 -6 50 -12 98 -23 25 -7 55 -14 68 -16
12 -3 34 -8 50 -11 71 -15 363 -63 412 -68 230 -25 327 -28 825 -29 429 -1
642 5 666 19 5 3 83 15 119 18 9 1 21 5 28 10 6 4 12 5 12 3 0 -3 33 4 73 14
39 11 83 22 97 24 14 2 84 22 155 45 72 22 137 42 146 44 38 10 360 141 470
192 222 103 633 323 650 347 3 5 10 9 15 10 37 3 596 378 739 494 6 4 42 33
80 63 39 30 75 59 81 65 6 5 46 41 88 79 43 39 82 78 87 88 10 19 -8 11 -131
-61 -19 -11 -55 -30 -80 -43 -25 -14 -76 -42 -115 -63 -234 -129 -804 -406
-1040 -505 -55 -23 -114 -48 -130 -55 -34 -15 -76 -32 -87 -34 -4 -1 -29 -11
-55 -22 -144 -62 -644 -236 -698 -244 -11 -1 -20 -3 -20 -4 0 -2 -7 -4 -15 -6
-8 -2 -50 -13 -93 -24 -44 -12 -91 -23 -105 -25 -15 -2 -33 -5 -41 -7 -14 -4
-17 24 -12 111 1 17 27 36 61 45 15 3 135 51 219 86 210 89 208 88 471 211
161 76 502 249 668 339 28 16 78 43 110 60 210 115 397 222 403 232 3 5 9 8
13 7 9 -1 350 202 354 212 2 4 8 8 12 8 8 0 66 35 95 57 15 12 154 107 173
118 9 6 27 20 41 33 14 12 29 22 32 22 3 0 22 12 41 28 19 15 50 38 68 52 51
37 283 222 296 235 6 6 30 27 54 46 23 18 57 48 75 64 18 17 71 64 117 105
105 95 441 431 533 534 39 44 75 84 80 90 6 6 37 43 70 81 33 39 63 72 68 73
4 2 7 8 7 13 0 5 8 17 18 27 27 29 53 61 122 152 36 47 68 87 73 88 4 2 7 9 7
15 0 6 7 19 17 29 38 42 2 12 -83 -70z"/>
</g>
</svg>
