<svg id="Camada_1" data-name="Camada 1" xmlns="http://www.w3.org/2000/svg" viewBox="0 0 412.37 414.19"><defs><style>.cls-1{fill:#e4e4e4;}.cls-2{fill:#b7b7b7;}.cls-3{fill:#f2f2f2;}.cls-4{fill:#f3f4f3;}.cls-5{fill:#b5b5b5;}.cls-6{fill:#a9a9a9;}.cls-7{fill:#a2a6a5;}.cls-8{fill:#a5a7a7;}.cls-9{fill:#fafafa;}.cls-10{fill:#e3e5e5;}.cls-11{fill:#b9b9b9;}.cls-12{fill:#cbcbcb;}.cls-13{fill:#e7e8e7;}.cls-14{fill:#388b04;}.cls-15{fill:#e7e6e6;}.cls-16{fill:#32880d;}.cls-17{fill:#efeaef;}.cls-18{fill:#4b931d;}.cls-19{fill:#efe9f1;}.cls-20{fill:#e6e5e4;}.cls-21{fill:#efeaf2;}.cls-22{fill:#f8effc;}.cls-23{fill:#f9effd;}.cls-24{fill:#228000;}.cls-25{fill:#f9effc;}.cls-26{fill:#f7eefa;}.cls-27{fill:#f8fafa;}.cls-28{fill:#b02304;}.cls-29{fill:#fae9fa;}.cls-30{fill:#faf6fa;}.cls-31{fill:#eaecec;}.cls-32{fill:#b10404;}.cls-33{fill:#ebeded;}.cls-34{fill:#a9aaaa;}.cls-35{fill:#aaa;}.cls-36{fill:#b7b6b7;}.cls-37{fill:#b3b3b3;}.cls-38{fill:#b5b9b9;}.cls-39{fill:#b1b1b1;}.cls-40{fill:#2c8705;}.cls-41{fill:#bab7bb;}.cls-42{fill:#5d9639;}.cls-43{fill:#c0b9c4;}.cls-44{fill:#b6b6b6;}.cls-45{fill:#bcb8c0;}.cls-46{fill:#beb8c1;}.cls-47{fill:#c5bbcb;}.cls-48{fill:#bcb7be;}.cls-49{fill:#bbb7bd;}.cls-50{fill:#adadad;}.cls-51{fill:#b8b6b9;}.cls-52{fill:#c6bbcd;}.cls-53{fill:#bab7bc;}.cls-54{fill:#b5bfc1;}.cls-55{fill:#bfb9c3;}.cls-56{fill:#338a08;}.cls-57{fill:#beb9c2;}.cls-58{fill:#b5c2c2;}.cls-59{fill:#b5c0c1;}.cls-60{fill:#c4bacb;}.cls-61{fill:#b5b8b8;}.cls-62{fill:#b5c6ca;}.cls-63{fill:#beb8c2;}.cls-64{fill:#278500;}.cls-65{fill:#c5bacb;}.cls-66{fill:#b5c9c9;}.cls-67{fill:#b5caca;}.cls-68{fill:#c4bac9;}.cls-69{fill:#e8e9e9;}.cls-70{fill:#ebebeb;}.cls-71{fill:#b22001;}.cls-72{fill:#fdfdfd;}.cls-73{fill:#a1a3a3;}.cls-74{fill:#b1b2b2;}.cls-75{fill:#a4a6a6;}.cls-76{fill:#b0b1b1;}.cls-77{fill:#b7c2c4;}.cls-78{fill:#b7c1c3;}.cls-79{fill:#a31e01;}.cls-80{fill:#328200;}.cls-81{fill:#e7eaea;}.cls-82{fill:#e9ebeb;}.cls-83{fill:#a6a8a7;}.cls-84{fill:#e5e7e7;}.cls-85{fill:#a5a7a6;}.cls-86{fill:#e9ebea;}.cls-87{fill:#aeacaf;}.cls-88{fill:#abaaac;}.cls-89{fill:#bcb2c4;}.cls-90{fill:#a9acad;}.cls-91{fill:#a8babd;}.cls-92{fill:#b8aebe;}.cls-93{fill:#a7b2b4;}.cls-94{fill:#b9b0bf;}.cls-95{fill:#e0e3e3;}.cls-96{fill:#e1e4e4;}.cls-97{fill:#e2e5e5;}.cls-98{fill:#b2b2b2;}.cls-99{fill:#298600;}.cls-100{fill:#238000;}.cls-101{fill:#a61e00;}.cls-102{fill:#b01100;}.cls-103{fill:#278600;}.cls-104{fill:#a51e00;}.cls-105{fill:#ececec;}.cls-106{fill:#a7a8a8;}.cls-107{fill:#a8a9a9;}.cls-108{fill:#a4a5a5;}.cls-109{fill:#a6b8bb;}.cls-110{fill:#a30b00;}.cls-111{fill:#aab6b8;}.cls-112{fill:#e6e9e9;}.cls-113{fill:#e5e8e8;}.cls-114{fill:#aeabaf;}.cls-115{fill:#e7e8e8;}.cls-116{fill:#a6a7a7;}.cls-117{fill:#eef0f0;}.cls-118{fill:#eff0f0;}.cls-119{fill:#9fa0a0;}.cls-120{fill:#d1d3d3;}.cls-121{fill:#e6e8e7;}.cls-122{fill:#eceeee;}.cls-123{fill:#e4e7e7;}.cls-124{fill:#a01f02;}.cls-125{fill:#a6b1b3;}.cls-126{fill:#a7b1b3;}.cls-127{fill:#a6a8a8;}.cls-128{fill:#9e1f03;}.cls-129{fill:#a0a4a4;}.cls-130{fill:#9f1600;}.cls-131{fill:#a4aeaf;}.cls-132{fill:#dee2e2;}.cls-133{fill:#a3a5a5;}.cls-134{fill:#a6aeaf;}.cls-135{fill:#a21603;}.cls-136{fill:#a00e00;}.cls-137{fill:#a33a22;}.cls-138{fill:#a7aeaf;}.cls-139{fill:#a30c00;}.cls-140{fill:#a7b9bd;}.cls-141{fill:#a5a9a9;}.cls-142{fill:#edf0f0;}.cls-143{fill:#e2e6e6;}.cls-144{fill:#9f1f02;}.cls-145{fill:#a3a5a4;}.cls-146{fill:#a4abac;}.cls-147{fill:#e6eaea;}.cls-148{fill:#a3b7b9;}.cls-149{fill:#a3b1b2;}.cls-150{fill:#9f0e00;}.cls-151{fill:#eaebeb;}.cls-152{fill:#a4a9aa;}.cls-153{fill:#9d9f9f;}.cls-154{fill:#9d2003;}.cls-155{fill:#9e0e00;}.cls-156{fill:#a2b6ba;}.cls-157{fill:#9b2104;}.cls-158{fill:#a3b6b9;}.cls-159{fill:#a11707;}.cls-160{fill:#c0c2c2;}.cls-161{fill:#a3acac;}</style></defs><title>botavolei</title><path class="cls-1" d="M405.45,383c-7.69,8.66-16.59,15.95-25.77,22.94a199.22,199.22,0,0,1-18.14,11.89,4.28,4.28,0,0,1-2.68.82.81.81,0,0,1,.15-1c3.81-3,6.29-7.24,10.07-10.24,8.24-5.12,15.67-11.31,23.06-17.55a5.53,5.53,0,0,1,1.87-1.3,3.43,3.43,0,0,0,2.54-2.5c1.78-3.1,5-4.8,7.35-7.31a6.42,6.42,0,0,0,3.42-3.65c5.13-6.54,10.54-12.85,15.35-19.65A192,192,0,0,0,440.41,325c1.11-2.4,1.79-5,3.6-7.09,1.79-.9,1.25-2.53,1.25-4,2-6.69,4.5-13.22,6.1-20,.75-3.16,1.57-6.31,2.16-9.51a4.09,4.09,0,0,1,.39-1.18,1.11,1.11,0,0,1,.56-.46c.19-.05.92.58.44-.35a5.45,5.45,0,0,1-.4-1,3.68,3.68,0,0,1-.13-.75,2,2,0,0,1,.26-1,.93.93,0,0,1,.55-.29c.49-.69-.31-1.23-.24-1.88-.06-.83-.15-1.67.85-2.06.5.26.73.58.24,1.07.61-.31.23-.78.12-1.14s-.45-1-.59-1.52a6,6,0,0,1-.14-.83c0-1.29.56-2.52.41-3.82q0-.68,0-1.35c.05-1.69.76-3.31.55-5a22.23,22.23,0,0,1,0-2.45c.4-1.49-.86-3.52,1.41-4.41a7,7,0,0,1,.21,3.09c0,.38.64,0,.26,0-.13,0-.19,0-.21-.14-.8-7.22-.42-14.46-.53-21.7-.7-6.91-1.42-13.81-2.37-20.69a3,3,0,0,1-.08-1.57c.24-1-.48.08-.56-.24a1.51,1.51,0,0,1-.64-1.65,4.41,4.41,0,0,1,.43-1.33c.59-1-.45-.43-.66-.67-1.31-2.5-1.51-5.3-2.09-8a269.93,269.93,0,0,0-11.72-38.53c-.25-.88-.71-1.67-1-2.54-1.58-7.46-3.19-14.92-6-22.07a2.12,2.12,0,0,1,.17-2.41c1.29-.69,1.3.53,1.73,1.14,1.9,2.47,2.59,5.52,3.87,8.27a275.3,275.3,0,0,1,12.52,32.32c2,6.18,3.47,12.52,5.33,18.74.45,1.52-.62,3.2.71,4.52-.94,2.94.78,5.57,1,8.39a81.27,81.27,0,0,0,1.52,9.6c.49,2.29-.24,4.82,1.23,6.91.1.15.23.4.17.53-1.32,2.77.75,5.24.68,7.9.3,2.3-.66,4.69.56,6.91v13.8c-.88.11-.93-.3-.72-.77.11,2.25.21,4.67.15,7.1-1.93,2.77-.1,6.26-1.7,9.07-.66,1.15,1.83,2.77-.6,3.58-1.32,4.65-1.89,9.47-3.07,14.16a207.66,207.66,0,0,1-37.86,77.91,125.81,125.81,0,0,1-11.43,13.19A5.72,5.72,0,0,0,405.45,383Z" transform="translate(-49.99 -32.64)"/><path class="cls-2" d="M263.94,444.48c-5.84,0-11.68.08-17.52.09a12.25,12.25,0,0,0-7.19,2.26h-6.9a4.63,4.63,0,0,0-3.48-2.16c-3.41-.6-6.87-.92-10.31-1.35a1.05,1.05,0,0,1-.71-1.1,2.17,2.17,0,0,1,.7-.65,3.72,3.72,0,0,1,4.83.17c2.18,1.57,5.25,1.43,8,1.5a31.39,31.39,0,0,1,5.4.43,18.83,18.83,0,0,0,6.48-.12c6.34-.88,12.74-.38,19.11-.28C263,443.28,263.92,443.4,263.94,444.48Z" transform="translate(-49.99 -32.64)"/><path class="cls-3" d="M462.36,242.68c-.41.06-1.1.45-1.08-.28,0-2.21-.57-4.49.52-6.63h.56Z" transform="translate(-49.99 -32.64)"/><path class="cls-4" d="M461.79,262.81c-1.15-2.4-.34-4.93-.62-7.77l1.19,1.44v6.33Z" transform="translate(-49.99 -32.64)"/><path class="cls-5" d="M263.94,444.48c-1.28-1-2.77-.47-4.16-.5-4.21-.08-8.52-.57-12.63.11-5.49.91-10.89.12-16.32.17-2.52,0-5.06-.71-7.58-1.16-.45-.08-1.2-.42-1.21-.66-.12-2.31-1.24-1.32-2.17-.69a3.21,3.21,0,0,1-1.91.48c-1.43-.94-3.11-.78-4.67-1.15-1.93-.45-4.17-.61-5-3,1.06-.81,2.2-.46,3.3-.18a130.06,130.06,0,0,0,15.31,2.32c1.82.23,3.11-.72,4.4-1.72,8.11-6.26,16-12.75,23.85-19.38,11.58-9.86,22.92-20,33.74-30.71a118.07,118.07,0,0,0,18.37-24.12c1.3-2.2.14-2.82-1.48-3.61-10.83-5.32-21.92-10.06-33-14.89-5.61-2.45-11.3-4.76-16.9-7.24-2.29-1-4-.77-5.68.89-3.88,3.72-7.2,7.94-10.7,12-13,15-26.5,29.47-42.94,40.86a122.21,122.21,0,0,1-42.65,19.29c-1.31.3-3,.05-3.7,1.73-1.21,1.23-2.44.45-3.59-.06a34.3,34.3,0,0,1-3.55-2.2c-.88-.7-1.81-1.33-2.66-2.06-1.45-1.24-.6-1.62.74-1.75a4.82,4.82,0,0,1,.86.14c3.06.57,6-.36,9-.68a3.64,3.64,0,0,1,1.88.07c.24.08.49.25.77.13-.28-.22-.86-.07-.81-.69,1.55-1.51,3.58-1,5.42-1.31,1.2.2,2.4.65,3.58-.09,4.9-2.58,10.2-4.22,15.16-6.7A145.48,145.48,0,0,0,206,378.74a10.18,10.18,0,0,1,2.82-1.91c.88-.38,2-.5,2.09-1.8a2.51,2.51,0,0,1,.73-1.22c4.58-3.78,8.49-8.24,12.54-12.56a3.24,3.24,0,0,1,1.44-.9c1.32-.23,1.76-1.28,2.22-2.33.64-1.44,1.34-2.83,3-3.41,1.16-.11,1.31-1.06,1.56-1.91a58.43,58.43,0,0,1,9.88-11.3c1.38,0,1.37-1.31,1.88-2.12,2.78-3.71,2.82-3.79-1.38-5.79-13.1-6.23-26.7-11.3-39.93-17.25-2.12-.95-4.66-1.23-6.15-3.37.79-2.07,2.88-1.44,4.34-2.11a2.9,2.9,0,0,1,.88-.09c6.89,2.36,13.44,5.52,20.14,8.34,21,8.83,42.07,17.52,63.13,26.22q39.81,16.44,79.67,32.8a10.81,10.81,0,0,1,3.77,2c1.44,1.26,3.37,0,4.87.94.24-.4-.5-.17-.34-.52.25-.78.95-.88,1.59-1.06,8.16-2.26,14.47-7.35,19.9-13.52,8.84-10.07,15.53-21.56,21.35-33.58.94-1.94.76-2.86-1.42-3.52-10.93-3.32-21.32-8-31.7-12.69-38.91-17.59-76.93-37-115.13-56.08a30.22,30.22,0,0,1-5.41-3.23A1.24,1.24,0,0,1,262,256a3.24,3.24,0,0,1,2.72-2.63,10.14,10.14,0,0,1,4,1.54c18.27,9.12,36.49,18.31,54.78,27.37,25.93,12.84,52,25.5,78.64,36.69a120.25,120.25,0,0,0,14.59,5.28,5.41,5.41,0,0,0,5.7-1.4,46.48,46.48,0,0,0,12.5-19c3.33-9.28,6.68-18.59,8-28.44a43.7,43.7,0,0,0-.33-14A10,10,0,0,0,440,256.9,198.38,198.38,0,0,0,408.43,226c-18.08-14.09-37.85-25.35-58.67-34.86a421.3,421.3,0,0,0-52.09-19.78,13,13,0,0,1-3.73-1.46,1.22,1.22,0,0,1-.37-.79,3.94,3.94,0,0,1,1.32-3.17c1.27-.6,2.44,0,3.61.36,24.12,7.64,47.68,16.68,70.14,28.42,19.05,10,37,21.57,53.14,35.87a212.27,212.27,0,0,1,22.37,23.32c1.21,0,.92-1.5,1.86-1.64a72.49,72.49,0,0,0,.95-19.94c-.22-2.47-.2-4.93-.39-7.38a8.44,8.44,0,0,1,.05-5c-.18.3-.09.68-.35.95-1.51-.25-1.22-1.52-1.33-2.47A312.56,312.56,0,0,0,435.5,172a26.91,26.91,0,0,0-5-9.26c-8.78-11.45-19.64-20.66-31.41-28.85-23.94-16.65-50.5-27.65-78.22-36.13-12.2-3.73-24.59-6.64-37-9.41a.87.87,0,0,1-.47-.67c.83-.62-.1-.89-.27-1.31-.62-1.55-2.11-3.14.14-4.61a4.79,4.79,0,0,1,2.83,0c11.53,2.75,23.08,5.39,34.43,8.84,1.66.13,1.77-1.08,2-2.24,1.23-3.11.14-6.33.43-9.48a1.54,1.54,0,0,1,1-.85c1.78,1,1.2,2.84,1.52,4.35,0,1.22-.86,2.51.34,3.61a3.43,3.43,0,0,1,1.85,2c-.66,3.59-.65,3.58,2.89,4.92,14.24,5.43,27.85,12.26,41.43,19.13,5.28,2.67,5.29,2.64,9.06,2a.33.33,0,0,1-.11.47c.13.07.2,0,.18-.22-.74-5.42.16-10.81.39-16.21.19-4.56.4-9.13.76-13.69a1.34,1.34,0,0,0-.45-1.29,3.34,3.34,0,0,1-1.43-1.38c-5.51-9-13.91-14.6-22.83-19.56-13.13-7.3-26.36-11.89-44.52-17a116.86,116.86,0,0,1,11.49,19.51c1.69,3.73,3.53,7.44,3.8,11.65-.21.92-.23,1.88-.38,2.81-.11.66-.28,1.39-1.1,1.46s-1-.68-1.21-1.32c-1.55-5-2.93-10-5.4-14.63-.47-.88-.67-2.14-2.18-1.41-1.53-.21-1.71-1.63-2.27-2.65-2.27-4.16-4.14-8.52-6.8-12.49a18.67,18.67,0,0,0-8.35-7,5,5,0,0,0-4.86-1c-2.61-.45-5.43-.12-7.68-2,.07-.65.87-.45,1.35-.88a5.32,5.32,0,0,1-3,.49,10.52,10.52,0,0,0-5.4.14c-2.8.36-5.54-.66-8.34-.34-1.49-.2-3.08.26-4.48-.62a.73.73,0,0,1-.13-.88,3.81,3.81,0,0,1,1.77-.2c-4.73.52-9.9,1-15.08.06a6,6,0,0,0-4.2-1.26c-2.26.09-4.53.1-6.78,0-1-.06-2.37.22-2.71-1.34,9.16-1,18.37-.8,27.53-.45a169.08,169.08,0,0,1,42.43,7.24c15.76,4.75,31.47,9.42,46.15,17a94.75,94.75,0,0,1,20.41,14.19,19.76,19.76,0,0,1,2.8,3.25c3.82,5.43,9.12,9.08,14.56,12.67,13.21,8.75,22.85,20.76,30.55,34.41A138.22,138.22,0,0,1,433,137.45c1.9,6.25,4.18,12.4,5.4,18.85.37,1.95.63,3.92.94,5.88a.72.72,0,0,1,.2.51c0,.18,0,.28-.06.28.11,1.84-.23,3.7.39,5.51a8.6,8.6,0,0,1,.24.87c2.37,9,4.75,17.9,6.46,27a10.7,10.7,0,0,1,.3,3.69,12.77,12.77,0,0,0,.25,4.73,5.06,5.06,0,0,1,.18.77c.65.3-1.19,1.69.66,1.46,1,1,.6,2.34,1.07,3.45a8.18,8.18,0,0,1,.23,1.7,9.53,9.53,0,0,0,.36,3,6.13,6.13,0,0,1,.1,1.86,8,8,0,0,1-.16,1c-.69,4.21.12,8.43.54,12.54.73,6.93-.1,13.73-.34,20.58a5.43,5.43,0,0,0,0,1.14,10,10,0,0,1-.28,4.55,21.26,21.26,0,0,0-1.55,8.37,23.73,23.73,0,0,0-.06,8.32c.43,4.09-.76,8-1.83,11.79-2.3,8.26-4.59,16.53-8.16,24.38A45.77,45.77,0,0,1,429.83,322a11.48,11.48,0,0,0-5.27,5.17,21.34,21.34,0,0,0-3.48,5.89c-5.59,11.81-12,23.14-20.34,33.25-6.41,7.76-13.64,14.54-23.62,17.55-1.24.07-.83.6-.31,1.16.38,1.32,1.08,2.67-.37,3.82-.45,0-.63-.26-.53-.71a.77.77,0,0,0,0,.79,5.53,5.53,0,0,1,.59,1.83,36,36,0,0,1-7.33,17c-3.36,3.7-6.51,7.6-10.34,10.84-11.72,9-25.05,14.58-39.21,18.34a216.74,216.74,0,0,1-32.88,5.87C279.17,443.67,271.57,444.33,263.94,444.48Z" transform="translate(-49.99 -32.64)"/><path class="cls-2" d="M141.58,407.52l-1.44.37c.93,1.1,2.56,1.29,3.05,2.71.45.51,1,1,.56,1.77A113.72,113.72,0,0,1,102,382.26a220.77,220.77,0,0,1-27.66-39.68C62.94,322.1,57.67,299.74,53.45,277a194.44,194.44,0,0,1-3.36-42.18,197.34,197.34,0,0,1,7.28-47.68A192.53,192.53,0,0,1,74.8,145.42c.46-.81.72-1.8,1.66-2.28,1,1.57-.24,2.75-.84,4a172.37,172.37,0,0,0-10.74,26.23,211.74,211.74,0,0,0-8,30.73c-.48,1.48-.41,3.07-.86,4.56-.14,2.41-.72,4.77-.88,7.19-.87,5.18-.87,10.43-1.46,15.64q0,9.1,0,18.21c.56,4.85.81,9.72,1.21,14.58a5,5,0,0,1,.22.84,4.77,4.77,0,0,1-.2,2.51c0,.08-.17.22,0,.3a.61.61,0,0,1,.46-.61c1,.42.92,1.28.86,2.13a10.32,10.32,0,0,1-.58,2.13c-.64,1.42.81-.06.74.55,1.39,3.2,1.36,6.69,2.12,10a27.08,27.08,0,0,0,.62,3.08c.73,4.6,2,9.08,3.09,13.6A324,324,0,0,0,73.72,333a3.68,3.68,0,0,0,3.85,2.68c2,0,4-.55,5.87.64a.7.7,0,0,1-.12.82,32.83,32.83,0,0,1-4.83.09c1.34.13,2.84,0,4.33.05,1.1,1.3-.17,1.39-.87,1.44-1.62.12-2,.75-1.23,2.18a1.48,1.48,0,0,1-.09.78c-1.66,1.13-.66,2.26,0,3.42,4.64,8.38,10.24,16.11,15.72,23.94,2,2.88,4.81,5.16,6.37,8.37.41.85.69,1.84,1.89,1.94,3.58,3.89,7.55,7.39,11.2,11.22.09,1.16,1,1.35,1.88,1.6a51.24,51.24,0,0,1,5.86,4.26,43.08,43.08,0,0,0,4.44,2.93,83.57,83.57,0,0,0,11.43,6.21C140.31,406,141.45,406.21,141.58,407.52Z" transform="translate(-49.99 -32.64)"/><path class="cls-6" d="M241,33.39c3.34,1.21,6.8.3,10.19.5,1.53.09,2.87.19,3.6,1.75l-.38.37c-3.22.92-6.51.23-9.76.45-6.83.62-13.71.46-20.5,1.46-.28,1.21.85,1.6,1.39,2.31,3.65,4.83,6.6,10,7.84,16a8.21,8.21,0,0,0,1.81,5.83,17.39,17.39,0,0,1,1.95,6.52c.48,2.92,1.5,5.22,4.48,6.21.06.33.22.73.28.7a4,4,0,0,1,2.41,0c3.68.49,7.4.62,11,1.32a4.2,4.2,0,0,1,2.16.56c.68,1.4-.68,1.21-1.27,1.58-.41.24-.9.41-.91,1s.53.92,1.08,1.12c1.36.5,3,.2,4.15,1.38-.43,1.11-1.34,1-2.15,1.19A42.3,42.3,0,0,1,247,82.31c-3.18-.7-6.44-.85-9.64-1.37-1.84-.31-2.87,1.37-4.39,1.85A6.36,6.36,0,0,0,229.7,85c-2.63,2.63-5.22,5.3-7.92,7.87-.57.55-1.3,1.46-2.15.66s-.23-1.64.33-2.31c1.59-1.91,3.44-3.57,5.19-5.32,1.06-1.07,1.92-2.15,1.36-3.77a4.41,4.41,0,0,1-.18-1.2c1.77-2.72,4.54-4.19,7.21-5.79a1.39,1.39,0,0,0,.8-1.22c-.24.23-.44.57-.86.31-1.64-4.87-2.63-9.9-3.9-14.86a14.13,14.13,0,0,0,.13-2.83c-.1-.88-.43.42-.63,0-1.91-2.16-2.72-5-4.46-7.28a20.45,20.45,0,0,0-10.15-7.56,9.31,9.31,0,0,0-7.95.82c-8.5,4.79-16.63,10.15-24.65,15.68a5.66,5.66,0,0,1-2.76,1.41c-2-.84-.45-1.77.17-2.07,1.8-.89,1.38-2.2,1-3.59.21-1,1.08-1.49,1.82-2,3.84-2.8,8.11-5,11.78-8a13.06,13.06,0,0,1,1-1.43,58.9,58.9,0,0,1,17-4.89c2-.33,3.81-1.13,5.77-1.55,7.3-1.58,14.8-1.26,22.12-2.54Z" transform="translate(-49.99 -32.64)"/><path class="cls-7" d="M64.39,173.09c1.15-5.55,3.54-10.68,5.7-15.86,2-4.76,4.23-9.4,6.37-14.09a169.29,169.29,0,0,1,14.38-22.41c3.64-5.31,7.34-10.57,12.23-14.86,6-5.39,11.54-11.23,17.14-17a3.6,3.6,0,0,1,.9-.75c1.8-.77,2.88-2.41,4.3-3.63.2-.17.4-.32.61-.47a26.55,26.55,0,0,0,3-2.43,2,2,0,0,1,.74-.26c2,.6,1,2.12,1,3.32-2.14,2.77-5.16,4.61-7.52,7.15a106.19,106.19,0,0,0-8.56,8.41c-4.46,4.56-9.11,9-13,14.17a8,8,0,0,1-.73.9,12,12,0,0,0-2.15,2.51,4.51,4.51,0,0,1-.44.61,13,13,0,0,0-1.87,2.31,4.61,4.61,0,0,1-.46.63,39.26,39.26,0,0,0-4.7,6.32A194.14,194.14,0,0,0,72,159.92a37,37,0,0,0-1.86,4.17c-1.61,2.73-1.92,6.09-4.13,8.53C65.28,172,65.13,173.58,64.39,173.09Z" transform="translate(-49.99 -32.64)"/><path class="cls-2" d="M143.75,412.37l-.56-1.77c1.55.24,2.47,1.64,3.85,2.1.93.31,2,1.38,3.05.26,1.63-.41,2.68.78,3.84,1.49a177.86,177.86,0,0,0,30.52,15c1.32.49,2.78.77,3.71,2,.06.23,0,.37-.17.42l-.15.08c3.35.37,6.24,2.64,9.75,2.33,2.55.34,5.06.78,7.23,2.32.79.2-1.22.58,0,.68a9.18,9.18,0,0,1,3.07.58l.29.28c2,.93,3.67,2.66,6.39,2.07.55-.12,2.1.58,3.36.5.46,0-.13,1,0,1.5h0c-.41.69-1.21.18-1.72.56a180.75,180.75,0,0,1-42.75-13.28,184.68,184.68,0,0,1-19.07-9.84c-.73-.43-1.61-.68-2-1.52-2.86-2-5.8-3.82-8.65-5.8Z" transform="translate(-49.99 -32.64)"/><path class="cls-8" d="M130.54,84.46c-1.26-.58.92-2.58-1.17-2.82-.21-1.64,1.09-2.39,2.07-3.17,5.62-4.47,11.33-8.81,17.19-13a9.58,9.58,0,0,1,2.58-1.14,256.64,256.64,0,0,1,22.31-13.63,19.5,19.5,0,0,1,1.83-.75,125.72,125.72,0,0,1,16.35-6.84c1.05-.37,2.16-.94,3.25,0a1.19,1.19,0,0,1-.61,1.17c-4.11,2.6-8.72,4.25-12.81,6.87-14.06,7.07-27,15.92-39.58,25.27-2.56,2.12-5.29,4-7.82,6.19C133.14,83.48,132.23,84.83,130.54,84.46Z" transform="translate(-49.99 -32.64)"/><path class="cls-9" d="M457.18,202.44c-2-.14-.86-1.83-1.12-2.69-1.69-5.58-3.08-11.25-4.66-16.86A240.64,240.64,0,0,0,441,154.08c-2-4.84-4.27-9.62-6.38-14.44-.12-.28.06-.69.11-1,1.34,0,1.67,1.08,2.16,2a204.41,204.41,0,0,1,15.79,37.89c2.07,6.92,3.61,14,5.62,20.87C458.82,201.1,455.94,200.88,457.18,202.44Z" transform="translate(-49.99 -32.64)"/><path class="cls-10" d="M151.21,64.38q-9.19,6.95-18.4,13.88a13.81,13.81,0,0,0-3.44,3.38h0c-1.29.79-2.14,2.11-3.46,2.89h0c-1.76,1.09-2.82,3-4.67,4l-.52.51c-5.89,5.65-11.73,11.33-17.26,17.34-4.43,3.87-7.81,8.65-11.45,13.2a11.77,11.77,0,0,1-1.19,1.15c1.59-4.41,4.87-7.69,7.67-11.28a180.81,180.81,0,0,1,20.16-21.88,216.32,216.32,0,0,1,29.91-22.95C149.42,64.08,150.26,63.69,151.21,64.38Z" transform="translate(-49.99 -32.64)"/><path class="cls-11" d="M195,43.12c-5.43,1.17-10.42,3.58-15.57,5.52a17.4,17.4,0,0,1-4,1.36c7.8-4.8,15.87-9,24.77-11.49,4.06-1.12,8.1-2.12,12.37-1.74,2.19.2,3.54-2,6-1.93,4.16.11,8.34-.6,12.51-.91,2.94-.22,5.89-.35,8.84-.52a10.92,10.92,0,0,1-4.64,1.11c-13.71.56-26.82,4.11-39.8,8.22C195.2,42.79,195.08,43,195,43.12Z" transform="translate(-49.99 -32.64)"/><path class="cls-2" d="M143.73,412.35a29.92,29.92,0,0,1,8.65,5.8A28.89,28.89,0,0,1,143.73,412.35Z" transform="translate(-49.99 -32.64)"/><path class="cls-12" d="M216.23,442.79c.42-.66,1.09-.53,1.72-.56l.59,1.09A3.42,3.42,0,0,1,216.23,442.79Z" transform="translate(-49.99 -32.64)"/><path class="cls-13" d="M405.45,383c-.66-1.31.48-1.89,1.13-2.58a196.18,196.18,0,0,0,30.18-42.18,214.74,214.74,0,0,0,21.47-59.73c.22-1-.67-2.68,1.26-3.06.87,4.37-.76,8.52-1.55,12.64a139.55,139.55,0,0,1-5.12,18.64c-2.29,6.74-5.13,13.23-7.79,19.81-3.33,8.25-7.93,15.77-12.51,23.25a164.75,164.75,0,0,1-15.23,20.46C413.53,374.68,410,379.32,405.45,383Z" transform="translate(-49.99 -32.64)"/><path class="cls-14" d="M448.49,210.62l-1-3.75c-.7-.34-.13-1.2-.65-1.61l0,0c-.73-1.45-.07-3.11-.71-4.57-.05-5.77-2-11.17-3.12-16.74-1-5-2.92-9.82-3.62-14.92.52-1.67-1.21-3.76.94-5.12a256.42,256.42,0,0,1,13.4,46.26,6.11,6.11,0,0,0,.4,1.05c.63.42.38,1,.22,1.5a2.43,2.43,0,0,0,.4,1.88c.58.48.33,1.2.51,1.79a3.72,3.72,0,0,1-.14.74c-.42.75-.51,1.4.52,1.72.66,3.47.92,7,1.41,10.48.16,1.27-.08,2.59.34,3.84-.09,1.7.55,3.36.2,5.06a98.15,98.15,0,0,0-.18,13.17c.06,3-1.24,6-.34,9.07,0,.77-.07,1.54-.1,2.31-.47,1.69-1,3.38-.49,5.16,0,.4-.05.79-.08,1.19-.37,1.3-1,2.57-.5,4l.16.61c.21.55.39,1.1-.15,1.58a3.6,3.6,0,0,0-.42,2.45c.19.54.39,1.08-.19,1.53a2.73,2.73,0,0,0-.43.26c-.33-.17-.21-.56-.39-.8.15.6-.12,1.27.27,1.84l.16.62c.19.53.42,1.08-.2,1.5a2.05,2.05,0,0,0-.43.26.74.74,0,0,1-.28-.69,2.91,2.91,0,0,0,.15,1.75,164.54,164.54,0,0,1-8.07,29.16c-.16.44-.28.9-.41,1.35a4.89,4.89,0,0,1-1.28,3.28,201.81,201.81,0,0,1-19.33,35.33,183.66,183.66,0,0,1-12.72,16.56c-1.62,1.83-3.16,3.73-4.73,5.6a9.06,9.06,0,0,1-3.41,3.59c-2,3-5.39,4.61-7.51,7.5a4,4,0,0,1-2.33,2.16c-7.35,6.92-15.58,12.75-23.6,18.83a4.54,4.54,0,0,1-1.62.4c-.17-1.17.66-1.91,1.19-2.77a40.59,40.59,0,0,0,5.6-14.62c-.15-.53-.4-1.08.22-1.5.88-1.41.34-2.83,0-4.25.06-.4.51-.68.36-1.14,9.69-3.26,17-9.7,23.41-17.41,8.62-10.44,15.17-22.17,20.87-34.4a13.86,13.86,0,0,1,3.55-5.08,19,19,0,0,1,4.6-4.56c5.61-6.26,9.06-13.69,11.61-21.6s5.32-15.7,6.45-24c.13-.94.15-1.89.22-2.83a40.82,40.82,0,0,1,0-8.56,14.46,14.46,0,0,1,1.31-8.23,6.08,6.08,0,0,0,.4-4.48c.14-1,.48-2,.53-3a16.62,16.62,0,0,0,.15-3.31,89.54,89.54,0,0,0,0-15.62,23.41,23.41,0,0,0-.19-4.43c-.22-1.08.08-2.21-.29-3.27-.2-1.05,0-2.13-.32-3.16a4.29,4.29,0,0,1,.15-2.22l.15-.62a7.73,7.73,0,0,0,.13-3.21c-.12-.38-.64,0-.26,0,.15,0,.22,0,.25.14a1.56,1.56,0,0,1-.25,1.54,5.49,5.49,0,0,1-.45-3,6.05,6.05,0,0,0,.2-2.54C449.05,209.84,448.85,210.23,448.49,210.62Z" transform="translate(-49.99 -32.64)"/><path class="cls-15" d="M456.7,229.47c-.85-3.61-.54-7.4-1.82-10.93a1.79,1.79,0,0,1-.1-1.76l.2,0c.27-.34.07-.88.48-1.16,1.12,3.14,1.17,6.46,1.67,9.7.59,3.83.82,7.72,1.2,11.58-.84,1.89.3,4-.65,5.86-1.52-1.41-.63-3.1-.55-4.7v-4.91C456.62,232,457.2,230.66,456.7,229.47Z" transform="translate(-49.99 -32.64)"/><path class="cls-16" d="M457.13,238.09l.53,4.78a43.85,43.85,0,0,1,0,12.84c-.17,1.6-.35,3.19-.52,4.79-.67-.58-.52-1.38-.52-2.12q0-9.09,0-18.17C456.61,239.47,456.46,238.67,457.13,238.09Z" transform="translate(-49.99 -32.64)"/><path class="cls-17" d="M457.65,255.71q0-6.42,0-12.84c.51-2-.56-4.07.67-5.94V261h-.68Z" transform="translate(-49.99 -32.64)"/><path class="cls-16" d="M456.54,268c-.53-1.78-1.32-3.59.49-5.16Z" transform="translate(-49.99 -32.64)"/><path class="cls-18" d="M440.39,163.94c-1.14,1.55.26,3.57-.94,5.12l-.19-.61a18.84,18.84,0,0,1,0-5.66c0-.2.07-.41.11-.61C440.15,162.5,440.22,163.25,440.39,163.94Z" transform="translate(-49.99 -32.64)"/><path class="cls-19" d="M404.26,378.93c1.13-1.2,2.27-2.39,3.41-3.59C407.27,377.24,406.31,378.6,404.26,378.93Z" transform="translate(-49.99 -32.64)"/><path class="cls-20" d="M444.45,317.85a8.31,8.31,0,0,1,1.28-3.28C446.59,316.17,446,317.21,444.45,317.85Z" transform="translate(-49.99 -32.64)"/><path class="cls-16" d="M456,273.15c-.77-1.45-.93-2.82.5-4C456.29,270.49,456.13,271.82,456,273.15Z" transform="translate(-49.99 -32.64)"/><path class="cls-21" d="M394.42,388.59l2.33-2.16C396.71,387.94,396.09,388.83,394.42,388.59Z" transform="translate(-49.99 -32.64)"/><path class="cls-22" d="M455.46,215.65l-.48,1.16c-.06-.73-.11-1.46-.17-2.18l.36-.71C455.78,214.41,455.32,215.08,455.46,215.65Z" transform="translate(-49.99 -32.64)"/><path class="cls-23" d="M456,275.34l.15-1.58c.76.9.54,1.89.19,3.35C456.14,276.22,456.05,275.78,456,275.34Z" transform="translate(-49.99 -32.64)"/><path class="cls-24" d="M454.81,280.62c-.7-.72-.61-1.51-.14-2.74.13.81.19,1.26.26,1.7Z" transform="translate(-49.99 -32.64)"/><path class="cls-25" d="M455.36,279.32l.19-1.53c.58.47.49,1.13.46,1.75,0,.2.06.61-.32.47C455.52,279.94,455.47,279.56,455.36,279.32Z" transform="translate(-49.99 -32.64)"/><path class="cls-24" d="M454.21,284.06c-.66-.72-.59-1.51-.12-2.74.12.82.19,1.25.25,1.68Z" transform="translate(-49.99 -32.64)"/><path class="cls-23" d="M454.77,282.74c.06-.5.13-1,.2-1.5.59.47.49,1.13.46,1.76,0,.2.05.61-.34.45C454.92,283.37,454.87,283,454.77,282.74Z" transform="translate(-49.99 -32.64)"/><path class="cls-26" d="M454.41,212.75c-.08-.5-.15-1-.22-1.5.1-.24.14-.62.32-.71.38-.18.34.23.35.43C454.89,211.61,455,212.27,454.41,212.75Z" transform="translate(-49.99 -32.64)"/><path class="cls-27" d="M293.87,169.64a165.42,165.42,0,0,1,18.6,5.79,399.37,399.37,0,0,1,55.87,24c23.51,12.45,45.18,27.4,63.44,46.92,3.6,3.84,6.86,8,10.28,12,1.83,2.14,1.64,4.84,1.84,7.36A52.81,52.81,0,0,1,441.68,285c-2.9,9.71-5.4,19.57-10.6,28.43a50.31,50.31,0,0,1-9.43,11.13c-1.45,1.36-2.92,1-4.54.54-9.62-2.69-18.71-6.77-27.79-10.81-41.32-18.39-81.56-39-121.95-59.28-.94-.47-1.91-.89-2.86-1.33-.61.09-.77-.3-.84-.79,2.48-4.63,5.47-9,8-13.53a173.53,173.53,0,0,0,16.17-39.77c2.6-9.6,4.89-19.27,5.32-29.28C293.21,169.84,293.38,169.58,293.87,169.64Z" transform="translate(-49.99 -32.64)"/><path class="cls-27" d="M368.69,380.64,318.89,360q-46.5-19.28-93-38.57c-8.21-3.41-16.37-7-24.55-10.45.09-1.32,1.28-1.59,2.12-2.09a181.12,181.12,0,0,0,55.92-50.14c.72-1,1.13-2.55,2.9-2.27l9,4.5c20.64,10.31,41.2,20.82,62,30.9,23.84,11.57,47.64,23.3,72.32,33.06,3.55,1.4,7.22,2.51,10.85,3.69,1.15.37,1.84.62,1.13,2.1-6.25,13-13.23,25.51-22.95,36.27-5.85,6.48-12.68,11.62-21.42,13.67A6.29,6.29,0,0,1,368.69,380.64Z" transform="translate(-49.99 -32.64)"/><path class="cls-27" d="M446.22,252.38c-.89.87-.14,2.31-1.36,3.41-2.52-2.89-5.05-5.76-7.56-8.65a189,189,0,0,0-27.73-25.69c-21.76-16.75-45.82-29.39-71.07-39.92-13.43-5.6-27.15-10.33-41-14.75-.81-.26-1.66-.4-2.5-.59a1,1,0,0,1-1.37-1,125.1,125.1,0,0,0,.7-21.39,249,249,0,0,0-2.92-26.15,178.94,178.94,0,0,0-6.75-26,13.62,13.62,0,0,0-1.53-2.74c-.27-.43-.35-.9.43-.92,7,.71,13.67,2.66,20.41,4.38a351.29,351.29,0,0,1,51.1,17c25.91,11,50,24.91,69.62,45.53,3.63,3.81,7.17,7.78,9.68,12.41,2.75,5.07,3.53,10.86,4.91,16.39q3.48,13.89,5.56,28.07c.46,3.09.45,6.26,1.35,9.29.71,1,.07,2.21.56,3.24a16.78,16.78,0,0,0,.34,3.38,45.17,45.17,0,0,0,.3,6c0,3.11,0,6.23,0,9.35.05,1.48-.45,2.93-.29,4.43a14.32,14.32,0,0,0-.33,3.26C446.6,251.23,446.67,251.89,446.22,252.38Z" transform="translate(-49.99 -32.64)"/><path class="cls-28" d="M80.43,341.56a2,2,0,0,0,.23-.46c.84-1.23,2.25-1.36,3.49-1.77a173.15,173.15,0,0,0,17.87-7,5.28,5.28,0,0,1,2.25-.47,176.16,176.16,0,0,0,44-2.87,173.87,173.87,0,0,0,45.59-15.26,8.41,8.41,0,0,1,2.37-1h.48c13.43,6.14,27.15,11.62,40.72,17.44,3.58,1.53,7,3.42,10.7,5.24l-3.76,4.2a2.63,2.63,0,0,1-1.69,1.91,131.69,131.69,0,0,0-9.81,11.3,2.72,2.72,0,0,1-1.68,1.94,12.92,12.92,0,0,0-2.93,3.24,4.19,4.19,0,0,1-2.25,2.52l-15,15a2.7,2.7,0,0,1-1.89,1.69c-8,6.54-16,12.91-25.08,18a117.69,117.69,0,0,1-19.2,8.82,6.51,6.51,0,0,0-2.67,1.52,6.37,6.37,0,0,1-3.41,0l-5.91,1c-.38.56-1,.28-1.47.37a3.46,3.46,0,0,1-.79.06c-.83-.11-1.83-1-2.31.51-2.25.22-4.48,1.25-6.75.13l.07-.05c-3.76-2.15-7.91-3.56-11.53-6-.85-.58-1.69-1.18-2.54-1.77a4.83,4.83,0,0,0-1.81-2.14,205.89,205.89,0,0,1-38.33-43.09c-2-3-3.89-6.13-5.75-9.25A5.87,5.87,0,0,1,80.43,341.56Z" transform="translate(-49.99 -32.64)"/><path class="cls-29" d="M204.82,437a44.56,44.56,0,0,0-7.59-2.21,27.65,27.65,0,0,1-9.12-2.95c-6.52-2.89-13.23-5.29-19.61-8.52S156.07,416.7,150.09,413c-1.45-1-.56-1.08.48-1.32a145.27,145.27,0,0,0,14.64-4c15.12-5.19,28.54-13.34,40.86-23.4,13.54-11.07,25.11-24.07,36.41-37.34,2.71-3.19,5.31-6.53,8.69-9.14a3.13,3.13,0,0,1,3.62-.43c13.06,5.68,26.15,11.3,39.2,17,4.55,2,9,4.29,13.5,6.35,1.7.77,1.92,1.39.92,3.17-7.33,13-17.29,23.7-28.14,33.8-12.12,11.28-24.65,22.07-37.42,32.57-3.92,3.22-8,6.28-11.87,9.5-1.56,1.27-3.14,1.27-5.06,1.11-6-.48-11.79-2-17.71-2.69v0C207.18,437.5,205.77,437.93,204.82,437Z" transform="translate(-49.99 -32.64)"/><path class="cls-14" d="M244.37,433.48c17.33-13.93,34.25-28.32,49.56-44.51a11.22,11.22,0,0,1,4-4.2,122.89,122.89,0,0,0,16.29-20.16c1-1.56,1.74-2,3.57-1.22,15.74,6.95,31.73,13.28,47.7,19.68a19.09,19.09,0,0,0,2.15.78c5.86,1.58,6,1.8,4.58,7.63a46.24,46.24,0,0,1-9.4,18.32,17.38,17.38,0,0,1-6,5.91c-9.84,8.09-21.43,12.88-33.3,16.81a132.92,132.92,0,0,1-21.79,5c-.41.67-1.19.23-1.71.57-4.06.67-8.11,1.38-12.2,1.74-1.08.21-2.2,0-3.26.34a12.5,12.5,0,0,0-2.8.29,17.82,17.82,0,0,0-3.86.33c-4.6.23-9.18.65-13.78.65a8.3,8.3,0,0,1-3.1.14,178.35,178.35,0,0,0-19.62-.08,6.57,6.57,0,0,1-2,.12,10.09,10.09,0,0,1-1.88-.45c-.59-.15-1.16,1-1.73.08s.39-1.09.85-1.48l6-5C243.07,434.09,243.44,433.42,244.37,433.48Z" transform="translate(-49.99 -32.64)"/><path class="cls-30" d="M327.72,76.52C325.15,65,319,55.19,312.27,45.7L311.07,44c3.53,1,6.45,1.73,9.34,2.61,15.14,4.62,30,9.92,43.4,18.56,7.22,4.66,13.76,10,17.94,17.78a1.88,1.88,0,0,1,.62,1.25c.08,1.12.05,2.24,0,3.36a24.37,24.37,0,0,0-.32,4.35c-.46,1.77-.13,3.59-.25,5.38a31.15,31.15,0,0,0-.31,5.46c-.48,1.81-.14,3.66-.27,5.49-.6,1.8.16,3.74-.61,5.51-.25,3.11-1.56,2.8-3.9,1.62-16.25-8.27-32.47-16.64-49.67-22.86-1.49-.55-1.72-1.23-.82-2.47a3.45,3.45,0,0,0,.94-2,3.62,3.62,0,0,1-.1-2.76C327.91,82.36,327.58,79.42,327.72,76.52Z" transform="translate(-49.99 -32.64)"/><path class="cls-14" d="M272.56,36.88l8.68.42a4.53,4.53,0,0,1,2.13-.16c1,.39,2,.11,3,.43.51.23,1.19-.12,1.61.46l8.21,1.56a7.32,7.32,0,0,1,4.57,1.17c5.83,1.37,8.31,6.24,11,10.77,2.26,3.81,4.16,7.85,6.22,11.78a3.9,3.9,0,0,0,.35.19,8.24,8.24,0,0,1,1.23,2.44c.13.23.23.47.34.7.58,1.16,1,2.41,1.65,3.54a11.45,11.45,0,0,1,1.28,3.95c.17,1.55,1.11,3,.46,4.64.29,3.49,1.5,7-.53,10.41-.13,1.26-1.06,1.78-2.08,2.19-12.5-3.35-25-6.73-37.67-9.28a1.12,1.12,0,0,1-.35-.53c-1.62-.35-2.26-1.63-2.84-3a187.1,187.1,0,0,0-22.95-39.16c-.55-.71-2.12-1.66-.15-2.66,3.88-.21,7.74-.51,11.62.25A8.56,8.56,0,0,0,272.56,36.88Z" transform="translate(-49.99 -32.64)"/><path class="cls-31" d="M262.26,256.46c-2.8,2.37-4.49,5.64-6.74,8.45a197.75,197.75,0,0,1-23.4,24.32c-9.45,8.41-20,15.27-30.8,21.73l0,.21c-4.19-.47-7.65-2.87-11.39-4.46-3-1.29-6.39-2.09-8.82-4.58,0-2.31,1.73-3.22,3.46-4.09a167.1,167.1,0,0,0,25.72-15.61,158.57,158.57,0,0,0,24.83-22.91c1.13-1.31,2.49-2.41,3.51-3.79,2.07-2.78,4.74-5.19,5.37-8.84a4.24,4.24,0,0,1,2.7.73c4.43,2.22,8.88,4.41,13.3,6.65.84.42,1.78.75,2.18,1.74A3.81,3.81,0,0,0,262.26,256.46Z" transform="translate(-49.99 -32.64)"/><path class="cls-31" d="M283.57,87.93c2.91,4,3.66,8.86,5,13.44A176.24,176.24,0,0,1,294.32,131a217.42,217.42,0,0,1,1.16,22.25c0,3.21-.56,6.45-.45,9.7,0,1.09-.66,1.75-1.15,2.55-1,.91-2,.28-3,0-3.89-1-7.7-2.32-11.64-3.15-5-1.59-10.08-2.72-15.13-4-1-.26-2.07-.44-2.61-1.51.81-1.71,2.26-1.1,3.48-.84,3,.62,6,1.35,8.91,2.23,1.83.55,2.42-.1,2.45-1.88.26-13.71-.58-27.32-3.62-40.74a188.91,188.91,0,0,0-8-26.34c-.46-1.21-1.59-2.62.16-3.82,0,0,.22-.19.05-.17-.68.07-1.22,0-.82-.84.26-.54.94-.57,1.52-.65a121.68,121.68,0,0,1,14.95,2.35,4.57,4.57,0,0,1,2.8,1.28C283.49,87.61,283.53,87.77,283.57,87.93Z" transform="translate(-49.99 -32.64)"/><path class="cls-32" d="M400.79,96.05l8.63,8.67a2.66,2.66,0,0,1,1.69,1.93,123.26,123.26,0,0,1,23.95,50.89c.26,1.19,0,2.51.79,3.59.42.32.35.67.08,1-2.39-.71-2.62-3.38-4.3-4.75a12.59,12.59,0,0,1-1.45-1.63,3.53,3.53,0,0,1-1.76-1.73c-2.6-3.89-6.22-6.75-9.74-9.71-.67-.48-1.43-.88-1.7-1.76-8.5-7-16.93-14.06-26.74-19.31a35.34,35.34,0,0,1-6.64-4.3c-.58-.89-.24-1.86-.23-2.8.4-1.76.12-3.55.21-5.32a36.35,36.35,0,0,0,.32-5.42c.47-1.78.16-3.61.25-5.41a36.1,36.1,0,0,0,.31-5.39c.49-1.74.15-3.52.31-5.27a5.75,5.75,0,0,1,.23-.93c.22-.9-.4-1.93.44-2.73,5,2.07,9,5.7,13.44,8.67A2.83,2.83,0,0,1,400.79,96.05Z" transform="translate(-49.99 -32.64)"/><path class="cls-33" d="M293.87,169.64c.45,3.07-.17,6.07-.66,9.07a188.84,188.84,0,0,1-12.57,44.08A155.15,155.15,0,0,1,264,253a.87.87,0,0,1-1,.27c-2.78-1.66-6.22-2.23-8.33-5,3.28-.71,4.21-3.66,5.68-6.06A174.41,174.41,0,0,0,283,184.57c.89-4.52,1.32-9.1,2.28-13.59.29-1.39.29-2.3-1.26-2.94s-1.51-1.41.22-1.82c3.31.55,6.73.77,9.54,3Z" transform="translate(-49.99 -32.64)"/><path class="cls-34" d="M181.15,301.91l20.12,9.26-4.59,1.57V313a7.05,7.05,0,0,1-3.31-.73c-10.16-4.67-20.57-8.83-30.13-14.72-1.47-.9-2.41-.35-3.54.59a267.49,267.49,0,0,1-31.88,22.41,7.63,7.63,0,0,1-2.57,1.23c-1.15,0-2.25.17-2.7,1.5-5.8,3.76-11.77,7.19-18.45,9.17l-1.74.53c-1.58-.09-3.17.29-4.75,0-.73-.14-1.56-.06-1.72-1.08,1.67-1.44,1.59-3,.92-5.05C94.86,321,93.26,315,91.89,309a13.56,13.56,0,0,1-.32-3.05c.54-2.81-.78-5.38-1.06-8.09-.09-.94-.57-2,.36-2.61s1.33.94,2.08,1c1.14.06.94,2.19,2.46,1.43,1.71.47,1.53,2.08,1.82,3.27,1.86,7.53,3.87,15,6.4,22.33,1.17,3.39,1.44,3.5,4.67,1.92A233.62,233.62,0,0,0,140.57,306c1.33-.93,2.68-1.84,4.08-2.67a8.77,8.77,0,0,0,1.6-1,11.33,11.33,0,0,1,1.21-.84,9.78,9.78,0,0,0,1.42-1.15,11.52,11.52,0,0,1,1.25-1c2.28-1.88,4.74-3.53,6.91-5.54.8-.74,1.63-1.52,1.41-2.65-.59-3-.15-6.09-.88-9.08a20.24,20.24,0,0,1-.26-2.81c0-2,0-3.95,0-5.92a30.23,30.23,0,0,0-.2-6.79,4,4,0,0,1,.07-2c.3-.59.5-1.28,1.37-1.24,1.27,1,1,2.4,1,3.69-.09,5.22.4,10.43,0,15.65.15-2.15-.6-4.68,2.38-5.6,1.87,2.43,1,5.4,1.49,8.09.39,2,.23,4.16.73,6.2a1.18,1.18,0,0,1,.64.34c1.85,2.8,5,3.75,7.64,5.38C175.27,298.78,178.6,299.64,181.15,301.91Z" transform="translate(-49.99 -32.64)"/><path class="cls-6" d="M254.78,248.38,264,253l.55.63L262.13,256,244,247.19c-5.16-1.73-9.71-4.75-14.66-6.93-4.22-2.65-8.77-4.67-13.22-6.9a102.89,102.89,0,0,0-9.61-5.13,6.26,6.26,0,0,1-2.57-1.77c-1.83-2.26-4.82-2.66-7-4.36-.52-.41-1.18-.63-1.73-1-.75-.5-1.46-1.07-.88-2.1a1.66,1.66,0,0,1,2.25-.63,60.15,60.15,0,0,1,5.37,2.73,7.06,7.06,0,0,0,2.92,1.09c2.18.5,4,1.81,6,2.65,8,4.2,16,8.49,24.09,12.61,5.9,2.84,11.49,6.27,17.43,9A4.1,4.1,0,0,1,254.78,248.38Z" transform="translate(-49.99 -32.64)"/><path class="cls-35" d="M283.44,87.45l-17.65-3c-1.61-.63-3.31.46-4.94-.24-.82-.35-1.93-.16-2.19-1.38l1.12-.12a8.13,8.13,0,0,0-3.37-.91c-1.55-.17-2.12-.79-2.18-2.2-.08-1.7,1.18-1.32,2.16-1.46a4.82,4.82,0,0,0,1.24-.54l.38-.23.44-.06c2.34,0,4.61,1.14,7,.33,5.94.8,11.86,1.68,17.44,4a1.34,1.34,0,0,1,.13.4c-1.18,1.7.3,3,.8,4.38C284.06,87.18,284.25,87.35,283.44,87.45Z" transform="translate(-49.99 -32.64)"/><path class="cls-34" d="M293.75,169.18l-9.6-2.44a114.64,114.64,0,0,1-21.93-5.7c-.81-3.23-.47-3.58,2.91-2.7,4.24,1.11,8.58,1.83,12.69,3.42a1.66,1.66,0,0,0,1.64-.12l14.42,3.89,1.13.66C294.27,167.05,294.79,168.45,293.75,169.18Z" transform="translate(-49.99 -32.64)"/><path class="cls-5" d="M322.11,74.19a10.36,10.36,0,0,0-1.28-3.86c-.31-1.29-.31-2.72-1.53-3.62l-.16-.57A3.9,3.9,0,0,0,318,63.28v0c.1-.53-.13-1.29.54-1.49s1.27.48,1.54,1c1.44,3,3.3,5.88,4.05,9,.68,2.81,2,5.42,2.31,8.53,1.54-1.11.14-2.94,1.31-3.9A18.49,18.49,0,0,1,327.19,88c-.63-.64-1.22-1.37-2.28-1.15a6.42,6.42,0,0,1,0-4c-.7-1.45-.15-3.22-1.14-4.6C322.8,77,323.21,75.3,322.11,74.19Z" transform="translate(-49.99 -32.64)"/><path class="cls-36" d="M449.61,222.53l.16,3.22c.51,1.38-.07,2.87.4,4.25a121.46,121.46,0,0,1,0,16.74c-.41,1,.06,2.08-.39,3.06a2.88,2.88,0,0,1-.74,2.63c.23-4.89.67-9.78.61-14.67a141.24,141.24,0,0,0-1-15.64c-.19-1.53-.59-3.23.42-4.72,0,.66.09,1.33.13,2C449.63,220.4,449.17,221.52,449.61,222.53Z" transform="translate(-49.99 -32.64)"/><path class="cls-37" d="M381.81,91.92l.12-4.54A6,6,0,0,0,382,84l-.21-1.07c1.61,0,1.26,1.33,1.21,2.13-.48,8.27-1.08,16.52-1.57,24.79-.13,2.27,0,4.56,0,7.34-1-1.39-.48-2.49-.73-3.46,0-1.89.09-3.77.14-5.66.59-1.71-.18-3.54.45-5.25l.12-5.68C382,95.45,381.17,93.62,381.81,91.92Z" transform="translate(-49.99 -32.64)"/><path class="cls-38" d="M384.78,94.59c-.06,1.84-.11,3.67-.16,5.5-.52,1.77.15,3.64-.41,5.41-.06,1.84-.11,3.68-.17,5.51-.52,1.78.15,3.64-.41,5.41l0,2.56c-1.3-3-.59-6-.41-9,.09-1.58.43-3.19.37-4.79-.22-5.13,1-10.2.63-15.34,0-.4.35-.83.54-1.24s.32-.28.49,0l0,.61C384.66,90.94,385.35,92.82,384.78,94.59Z" transform="translate(-49.99 -32.64)"/><path class="cls-39" d="M446.79,247.77l.12-4.55a45.68,45.68,0,0,0,0-9.71c-.05-2.08-.09-4.16-.14-6.25a6,6,0,0,1-.16-2.83.48.48,0,0,1,.79-.15c-.42,4.46.66,8.86.61,13.32a125.61,125.61,0,0,1-1.27,16.06c-.7-.31-.4-.87-.53-1.28,0-.56.09-1.12.13-1.68C446.85,249.77,446.24,248.68,446.79,247.77Z" transform="translate(-49.99 -32.64)"/><path class="cls-40" d="M272.56,36.88c-2.36,1.06-4.84.37-7.26.47-3.12.13-6.25,0-9.39,0-3.12,1.52-10.2,1.27-12.18-.43.86-1.06,2.07-.59,3.15-.72,6,0,11.93,0,17.89,0a6,6,0,0,1,3.33.46Z" transform="translate(-49.99 -32.64)"/><path class="cls-41" d="M237.53,441.16l1.72,0c4.75-.13,9.5-.07,14.25-.1a97.78,97.78,0,0,1,10,.33l.48.25c-.75.87-1.77.55-2.68.56-6.69,0-13.37,0-20,0C239.88,442.24,238.55,442.26,237.53,441.16Z" transform="translate(-49.99 -32.64)"/><path class="cls-41" d="M264,441.17l14.17-.73a9.77,9.77,0,0,1,3.45-.16.49.49,0,0,1,.2.8c-5.94,0-11.86,1-17.82.58-.19-.11-.25-.22-.19-.33S263.9,441.17,264,441.17Z" transform="translate(-49.99 -32.64)"/><path class="cls-42" d="M268.1,36.7H246.61a.55.55,0,0,1,.5-.73c2.62-.06,5.23,0,7.85,0,4.3.22,8.61-.44,12.89.35C267.93,36.44,268,36.57,268.1,36.7Z" transform="translate(-49.99 -32.64)"/><path class="cls-43" d="M267.85,36.3l-13.09-.17c-.19-.1-.25-.21-.19-.32s.12-.16.18-.16h17.77l0,.66Z" transform="translate(-49.99 -32.64)"/><path class="cls-44" d="M287.54,439.44l12.66-1.73c.19.12.26.23.19.34s-.14.16-.2.16c-3.1,1.21-6.41,1.19-9.63,1.69a7.41,7.41,0,0,0-3,.61.86.86,0,0,1-.33-.54A.78.78,0,0,1,287.54,439.44Z" transform="translate(-49.99 -32.64)"/><path class="cls-2" d="M150.64,406.47l.61.19c.2.12.26.22.2.33s-.14.16-.2.16c-3.23.67-6.41,2.14-9.74.42,2.51.34,4.93-.36,7.38-.65A2.59,2.59,0,0,1,150.64,406.47Z" transform="translate(-49.99 -32.64)"/><path class="cls-45" d="M356.81,415.71l6-5.91A9.31,9.31,0,0,1,356.81,415.71Z" transform="translate(-49.99 -32.64)"/><path class="cls-46" d="M429,322.09a19.34,19.34,0,0,1-4.6,4.56A6.91,6.91,0,0,1,429,322.09Z" transform="translate(-49.99 -32.64)"/><path class="cls-47" d="M447.32,265.14a42.22,42.22,0,0,1,0,8.56A15.66,15.66,0,0,1,447.32,265.14Z" transform="translate(-49.99 -32.64)"/><path class="cls-46" d="M297.91,384.77l-4,4.2A5.15,5.15,0,0,1,297.91,384.77Z" transform="translate(-49.99 -32.64)"/><path class="cls-48" d="M300.76,40.76l-4.57-1.17A3.46,3.46,0,0,1,300.76,40.76Z" transform="translate(-49.99 -32.64)"/><path class="cls-5" d="M447.41,224.28h-.58c-.16.28-.32.27-.48,0L446.2,221c.06-.81.13-1.62.24-3.11C447.21,220.41,446.29,222.49,447.41,224.28Z" transform="translate(-49.99 -32.64)"/><path class="cls-49" d="M322.11,74.19c1.71.86,1.25,2.62,1.66,4l-.49.56Z" transform="translate(-49.99 -32.64)"/><path class="cls-50" d="M368.69,380.64h4.44c.25.13.85.48.5.51a41.59,41.59,0,0,1-5-.05s-.09-.15-.08-.22A.67.67,0,0,1,368.69,380.64Z" transform="translate(-49.99 -32.64)"/><path class="cls-51" d="M287.54,439.93v.58c-1.92.16-3.92-.44-5.76.57v-.58c-.21-.1-.27-.21-.21-.32s.14-.16.21-.16l2.66-.15A4.39,4.39,0,0,1,287.54,439.93Z" transform="translate(-49.99 -32.64)"/><path class="cls-52" d="M439.25,162.79a21.45,21.45,0,0,1,0,5.66A7.31,7.31,0,0,1,439.25,162.79Z" transform="translate(-49.99 -32.64)"/><path class="cls-51" d="M446.19,200.72c1.15,1.38.71,3,.71,4.57A6.39,6.39,0,0,1,446.19,200.72Z" transform="translate(-49.99 -32.64)"/><path class="cls-53" d="M283.33,37.44l-2.09-.14a5.46,5.46,0,0,1,5.15.08l-.38.24A6.55,6.55,0,0,1,283.33,37.44Z" transform="translate(-49.99 -32.64)"/><path class="cls-54" d="M226,360.53l2.25-2.52C228.14,359.44,227.72,360.57,226,360.53Z" transform="translate(-49.99 -32.64)"/><path class="cls-55" d="M324.91,82.81v4A3.38,3.38,0,0,1,324.91,82.81Z" transform="translate(-49.99 -32.64)"/><path class="cls-56" d="M449.08,215.2c.15-.62-.18-1.33.49-2,.1,1.33.51,2.51-.36,3.61C449.16,216.25,449.12,215.73,449.08,215.2Z" transform="translate(-49.99 -32.64)"/><path class="cls-57" d="M320.67,91.37l2.08-2.19C323.21,91,322,91.22,320.67,91.37Z" transform="translate(-49.99 -32.64)"/><path class="cls-58" d="M428.42,154.06c.93.23,1.3,1,1.76,1.73C428.7,156.12,428.63,155,428.42,154.06Z" transform="translate(-49.99 -32.64)"/><path class="cls-56" d="M448.49,210.62c.06-.45.12-.9.26-2,.45,1.68.66,2.66-.12,3.56C448.58,211.66,448.54,211.14,448.49,210.62Z" transform="translate(-49.99 -32.64)"/><path class="cls-59" d="M242.65,341.53c.56-.64,1.12-1.28,1.69-1.91C244.21,340.64,244.39,341.93,242.65,341.53Z" transform="translate(-49.99 -32.64)"/><path class="cls-54" d="M231.16,354.77l1.68-1.94C232.73,353.87,232.86,355.12,231.16,354.77Z" transform="translate(-49.99 -32.64)"/><path class="cls-59" d="M209.1,377.18l1.89-1.69C211.39,377.21,210.12,377.05,209.1,377.18Z" transform="translate(-49.99 -32.64)"/><path class="cls-60" d="M288,38l-1.58-.17c-.2-.1-.26-.21-.2-.32s.13-.16.19-.16h2.84l0,.43Z" transform="translate(-49.99 -32.64)"/><path class="cls-58" d="M417,142.59c.7.46,1.52.8,1.7,1.76C417.74,144.13,416.63,144.06,417,142.59Z" transform="translate(-49.99 -32.64)"/><path class="cls-61" d="M158.74,405.51c1.14-.41,2.27-.06,3.41,0A2.81,2.81,0,0,1,158.74,405.51Z" transform="translate(-49.99 -32.64)"/><path class="cls-62" d="M151.25,407.15v-.49l1.58-.16,1.28.22,0,.43Z" transform="translate(-49.99 -32.64)"/><path class="cls-63" d="M244.37,433.48l-1.68,1.28C242.56,433.42,243.11,433,244.37,433.48Z" transform="translate(-49.99 -32.64)"/><path class="cls-58" d="M400.79,96.05l-1.91-1.67C399.91,94.49,401.13,94.39,400.79,96.05Z" transform="translate(-49.99 -32.64)"/><path class="cls-58" d="M411.11,106.65l-1.69-1.93C411.16,104.34,411,105.62,411.11,106.65Z" transform="translate(-49.99 -32.64)"/><path class="cls-64" d="M376.6,383.54a3.33,3.33,0,0,1,.71.21c0,.64-.7.62-1.07.93l-.63-.84Z" transform="translate(-49.99 -32.64)"/><path class="cls-65" d="M376.21,388.93c-.07.5-.15,1-.22,1.5-.58-.48-.47-1.13-.45-1.76,0-.2,0-.61.35-.44C376.07,388.31,376.11,388.69,376.21,388.93Z" transform="translate(-49.99 -32.64)"/><path class="cls-66" d="M385.22,88.55h-.49c.17-1-.48-2.14.71-2.85C385.37,86.66,385.29,87.61,385.22,88.55Z" transform="translate(-49.99 -32.64)"/><path class="cls-67" d="M435.93,162.17c0-.35-.06-.69-.08-1s.13-.86.24-1.6C436.63,160.69,436.67,161.47,435.93,162.17Z" transform="translate(-49.99 -32.64)"/><path class="cls-68" d="M300.19,438.21c0-.17,0-.33,0-.5l1.52-.2.73.36c-.09.1-.18.29-.27.3C301.51,438.2,300.85,438.2,300.19,438.21Z" transform="translate(-49.99 -32.64)"/><path class="cls-47" d="M446.85,205.26c.77.31.63,1,.65,1.61a1.74,1.74,0,0,1-.18.53c-.23.28-.45.21-.47-.15C446.83,206.59,446.85,205.92,446.85,205.26Z" transform="translate(-49.99 -32.64)"/><path class="cls-69" d="M58.63,285.29c-1.37-3.72-1.45-7.69-2.25-11.52-.14-.63,0-1.32-.55-1.84a2.1,2.1,0,0,1-.1-2.19c0-.83.21-1.71-.48-2.4s0-1.62-.61-2.25v0c-.62-1.56-.16-3.18-.29-4.76a3.06,3.06,0,0,1,.7-1.7c1.63-.89,3,.13,4.27.81a116.87,116.87,0,0,0,22,8.94c3.23.9,3.31.8,3-2.66-.08-.93-.45-1.87,0-2.8a.76.76,0,0,1,.82-.26,2.81,2.81,0,0,1,1.07,1.51c.33,2.31,1,4.58.85,6.94-.08,1.23.46,2.37.52,3.58,0,.31,0,.61,0,.91-.15,1.55.46,3,.59,4.5.23,2.6.93,5.15.89,7.78a8.77,8.77,0,0,0-.08,3.68c.48,2.8-.18,3.37-2.86,2.74a205.18,205.18,0,0,1-25.54-7.73A9.68,9.68,0,0,1,58.63,285.29Z" transform="translate(-49.99 -32.64)"/><path class="cls-70" d="M58.63,285.29c.11-.42.19-1.36.37-1.18,4.13,4,9.82,4.21,14.77,6.14,4.14,1.61,8.63,2.31,12.93,3.53,1.64.46,2.17,0,1.77-1.56-.35-1.38-1-2.73,0-4.11a3.56,3.56,0,0,1,1.39,3c.34,5,1.87,9.81,2.21,14.81l.47,2.92a1.05,1.05,0,0,0-.21.8c.77,4.32.54,4.62-3.9,4a146.94,146.94,0,0,1-17.58-4c-2.95-.79-2.92-.88-3.12,2,0,.6-.19,1.14-.89,1.29-2-2.31-2.08-5.38-3.1-8.08-.73-1.93-1-4-2.11-5.81C60.47,294.52,59,290,58.63,285.29Z" transform="translate(-49.99 -32.64)"/><path class="cls-71" d="M80.43,341.56a160.06,160.06,0,0,0,8.81,14.59c9.38,14.28,21.19,26.44,33.44,38.2,1.22,1.18,2.72,2.07,4,3.15.68.56,1.69,1.1.79,2.26-3.81-1.64-6.65-4.64-9.92-7.05a2.68,2.68,0,0,1-2-1.68l-11.53-11.54a3.43,3.43,0,0,1-1.76-1.74c-4.81-5.93-9.38-12-13.66-18.36-3.43-5.06-6.57-10.3-9.66-15.57C77.87,341.84,78.77,341.57,80.43,341.56Z" transform="translate(-49.99 -32.64)"/><path class="cls-5" d="M96.06,331.93c2,.93,4.35-.25,6.3,1a127.47,127.47,0,0,1-21.7,8.15c-1-.48-1.84-1.38-1.54-2.38s1.62-.45,2.49-.56c.64-.09,1.32,0,1.78-.59-.22-.13-.29-.26-.22-.38s.14-.19.21-.19c0-.16,0-.33,0-.49.41-.9,1.27-1.11,2.1-1.37,3.05-.94,6-2.21,9-3.3C95,331.7,95.56,331.47,96.06,331.93Z" transform="translate(-49.99 -32.64)"/><path class="cls-72" d="M85.65,335.78l-2.26.73-.29,0c-2.93-.2-6.5,1.11-8.62-.68-1.94-1.64-2.49-5-3.49-7.66-3.58-9.54-6.73-19.22-9.36-29.07,1.87,1.34,1.59,3.62,2.32,5.45,1.09,2.7,1.86,5.53,2.77,8.3,1.32.54,1.57,1.82,2,2.95,1.8,4.28,3.41,8.66,5.89,12.64.26.51.41,1.07.63,1.6,2,5.13,2.37,5.31,7.85,4.83C84.06,334.77,85.28,334.21,85.65,335.78Z" transform="translate(-49.99 -32.64)"/><path class="cls-73" d="M64.39,173.09c.5.11.47-1.29,1.24-.44.65,2-.83,3.59-1.15,5.4s-1.22,3.77-1.64,5.72A162.7,162.7,0,0,0,58.59,200a9.1,9.1,0,0,1-1.4,4,.66.66,0,0,1-.84.11c.58-6.18,2.28-12.12,3.88-18.07C61.41,181.69,62.27,177.18,64.39,173.09Z" transform="translate(-49.99 -32.64)"/><path class="cls-74" d="M54.71,259.89l-.06,5.22c-1.15-2.44-.67-5.13-1.07-7.69-.37-2.38-.09-4.87-.67-7.27.61-.49-.09-1.52.8-1.89a.84.84,0,0,1,.73.46,8.8,8.8,0,0,1,.43,3.22c.05,1.71-.23,3.44.29,5.13A7,7,0,0,1,54.71,259.89Z" transform="translate(-49.99 -32.64)"/><path class="cls-34" d="M52.92,231.18c.79-5.15.28-10.45,1.71-15.53a.48.48,0,0,1,.75.2c.17,1.67-.08,3.35,0,5a12.56,12.56,0,0,1-.21,2.74c-.54,1.46-.28,3-.42,4.48a6.3,6.3,0,0,1-1,3A.6.6,0,0,1,52.92,231.18Z" transform="translate(-49.99 -32.64)"/><path class="cls-34" d="M52.92,231.18l.61,0c.75,0,.77.56.79,1.11-.08,4.2,0,8.4,0,12.6,0,1.23.16,2.51-.79,3.54,0,.63.1,1.32-.58,1.74Q52.91,240.65,52.92,231.18Z" transform="translate(-49.99 -32.64)"/><path class="cls-75" d="M55.12,215.65h-.49c-.35-2.53.81-5,.6-7.47a.55.55,0,0,1,.82.15,4.27,4.27,0,0,1,.49,2.33C56.47,212.44,56.49,214.24,55.12,215.65Z" transform="translate(-49.99 -32.64)"/><path class="cls-50" d="M83.38,337c0,.19,0,.38,0,.57H77.76V337Z" transform="translate(-49.99 -32.64)"/><path class="cls-8" d="M55.79,208.18h-.56c1-1.18,0-2.9,1.12-4h.52c1,1.14.33,2.28,0,3.42C56.63,208,56.34,208.32,55.79,208.18Z" transform="translate(-49.99 -32.64)"/><path class="cls-76" d="M54.64,265.09c.85.58.52,1.47.61,2.25l-.12,1.09-.49.05Z" transform="translate(-49.99 -32.64)"/><path class="cls-76" d="M55.73,269.74c0,.73.06,1.46.1,2.19-.18.16-.14,1.23-.54.3A2.14,2.14,0,0,1,55.73,269.74Z" transform="translate(-49.99 -32.64)"/><path class="cls-77" d="M102.35,377.75c.93.24,1.3,1,1.76,1.74C102.6,379.85,102.58,378.69,102.35,377.75Z" transform="translate(-49.99 -32.64)"/><path class="cls-78" d="M115.64,391l2,1.68C116.55,392.6,115.29,392.75,115.64,391Z" transform="translate(-49.99 -32.64)"/><path class="cls-79" d="M234,75.3a64.18,64.18,0,0,0-7.47,5.78,3.45,3.45,0,0,1-1.55,2,9.46,9.46,0,0,0-2.22,1.82c-1,1-1.95,2-2.91,2.93-2.18,1.51-3.59,3.79-5.52,5.55-1,1-2,2-3,3a13.51,13.51,0,0,0-2.23,2.6,17.11,17.11,0,0,1-1.82,2,2.56,2.56,0,0,1-2.09,1c-2.06,0-3.3-1.17-4.28-2.87A100.44,100.44,0,0,0,174,69.14c-.46-.35-1-.64-1.28-1.14a3.87,3.87,0,0,0-2.13-2.33,18.28,18.28,0,0,1,8.26-6.42c9-6.22,18.18-12.26,27.72-17.71a8.86,8.86,0,0,1,7.36-.85c7.09,2,11.32,7.1,14.36,13.44.37.77.72,1.55,1.09,2.32a2.62,2.62,0,0,1,.67,2.19Q232,66.46,234,74.27A.62.62,0,0,1,234,75.3Z" transform="translate(-49.99 -32.64)"/><path class="cls-80" d="M243.83,36.84c4,1.18,8.06.23,12.08.54a142,142,0,0,1,14.55,21.13,181.31,181.31,0,0,1,10,19.94c.56,1.3,1,2.77,2.89,2.7.05,0,.1.11.15.16l-.66.38L265.08,78.3c-2.37.52-4.58-.47-6.86-.73l0,0c-1-.55-2.05-.13-3.07-.3-2.41-1-5-.72-7.53-1.13a12.53,12.53,0,0,0-3.06-.32c-.28-.06-.57-.13-.85-.22-.67-.18-1.47.3-2-.41-3.45-.36-4.89-2.36-5.21-5.74a26.09,26.09,0,0,0-1.92-7.39,14.76,14.76,0,0,1-1.71-5.73c-2-6.39-4.65-12.38-9.38-17.26-.31-.33-1.13-.58-.37-1.26a2.29,2.29,0,0,1,.85-.4,22.26,22.26,0,0,0,3.36-.35c4.52-.25,9.05-.4,13.56-.78C241.89,36.23,243,36,243.83,36.84Z" transform="translate(-49.99 -32.64)"/><path class="cls-81" d="M232.47,82.29c4.6-4.22,9.55-1,14.36-.69-.12.87,1,.21,1.16,1.11.82,5.77,4.14,10.63,6,16,4.46,13,7.69,26.21,8.6,40,.3,4.5.45,9,.44,13.47,0,4-.36,4.31-4.52,4a4.88,4.88,0,0,0-1.41.22,6.19,6.19,0,0,1-2.84-.05c-3.31-1.4-6.91-1.49-10.36-2.25-1.11-.43-2.57-.16-3.16-1.59.18-1.34,1.26-1.41,2.17-1.26,2.34.4,2.46-1,2.47-2.69A119.31,119.31,0,0,0,244,132.31a128,128,0,0,0-12.64-41.19c-.64-1.27-1.43-2.52-.9-4.23-1.67,1-2.45,3-4.55,3.13-.84-.3-.66-.86-.22-1.3C227.89,86.54,229.8,84,232.47,82.29Z" transform="translate(-49.99 -32.64)"/><path class="cls-82" d="M257,155.92a1.51,1.51,0,0,1,2-.46c2.44,1,3.14.14,3.2-2.4a151.65,151.65,0,0,0-6.53-46.72,141,141,0,0,0-8.07-20.45c-.29-.6-1-1.41-.79-1.78,1.31-2.57-1.12-1.6-2.5-2.27l2.44-.24c3.94.47,7.82,1.46,11.83,1.27l7.13,1.62c-.07.33-1.47-.58-.57.62.09.13.31.17.47.25-2.07,3.39.84,5.85,1.78,8.56A183.28,183.28,0,0,1,275.88,128a185.3,185.3,0,0,1,1.33,30c0,1.95-.83,1.88-2.35,1.43-3.46-1-7-1.85-10.49-2.76-.94-.24-1.87-.49-2.71.26C259.83,157.94,258.23,157.9,257,155.92Z" transform="translate(-49.99 -32.64)"/><path class="cls-83" d="M232.47,82.29l-7.19,7.38c-1.65,3.43-4.95,5.46-7.13,8.46-1.45,2-3.17,3.82-4.75,5.73a5,5,0,0,1-.47.64c-.51.59-1.08,1.13-1.54,1.77-3.71,4.65-6.8,9.77-10.85,14.15-2.63,1.44-2.91,1.49-3.42-1.31-.32-1.7-1.55-1.68-2.46-2.35.21-2.31,1.89-3.84,3.08-5.61,1.42-2.1,3-4.09,4.56-6.11a30.3,30.3,0,0,1,2.5-2.92,1.12,1.12,0,0,1,.71-.21l1.49-1.33a2.53,2.53,0,0,0,1.69-2A7.42,7.42,0,0,1,211,96a5.55,5.55,0,0,0,2.84-3.07,35,35,0,0,1,5.6-5.55,6,6,0,0,0,3.06-2.83,4.52,4.52,0,0,1,2-1.77c1,0,1.44-1.4,2.58-1.09.85,1.82.27,3.16-1.21,4.43-1.72,1.49-3.26,3.18-4.86,4.82-.62.64-1.5,1.18-1.2,2.94,3.47-3.48,6.63-6.67,9.81-9.83C230.48,83.25,231.1,82.14,232.47,82.29Z" transform="translate(-49.99 -32.64)"/><path class="cls-84" d="M141.5,76a256.11,256.11,0,0,1,39.65-25.38c.89.25,1.56.64,1.19,1.74L180.52,54c-.41,1.18-1.46,1.75-2.38,2.41A241.31,241.31,0,0,0,146,84.11c-.95,1-1.69,2.42-3.44,2.22-.72-1.37.37-2.1,1.09-2.9,1.46-1.61,3.11-3,4.78-4.92-2.39-.42-3.92-2.89-6.62-1.87C141.63,76.71,141.43,76.3,141.5,76Z" transform="translate(-49.99 -32.64)"/><path class="cls-85" d="M142.66,86.41c7.59-7.56,15.23-15.08,23.62-21.77A154.7,154.7,0,0,1,180.52,54c.25,1,1.21,1.16,2,1.47-.93,1.62-3.32,1.68-3.65,3.75l-8,6.44c-.85,1.83-2.47,2.92-4,4C164,71.55,162.15,74.52,159,76A6.89,6.89,0,0,0,155,79.73c-2.14,3.33-5.37,5.64-7.95,8.54a20.47,20.47,0,0,0-3.57,4,34.94,34.94,0,0,1-4.72,4.7c-.46.13-.94.16-1.39.32-.75.25-1.5.42-2.07-.34s-.06-1.43.4-2a4.8,4.8,0,0,0,1.1-2A18.78,18.78,0,0,1,142.66,86.41Z" transform="translate(-49.99 -32.64)"/><path class="cls-86" d="M182.34,52.35l-1.19-1.74a71.68,71.68,0,0,1,13.19-6.32C190.65,47.44,186.35,49.68,182.34,52.35Z" transform="translate(-49.99 -32.64)"/><path class="cls-87" d="M223.73,37.83l-.62,0c-.25-.66-.2-1,.68-1.06,6.88-.36,13.75-.75,20.63-1.13.67.67,1.72-.1,2.38.62a1.82,1.82,0,0,1-.19.43l-2.78.13-17,.61C225.83,37.88,224.73,37.44,223.73,37.83Z" transform="translate(-49.99 -32.64)"/><path class="cls-88" d="M247.5,75.84c2.67.1,5.39-.06,7.84,1.32.18.11.24.21.18.32s-.12.15-.18.15l-8.87-1.14c-.9-.12-1.91.29-2.64-.58-.2-.11-.27-.21-.2-.32s.13-.17.19-.17l.62,0C245.42,75.88,246.52,75.39,247.5,75.84Z" transform="translate(-49.99 -32.64)"/><path class="cls-89" d="M246.8,36.28c-.79-.21-1.75.22-2.38-.62h10.33c0,.16,0,.32,0,.48Z" transform="translate(-49.99 -32.64)"/><path class="cls-88" d="M232.86,56.37c1,1.77,1,3.86,1.71,5.73A5.57,5.57,0,0,1,232.86,56.37Z" transform="translate(-49.99 -32.64)"/><path class="cls-90" d="M230.09,58.64c-.23-.73-.45-1.46-.67-2.19.13-.24.27-1,.43-.58C230.2,56.69,231.18,57.64,230.09,58.64Z" transform="translate(-49.99 -32.64)"/><path class="cls-91" d="M234,75.3c0-.34,0-.69,0-1s.12-.86.22-1.64a3.69,3.69,0,0,1,.28,2.7s-.16.11-.23.1A.75.75,0,0,1,234,75.3Z" transform="translate(-49.99 -32.64)"/><path class="cls-92" d="M243.82,75.42c0,.16,0,.33,0,.49-.84,0-1.69,0-2.53,0-.4,0-.39-.27-.13-.47a1.75,1.75,0,0,1,.53-.19Z" transform="translate(-49.99 -32.64)"/><path class="cls-93" d="M227.15,81.66c-.84.4-1.47,1.33-2.58,1.09.66-.56,1.32-1.12,2-1.67Z" transform="translate(-49.99 -32.64)"/><path class="cls-94" d="M255.34,77.63v-.47c1-.2,2.09-.68,2.91.45l-.62,0Z" transform="translate(-49.99 -32.64)"/><path class="cls-95" d="M100.59,114.9l.46-.51c2.24-1.93,3.85-4.44,5.92-6.53.5-.5,1.06-1.4,1.9-.75,3.27,2.55,7,1,10.53,1.35,1.44.16,3.35-1.23,4.2.47.73,1.46-1,2.7-1.69,4a6.88,6.88,0,0,0-.38.77,8.63,8.63,0,0,1-1.43,2.06,21.33,21.33,0,0,0-2.84,4.13,2.56,2.56,0,0,1-.54.55,4.32,4.32,0,0,1-.69.32c-1.55.35-1.32,1.92-2,2.9a2.7,2.7,0,0,1-.65.52c-3.58,1-7.21,1.57-10.6,3.37C88.21,135.35,86,154,93.1,164.55c.52.77.91,1.63,1.56,2.46a8.73,8.73,0,0,1,1.52-5.39c.88-1.36,1.31-.29,1.6.6a47.49,47.49,0,0,1-4,12.63c-.19.33-.66-.41-.76.18-.7,4.14-1.89,8.17-2.8,12.26-.68,3-1.35,3.25-3.76,1.32a47.35,47.35,0,0,1-14-17.85,42.19,42.19,0,0,1-2.8-6.86c3.53-8.67,8.26-16.71,13-24.78,2.46-4.26,5.76-7.91,8.39-12,2-1.85,3.36-4.25,5-6.37h0a19,19,0,0,0,2.31-2.89v0C99,116.85,100.09,116.1,100.59,114.9Z" transform="translate(-49.99 -32.64)"/><path class="cls-96" d="M69.6,163.9c2.82,2.89,3.35,7,5.33,10.34a55.19,55.19,0,0,0,13.9,15.38c1.29-5.17,2.53-10.08,3.77-15a1.31,1.31,0,0,1,.26-.37l.36.68c.92,1,.41,2.14.18,3.21-.59,2.75-1.42,5.45-2,8.21-.75,3.17-1.27,6.38-2,9.56-.19.92-.14,1.94-1,2.57-.5.07-.65-.23-.7-.64-.08.15,0,.3,0,.45a21,21,0,0,1-.67,6.22c-.59,2.47-1.32,2.85-3.59,1.59a52.54,52.54,0,0,1-9.56-6.78A71.65,71.65,0,0,1,63,187.24c-.91-1.28-.42-2.54-.81-3.76a93.35,93.35,0,0,1,3.45-10.83Q67.61,168.29,69.6,163.9Z" transform="translate(-49.99 -32.64)"/><path class="cls-95" d="M120.81,114c0-2,2.22-3,2.44-5.27-3.71.77-7.36.5-11,.53-1.32,0-2.68.12-3.5-1.31s-1.22,0-1.6.32c-2.07,2-3.31,4.82-6.09,6.12,1.26-2.39,3.26-4.22,5.06-6.16,4.91-5.32,10-10.48,15-15.7A2.87,2.87,0,0,1,123,91.38c1.74,3.73,5.15,3.8,8.55,3.93a3.09,3.09,0,0,1,2.32.85c.7,1.09-.12,1.8-.69,2.51-3.53,4.39-6.84,8.93-10,13.6C122.65,113.12,122.09,114.09,120.81,114Z" transform="translate(-49.99 -32.64)"/><path class="cls-97" d="M133.92,96.61c-1.59-1-3.37-.41-5-.59-2.92-.32-5.73-.79-5.84-4.64,2-2.82,5-4.61,7.51-6.92l11-8.47c3.17-1.59,5.08,2.41,8.38,2.12-1.82,1.84-3.67,3.65-5.47,5.51-.77.8-1.88,1.41-1.75,2.79-1.27,2.58-4.06,4-5.28,6.58A8.93,8.93,0,0,1,133.92,96.61Z" transform="translate(-49.99 -32.64)"/><path class="cls-8" d="M103.48,106.38c.1-1.06.91-1.65,1.58-2.31q6.68-6.72,13.38-13.4a4.57,4.57,0,0,1,2.3-1.63A231.45,231.45,0,0,1,103.48,106.38Z" transform="translate(-49.99 -32.64)"/><path class="cls-95" d="M96,120.72c-1.18,2.52-2.53,4.91-5,6.37C92.42,124.8,93.81,122.45,96,120.72Z" transform="translate(-49.99 -32.64)"/><path class="cls-8" d="M121.26,88.53c1.41-1.51,2.56-3.33,4.68-4C124.59,86.11,123.55,88,121.26,88.53Z" transform="translate(-49.99 -32.64)"/><path class="cls-8" d="M125.92,84.53c.92-1.25,1.82-2.52,3.46-2.89C128.48,82.9,127.67,84.27,125.92,84.53Z" transform="translate(-49.99 -32.64)"/><path class="cls-95" d="M100.59,114.9c0,1.57-1.14,2.28-2.31,3C98.54,116.47,99.61,115.72,100.59,114.9Z" transform="translate(-49.99 -32.64)"/><path class="cls-95" d="M98.29,117.84c-.06,1.53-1.16,2.23-2.31,2.89A4.73,4.73,0,0,1,98.29,117.84Z" transform="translate(-49.99 -32.64)"/><path class="cls-98" d="M188.11,431.85l9.12,2.95c-1.38,1.11-2.49-.15-3.68-.47-2-.54-4-1.27-6-1.93-.06,0-.1-.12-.14-.18Z" transform="translate(-49.99 -32.64)"/><path class="cls-5" d="M204.82,437c1.25.05,2.5.08,3.39,1.17a5.9,5.9,0,0,1-3.74-.58C203.56,437.06,204.64,437.19,204.82,437Z" transform="translate(-49.99 -32.64)"/><path class="cls-99" d="M451,243.68V232.93h.28v10.78Z" transform="translate(-49.99 -32.64)"/><path class="cls-5" d="M450.17,230c-.91-1.34-.31-2.83-.4-4.25A8.9,8.9,0,0,1,450.17,230Z" transform="translate(-49.99 -32.64)"/><path class="cls-1" d="M456.7,229.47c.9,1.14.34,2.46.42,3.7A7.89,7.89,0,0,1,456.7,229.47Z" transform="translate(-49.99 -32.64)"/><path class="cls-100" d="M454.78,216.78c0,.59.07,1.17.1,1.76-.15.16-.09,1-.47.35A1.78,1.78,0,0,1,454.78,216.78Z" transform="translate(-49.99 -32.64)"/><path class="cls-5" d="M449.61,222.53c-.84-.95-.36-2.08-.42-3.14A5.31,5.31,0,0,1,449.61,222.53Z" transform="translate(-49.99 -32.64)"/><path class="cls-5" d="M449.77,249.8c0-1-.41-2.12.39-3.06A5.53,5.53,0,0,1,449.77,249.8Z" transform="translate(-49.99 -32.64)"/><path class="cls-5" d="M446.92,233.51a19.7,19.7,0,0,1,0,9.71Q446.93,238.38,446.92,233.51Z" transform="translate(-49.99 -32.64)"/><path class="cls-5" d="M446.35,224.28h.48c0,1,0,2-.05,3C446.06,226.35,446.33,225.3,446.35,224.28Z" transform="translate(-49.99 -32.64)"/><path class="cls-5" d="M446.79,247.77c-.06,1,.39,2.06-.44,2.93C446.33,249.7,446.08,248.66,446.79,247.77Z" transform="translate(-49.99 -32.64)"/><path class="cls-101" d="M124.76,321.38a232.61,232.61,0,0,0,24.25-16c4-3,7.89-5.94,11.71-9.07a1.48,1.48,0,0,1,2,0c10.68,6.82,22.52,11.29,33.92,16.64a152.55,152.55,0,0,1-34.51,13.66,182.93,182.93,0,0,1-34.82,5.85,129.88,129.88,0,0,1-23.25-.06c6.13-3.27,12.58-5.94,18.4-9.8A2.47,2.47,0,0,1,124.76,321.38Z" transform="translate(-49.99 -32.64)"/><path class="cls-102" d="M150.64,406.47c-.55.27-1,1-1.75.45l-1.51-.85C148.75,406.05,149.74,405.7,150.64,406.47Z" transform="translate(-49.99 -32.64)"/><path class="cls-5" d="M264,441.17v.49c-7.23,0-14.47,0-21.7,0-1,0-2.11.35-3-.46L241,441c6.7-.32,13.39-.33,20.08,0Z" transform="translate(-49.99 -32.64)"/><path class="cls-103" d="M261.06,441c-6.69.25-13.38.27-20.08,0,3.45-1.12,7-.41,10.47-.43C254.65,440.54,257.9,439.94,261.06,441Z" transform="translate(-49.99 -32.64)"/><path class="cls-5" d="M281.79,440v.48l-3.66-.06A8,8,0,0,1,281.79,440Z" transform="translate(-49.99 -32.64)"/><path class="cls-5" d="M287.54,439.93l-3.09-.06a5.74,5.74,0,0,1,3.09-.43Z" transform="translate(-49.99 -32.64)"/><path class="cls-5" d="M381.23,102.83c-.14,1.75.54,3.57-.45,5.25C380.85,106.32,380.34,104.52,381.23,102.83Z" transform="translate(-49.99 -32.64)"/><path class="cls-5" d="M381.81,91.92c-.15,1.74.54,3.56-.46,5.23C381.42,95.4,380.92,93.6,381.81,91.92Z" transform="translate(-49.99 -32.64)"/><path class="cls-5" d="M382,84a2.87,2.87,0,0,1,0,3.37Z" transform="translate(-49.99 -32.64)"/><path class="cls-5" d="M319.3,66.71c1.78.67,1.6,2.17,1.53,3.62Z" transform="translate(-49.99 -32.64)"/><path class="cls-5" d="M318,63.28c1,.69,2.14,1.35,1.18,2.86A5.46,5.46,0,0,1,318,63.28Z" transform="translate(-49.99 -32.64)"/><path class="cls-5" d="M286.39,37.38c0,.16,0,.32,0,.48a5.4,5.4,0,0,1-3.07-.42Z" transform="translate(-49.99 -32.64)"/><path class="cls-82" d="M229.58,239.72a113.53,113.53,0,0,1,14.4,7.47c.81,1.5.17,2.67-.76,3.87a168.38,168.38,0,0,1-19.42,21.05A148.16,148.16,0,0,1,193,294.28c-3,1.6-6,3.31-9.15,4.79-1.34.64-1.63,2.05-2.68,2.84a101.9,101.9,0,0,1-15.44-8,2.15,2.15,0,0,1-1.28-2.3c-.73-.73-.34-1.8-.78-2.62a2.66,2.66,0,0,1-.27-.76c-.07-.81,0-1.62,0-2.43-.08-1.07.21-2.18-.3-3.21a2.9,2.9,0,0,1-.24-.81c-.06-1,0-2,0-3a11.63,11.63,0,0,0-.53-3.93A5.75,5.75,0,0,1,162,274c-.11-1.42-.06-2.84-.08-4.26,0-2.24.08-4.49-.11-6.73a1.32,1.32,0,0,1,.38-.89,1.25,1.25,0,0,1,1,0c1.09.92.91,2.21,1,3.42.09,2.55-.11,5.1.17,7.64.26,6.08,1.18,12.13,1.08,18.25-.07-1.54,1.12-1.91,2.25-2.34a141.21,141.21,0,0,0,36.59-20.66,147.16,147.16,0,0,0,24.49-24.07,7.86,7.86,0,0,1,2.32-2.27c-.53-.92-2.54-.69-2-2.4,0,0,.15-.06.23-.06A1,1,0,0,1,229.58,239.72Z" transform="translate(-49.99 -32.64)"/><path class="cls-6" d="M257,155.92a9.72,9.72,0,0,0,4.62,1l17.81,4.74c-.72.8-1.52.45-2.36.23-4.1-1.09-8.26-2-12.32-3.24-2-.58-2.76-.42-2.13,1.79l-.56.09a2.85,2.85,0,0,1-3,.34c-2.29-.68-4.72-.72-7-1.5-1.33-.57-2.85-.62-4.1-1.42a4.3,4.3,0,0,0-1.31-.94c-1.75-.54-1.59-1.46-.48-2.55,2.8-.32,5.32,1,8,1.38Z" transform="translate(-49.99 -32.64)"/><path class="cls-5" d="M383.63,116.42c.1-1.8-.51-3.66.41-5.41A15.17,15.17,0,0,1,383.63,116.42Z" transform="translate(-49.99 -32.64)"/><path class="cls-5" d="M384.21,105.5c.1-1.81-.52-3.67.41-5.41A15,15,0,0,1,384.21,105.5Z" transform="translate(-49.99 -32.64)"/><path class="cls-5" d="M384.78,94.59c.12-1.81-.53-3.68.42-5.43A14.21,14.21,0,0,1,384.78,94.59Z" transform="translate(-49.99 -32.64)"/><path class="cls-82" d="M251.9,158.71l10.2,1.8,20.78,5.68a8.86,8.86,0,0,1,1.27.55c-1,1.36.78.94.82.94,1.68.18,1.78.76,1.3,2.42-1.4,4.83-1.57,9.91-2.63,14.84q-2.16,10-5.21,19.84c-3.14,10.07-7.6,19.55-12.27,29-2.42,4.87-5.89,9.13-8,14.15-.88,2.08-2.41-.83-3.36.49L234.67,238c-.1-1.74.81-3.12,1.7-4.46a150.51,150.51,0,0,0,21.81-52.09c1.19-5.52,1.94-11.11,2.71-16.7.26-1.9-.41-2.77-2.29-3.18a47.76,47.76,0,0,1-7-1.71c-.47-.18-1.19-.42-.73-1.18C251.15,158.29,251.57,158.49,251.9,158.71Z" transform="translate(-49.99 -32.64)"/><path class="cls-79" d="M158.08,273.41v6.1a17.36,17.36,0,0,0-.18,4.57,2,2,0,0,1,.32-1.86c.35,3.18.67,6.37,1,9.55a2,2,0,0,1-.88,1.94c-2.79,2.08-5.24,4.61-8.3,6.35-.79-2.2-2.28-2.29-4.35-1.82A144.07,144.07,0,0,1,109,301.53c-3.42-.11-6.83-.73-10.28-.48-1.26.09-1.83-.47-2.15-1.71a49.15,49.15,0,0,0-2-5.94,7.59,7.59,0,0,1-.78-1.16,7.92,7.92,0,0,1-.9-4c-.14-1.71-.54-3.37-.79-5.06A4.79,4.79,0,0,1,92,282a4.19,4.19,0,0,1,.12-.79,8.83,8.83,0,0,1,.48-1.3c0-.08.39-.3,0-.36-.12,0-.31.14-.52.05-1.25-1.06-.61-2.65-1.14-3.9a6.68,6.68,0,0,1-.22-1.25,11,11,0,0,0-.33-2.86c-.21-.83-.36-1.67-.64-2.49a4.85,4.85,0,0,1-.2-.9c.17-3.73-.63-7.39-.68-11.1,0-1.3,0-2.61,0-3.92a39.4,39.4,0,0,0-.19-6.33,1.72,1.72,0,0,1,.43-1.4,1.35,1.35,0,0,1,1,0,1.78,1.78,0,0,1,.82,1.45c0,4.71,1,9.44,0,14.12.49-.75-.26-2.15,1-2.64a5.81,5.81,0,0,1,3.4-.13,88.37,88.37,0,0,0,20,1.87,107,107,0,0,0,36.31-6.32,11.79,11.79,0,0,1,1.91-.61c1.75-.34,2.8.32,3,2.16.19,2.1-.06,4.21.2,6.3.14,1-.2,1.94,0,2.92.06.38.56,0,.18.07-.1,0-.16-.06-.17-.22a3.27,3.27,0,0,1,.16-1.61.79.79,0,0,1,.8,0,2.07,2.07,0,0,1,0,1.69v1.78C158.2,268.64,157.46,271.07,158.08,273.41Z" transform="translate(-49.99 -32.64)"/><path class="cls-104" d="M94.86,292.71c2,1.35,1.22,3.64,1.87,5.44.51,1.4.77,2.2,2.74,2.15,4.74-.14,9.5.36,14.26.45a147.8,147.8,0,0,0,32.8-3.43c3.95-.81,4-.7,3.54,2.74l-1,.87c-.71-.15-1,.3-1.25.85l-1,.78c-.57.14-1.13.29-1.33.94a255.47,255.47,0,0,1-38.42,23.13c-2,1-2.85.61-3.55-1.47A261.25,261.25,0,0,1,96,298.85a4.09,4.09,0,0,0-.52-1,2.75,2.75,0,0,1-.69-1.19C94.68,295.37,93.73,294,94.86,292.71Z" transform="translate(-49.99 -32.64)"/><path class="cls-105" d="M74.18,328.37c-2.8-2.78-3.46-6.67-5.14-10-.89-1.78-1.55-3.67-2.32-5.51,1-.75.27-1.54,0-2.31-.76-2.7-.46-3.1,2.32-2.24,5.54,1.7,11.17,3,16.82,4.14.28.06.54.26.81.29,1.68.17,3.52.81,5,.34,2.1-.67-.79-3,.82-4.22,1.8,6.74,3.36,13.55,5.78,20.1.94,2.53-1.29,2.18-2.26,3l-1.22.4c-6.38,0-12.47-1.81-18.69-2.84A3.81,3.81,0,0,1,74.18,328.37Z" transform="translate(-49.99 -32.64)"/><path class="cls-106" d="M162.17,277.19c-2.42,1.66-2.56,4.17-2.52,6.8-.43-5.81-1.22-11.55-1-17.35.05-1.09.45-2.31-.54-3.26a6.67,6.67,0,0,1-.81-4.15c.07-3.73-.17-7.46.15-11.18.85-3.31.26-6.68.42-10,.08-1.52-.11-3.1,1-4.36,2.21-1.09,2.68-.92,2.81,1.38.19,3.53.09,7.07.06,10.6,0,5.44.18,10.88-.14,16.32a4.82,4.82,0,0,0,.38,1.93c.41,4.08-.37,8.22.56,12.28C162.71,276.54,162.44,276.9,162.17,277.19Z" transform="translate(-49.99 -32.64)"/><path class="cls-107" d="M95.37,296.74l.09,1.15c-2,.29-3.29-.87-4.69-2.65.55,2.85,1,5.31,1.52,7.76.22,1,.64,2-.22,2.91l-3.6-17.8q-.51-4-1-8.07a3.18,3.18,0,0,0,.43-1,4.6,4.6,0,0,0-.26-2.08,3.49,3.49,0,0,0-.74-1.52l0-.59a3,3,0,0,0,.44-.94,4.26,4.26,0,0,0-.22-2.06,5.68,5.68,0,0,1-.22-.7c-.08-.73-.51-1.44-.19-2.21.41-1.09-.21-2.08-.33-3.12,0-1,.39-1.63,1.52-1.44a1.88,1.88,0,0,1,1.75,1.54c.15.82,0,1.67.19,2.49a1.71,1.71,0,0,0,.52.67l0,0a.79.79,0,0,1,.11.71,10.16,10.16,0,0,0,.18,4.07,6.15,6.15,0,0,1,.18.71,7,7,0,0,0,.58,2.81,1.51,1.51,0,0,1,.21,1.06,4.31,4.31,0,0,0,.25,2.53c.21.28.44.55.67.82l.11,1.11c.08,1.79,0,3.6,1,5.21l.68,4C94.51,293.68,94.46,295.31,95.37,296.74Z" transform="translate(-49.99 -32.64)"/><path class="cls-108" d="M162.17,277.19c-.82-4.39-.54-8.82-.57-13.23a.53.53,0,0,1,.8.23c.11,1.79,0,3.57,0,5.36.12,1.57-.26,3.17.22,4.73l.16.64c.4,1.24.1,2.51.19,3.76s-.22,2.48.22,3.68h.15c.41,1,.12,2.13.21,3.2s-.22,2.11.22,3.13H164a4.06,4.06,0,0,1,0,2.77l-.13,1.13A82.08,82.08,0,0,1,162.17,277.19Z" transform="translate(-49.99 -32.64)"/><path class="cls-109" d="M158.14,247.86q0,7.75,0,15.52l-.49,1.12-.18-1.67c-1.19-1.92-.64-4.05-.69-6.08-.06-2.55-.12-5.09.07-7.64a2.82,2.82,0,0,1,.37-1A.67.67,0,0,1,158.14,247.86Z" transform="translate(-49.99 -32.64)"/><path class="cls-106" d="M158.08,273.41c-.71-2.34-.42-4.74-.41-7.13C158.67,268.61,158,271,158.08,273.41Z" transform="translate(-49.99 -32.64)"/><path class="cls-110" d="M158.21,282.22c-.23.79.21,1.69-.55,2.67,0-2-.56-3.71.41-5.38C158.12,280.41,158.17,281.32,158.21,282.22Z" transform="translate(-49.99 -32.64)"/><path class="cls-111" d="M124.76,321.38l-2.26,1.24C122.67,321.15,123.46,320.78,124.76,321.38Z" transform="translate(-49.99 -32.64)"/><path class="cls-79" d="M147.77,301.78c-.26-.5-.46-1,.21-1.35s.83.05,1,.5A1.69,1.69,0,0,1,147.77,301.78Z" transform="translate(-49.99 -32.64)"/><path class="cls-81" d="M164,291.45c0-.92,0-1.84,0-2.77.84.89.4,2,.46,3Z" transform="translate(-49.99 -32.64)"/><path class="cls-79" d="M145.47,303.5c-.06-.34-.27-.79-.13-1,.45-.64,1-.07,1.46.06A1.87,1.87,0,0,1,145.47,303.5Z" transform="translate(-49.99 -32.64)"/><path class="cls-81" d="M251.9,158.71a.92.92,0,0,0-.28,0c-.28.1-.52.38-.13.48,2.58.63,5.17,1.27,7.78,1.74,1.84.33,2.71.83,2.46,3.08A171.6,171.6,0,0,1,257,189.52a138,138,0,0,1-10,27A151.88,151.88,0,0,1,237.7,233c-1.1,1.61-2,3.35-3,5L210.5,225.37c7.12-11.63,14.27-23.25,18.39-36.38a116.64,116.64,0,0,0,5.5-26.32c.14-1.9,1.31-4,.41-5.61s-3.53-.84-5.27-1.55c-.68-.27-1.8-.25-1.7-1.19s1.12-.83,1.88-.9c6.17.84,12.44,1.25,18.16,4.08A12.87,12.87,0,0,1,251.9,158.71Z" transform="translate(-49.99 -32.64)"/><path class="cls-112" d="M163.9,273.73c-1.22-2.61-.27-5.37-.59-8-.13-1.17.48-2.49-.62-3.48a2.34,2.34,0,0,1-.84-1.91c.24-1.39.06-2.81.38-4.2a4.62,4.62,0,0,0,.34-2c-.75-4.11,1.45-6.08,4.85-7.89a100,100,0,0,0,26.25-20.59c.65-.69,1.63-1,2.1-1.92-.75-1-2-1.06-2.85-1.85-.53-.52-1.71-1.06-.29-1.93a55.45,55.45,0,0,1,11.51,6c3.86,2.64,8.42,4,12.22,6.8,1,1.35,2.91,1.29,3.9,2.59a1,1,0,0,1-1,.88c-3.27-.23-4.88,2.05-6.72,4.18a122,122,0,0,1-21.43,19A119.31,119.31,0,0,1,167.48,273,5.68,5.68,0,0,1,163.9,273.73Z" transform="translate(-49.99 -32.64)"/><path class="cls-81" d="M163.9,273.73a128.4,128.4,0,0,0,37.52-23.36,90.3,90.3,0,0,0,11.46-11.51c1.71-2.15,3.57-4,7.3-2.72-1.37-1.8-3-1.87-4.07-2.87,0,0,0-.19,0-.26a1,1,0,0,1,.21-.2,101.89,101.89,0,0,1,13.22,6.91c-.13,1.72,1.94,1,2.3,2.07-6,7.2-12.15,14.34-19.26,20.57a161.67,161.67,0,0,1-22.7,16.78c-8,4.81-16.63,8.23-24.81,12.16C164.66,286,163.65,279.9,163.9,273.73Z" transform="translate(-49.99 -32.64)"/><path class="cls-113" d="M229.55,154.07l-1.13.12-.06.37c1.65.26,3.3.5,4.95.77,1.82.3,2.8.9,2.53,3.23-1.46,12.51-3.75,24.8-8.44,36.56A120.59,120.59,0,0,1,215.09,219c-1.11,1.6-2.81,3.07-2.45,5.56.23,1.61-1.72-.23-2.14.86l-5.78-2.81a10.91,10.91,0,0,1-5.41-3.15c-.1-1.88,1-3.25,2-4.62a110.12,110.12,0,0,0,15.14-29.44,99,99,0,0,0,5.21-26.9c.08-1.61,1.41-3.27-.09-5.09-.56-.7,1-1,1.77-1.15C225.55,152.43,228,151.77,229.55,154.07Z" transform="translate(-49.99 -32.64)"/><path class="cls-75" d="M199.57,219.61l5.15,2.95c-2.18.84-3.23-1.38-5-1.86a18.87,18.87,0,0,1-3.55-1.81,1,1,0,0,0-1.48.33c-.42.75.24,1,.72,1.27,2.51,1.37,5.05,2.69,7.54,4.1.51.29,1.67.23,1.15,1.42l-11.46-5.78c-5.1-1.27-9.24-4.51-13.83-6.81-3.77-1.89-7.47-3.89-11.34-5.55-1.9-.82-2.65-.27-2.8,1.67-.17,2.28-.69,4.53-.72,6.85,0,.84.27,2.23-1.43,2-.05-.17-.15-.43-.05-.53.26-.28-.24.08-.1-.27,0,0,0,0,0,0,.76,5-.63,9.95.26,14.91a4.57,4.57,0,0,1-.05,1c-.38,9.6,0,19.19-.37,28.77l.05.59a.79.79,0,0,1-.14,1.12h-.51c-.94-.84-.56-2-.56-3,0-8.65,0-17.31,0-26,0-1.7-.35-2.12-1.75-1-1.24-1.34-.68-3-.79-4.53a13.23,13.23,0,0,0-.33-3.32c-.48-2.13.41-4.2.33-6.32a14.25,14.25,0,0,1,.05-1.46c.18-.77.21-1.64,1.3-1.73a2.57,2.57,0,0,1,.28,1.88c-.66-3.78.57-7.92.52-12.15a26.07,26.07,0,0,1,.22-6.11,2.34,2.34,0,0,1,.7-1.44c.66-.16.73.45,1,.81a18,18,0,0,1-.93-2.83c.47-6,2.28-11.64,3.73-17.4a150.47,150.47,0,0,1,8.06-21.74c1.67-.46,1-1.8,1.07-2.85,1.29-4.57,3.58-8.73,5.3-13.13a223.45,223.45,0,0,1,13-23.37c.49-.75.88-1.75,2.08-1.69,2-.65,2.15-.68,2.6,1.92.31,1.81.91,2.38,2.6,1.61.45,1.93-1.27,2.91-1.89,4.37-3.44,5.05-6.77,10.18-9.91,15.42-1.69,2.83-1.61,3,1.57,3.48a18.51,18.51,0,0,0,2.58.13c1.92.23,3.82.6,5.75.76a8.58,8.58,0,0,0,2.71.38c3.67.89,7.41,1.32,11.13,1.91,1.14.48,2.49.17,3.54,1-.24,2.06-1.87,1.48-3,1.36-2.82-.3-5.61-.86-8.42-1.27a2.72,2.72,0,0,0-2.18.19,10.63,10.63,0,0,1,3.17.21c.87.21,2.28.08,2.22,1.19s-1.44.91-2.36,1a21.72,21.72,0,0,1-7.9-.85c-1.74-1.33.5-1,.65-1.54a10.18,10.18,0,0,0-2.48,1,3.28,3.28,0,0,1-2.55-.23.8.8,0,0,1-.3-.76c.34-.69,1.3,0,1.57-.52a12.36,12.36,0,0,0-3.27.95,6.89,6.89,0,0,1-2.56,0c-4.48-.62-4.53-.64-6.44,3.28A173.74,173.74,0,0,0,166.71,196c-.81,4.32-.77,4.38,3,6.59,4.94,2.9,10,5.6,15,8.31,4.09,2.57,8.56,4.44,12.68,7C198.24,218.32,199.16,218.65,199.57,219.61Z" transform="translate(-49.99 -32.64)"/><path class="cls-114" d="M258.22,77.57a31.67,31.67,0,0,1,6.86.73C262.65,79.43,260.46,78.19,258.22,77.57Z" transform="translate(-49.99 -32.64)"/><path class="cls-115" d="M54.6,257.11c-.94-1.68-.39-3.5-.47-5.26a8.55,8.55,0,0,0,.44-1.65c.12-2.19-.29-4.38-.09-6.57.24-2.56,1.35-3.23,3.62-1.95,2.9,1.64,5.68,3.5,8.63,5.08,5.58,3,11.63,4.8,17.4,7.3a6.33,6.33,0,0,1,1.1,2.73c0,2,.65,4.14-.69,6,.06,1.61.55,3.16.64,4.79.14,2.36-.81,2.45-2.65,2a118.26,118.26,0,0,1-23.59-9.48c-1.17-.6-2.29-1.44-3.73-1.3-.53-1.16-.21-2.37-.24-3.63C54.76,255.83,55.15,256.56,54.6,257.11Z" transform="translate(-49.99 -32.64)"/><path class="cls-116" d="M86.84,269.13l.57,2.31a.7.7,0,0,1-1,0l-.75-7.5c-.42-1.16-.41-2.41-.74-3.58-.08-1.25,0-2.49,0-3.74a13.52,13.52,0,0,0-.25-1.44,7.74,7.74,0,0,1,.06-2c.54-6.34.09-12.7.25-19,0-1.31-.24-2.67.55-3.88,1.36-.59,1.29.62,1.55,1.29a21.93,21.93,0,0,1,1.24,9,16.4,16.4,0,0,0,.24,4.84,30.15,30.15,0,0,0,.62,3.52,150.22,150.22,0,0,0,.87,17,5.79,5.79,0,0,1-.25,3.34c-1-.83-.46-2-.59-3s-1-1.18-1.67-1.21c-.87,0-.5.81-.61,1.3A3.39,3.39,0,0,1,86.84,269.13Z" transform="translate(-49.99 -32.64)"/><path class="cls-116" d="M88,279.48l-.52.56c-.26-1.51-.9-3-.57-4.58A1,1,0,0,1,88,276.61,3.35,3.35,0,0,1,88,279.48Z" transform="translate(-49.99 -32.64)"/><path class="cls-117" d="M85,256.49l.11,3.93a2.57,2.57,0,0,1-.05,2.38h-.56v-6.33C84.71,256.22,84.88,256.21,85,256.49Z" transform="translate(-49.99 -32.64)"/><path class="cls-118" d="M54.6,257.11l.11-2.23.5,0v3.92l-.5,1.11C54.68,259,54.64,258,54.6,257.11Z" transform="translate(-49.99 -32.64)"/><path class="cls-119" d="M86.36,271.44h1a3.38,3.38,0,0,1,0,2.88l-.53.56C86.9,273.7,86,272.66,86.36,271.44Z" transform="translate(-49.99 -32.64)"/><path class="cls-115" d="M85.1,262.8c0-.79,0-1.58.05-2.37.8,1.08.43,2.32.46,3.51Z" transform="translate(-49.99 -32.64)"/><path class="cls-115" d="M55.82,261.23c.78,1.18.43,2,.5,3.14C55.54,263.2,55.89,262.43,55.82,261.23Z" transform="translate(-49.99 -32.64)"/><path class="cls-9" d="M74.18,328.37c6.86,1.46,13.87,2.16,20.66,4a71,71,0,0,1-9.19,3.45c-1.46-1.3-2.9.08-4.33.15-2.77.13-4.68-.42-5.71-3.32C75.11,331.21,74.25,329.93,74.18,328.37Z" transform="translate(-49.99 -32.64)"/><path class="cls-10" d="M62.18,183.48c.81,3.35,3.1,5.85,5.22,8.29a65.22,65.22,0,0,0,15.89,13.47c1.59.95,3.06,1.86,3.18-1.31a52.32,52.32,0,0,1,1.08-6.71c.63.28.36.84.47,1.26.87,2.22.23,4.48,0,6.67-.36,3.38-.87,6.74-1.13,10.13a9.2,9.2,0,0,0-.42,3.3c-.07,1.25.16,2.54-.43,3.72a.81.81,0,0,1-.74.42c-.86-.92-.39-2-.46-3,.09,1.09,0,2.15.15,3.26.42,2.64-.8,3.65-3.27,2.64a62.19,62.19,0,0,1-7.91-4,60.9,60.9,0,0,1-12.51-9.44c-1-1-1.89-1.95-3.64-1.82-2.18.16-.82-1.8-1.24-2.74l.45-3.48C58.43,197.2,59.83,190.22,62.18,183.48Z" transform="translate(-49.99 -32.64)"/><path class="cls-117" d="M54.63,250.73a1.17,1.17,0,0,1-.51,1.12L54,248.48a120,120,0,0,1,0-16.75l-.5-.57c-.3-1,.47-1.86.59-2.81,1.47.26,1.3,1.51,1.36,2.47C55.89,237.48,54.83,244.09,54.63,250.73Z" transform="translate(-49.99 -32.64)"/><path class="cls-120" d="M54,231.73l0,16.75-.51-.07c0-4.66,0-9.32,0-14C53.52,233.52,53.22,232.51,54,231.73Z" transform="translate(-49.99 -32.64)"/><path class="cls-84" d="M54.63,250.73c0-6.47,0-12.93,0-19.4,0-1,.38-2.11-.49-3,.07-1.59-.44-3.24.46-4.75.25.12.39.39.65.46a2,2,0,0,1,.61-1.76c1.39-.58,2.45.2,3.4,1,7,5.64,14.93,9.56,23,13.34.7.33,1.41.63,1.71,1.43.62,5.05,0,10.13.34,15.18a1.49,1.49,0,0,1-.3,1c-4.95-.74-9.35-3.05-13.87-5a66.61,66.61,0,0,1-11.94-6.68c-.68-.48-1.44-1.17-2.32-.78s-.51,1.5-.62,2.3C54.92,246.26,55.83,248.59,54.63,250.73Z" transform="translate(-49.99 -32.64)"/><path class="cls-121" d="M55.12,215.65l.73-5.14c2.41,1.57.94,3.75.92,5.71a19.43,19.43,0,0,0-.3,3.24,2,2,0,0,1-.9,1.55.87.87,0,0,1-.86-.17C54.71,219.09,54.3,217.32,55.12,215.65Z" transform="translate(-49.99 -32.64)"/><path class="cls-122" d="M54.71,220.84h.5a1.59,1.59,0,0,1,.44,1.35c-.46,1.24.21,2.61-.44,3.82-.86-.63-.46-1.59-.63-2.4C54.62,222.68,54.66,221.76,54.71,220.84Z" transform="translate(-49.99 -32.64)"/><path class="cls-123" d="M55.21,222v-1.15a1.19,1.19,0,0,0,.57-1.15,4.4,4.4,0,0,0,0-3.45,6.77,6.77,0,0,0,.07-5.72l-.06-2.33.63-.55c1,0-.4,3.13,2,1.45.31-.22,1.9,1.08,2.67,1.88,5.69,5.95,12.57,10.11,19.93,13.59,3.16,1.49,3.48,1.3,3.49-2.29a7.77,7.77,0,0,1,.46-3.12l.17,3.52c1,1.35.66,2.88.55,4.38a3.19,3.19,0,0,1-.3.85,4.72,4.72,0,0,1-.51.75,8,8,0,0,0-.52.73c-.42,1.74-.12,3.52-.22,5.28-.06,1,.1,2.07-.77,2.85-5.29-1.46-9.87-4.42-14.66-6.92A65,65,0,0,1,59.08,224c-.92-.73-1.89-1.69-3.3-1.45C55.43,222.52,55.42,222.15,55.21,222Z" transform="translate(-49.99 -32.64)"/><path class="cls-124" d="M194.93,116.67c-5.64,8-10.14,16.61-14.48,25.33a10.46,10.46,0,0,1-2.27-5.21A66,66,0,0,0,162,105.91a59.67,59.67,0,0,0-19.07-14,20,20,0,0,1,3.7-4c3.09-2.69,6.36-5.21,8.45-8.85A9.16,9.16,0,0,1,159,75.4q5.91-4.86,11.83-9.71c2.62,1.32,4.57,3.54,6.78,5.36,9.52,7.86,17.91,16.76,23.81,27.72,1,1.85,2.86,1.93,4.08,3.14l-.07,0c-.84,1.12-2.33,1.74-2.54,3.34C200.32,109.08,197.22,112.6,194.93,116.67Z" transform="translate(-49.99 -32.64)"/><path class="cls-125" d="M213.86,92.9c-.17,1.73-1,2.91-2.84,3.07Z" transform="translate(-49.99 -32.64)"/><path class="cls-126" d="M222.52,84.52c-.21,1.82-1.38,2.61-3.06,2.83Z" transform="translate(-49.99 -32.64)"/><path class="cls-93" d="M208.69,98.62c-.12,1,.05,2.33-1.69,2Z" transform="translate(-49.99 -32.64)"/><path class="cls-6" d="M247.5,75.84c-1,0-2.13.42-3.06-.4A5.12,5.12,0,0,1,247.5,75.84Z" transform="translate(-49.99 -32.64)"/><path class="cls-6" d="M223.73,37.83c1-.79,2.05-.36,3.09-.38A5.21,5.21,0,0,1,223.73,37.83Z" transform="translate(-49.99 -32.64)"/><path class="cls-112" d="M215.62,147.87c-1.13-.34-2.44.42-3.45-.6.14-1.6,1.46-1.38,2.36-1.29a42.18,42.18,0,0,1,9.5,1.79c-1.79-3.26-1.05-7.07-1.57-10.68A118.16,118.16,0,0,0,214.72,108c-.45-1.06-1.16-2.12-1-3.27.22-1.32-.84-.31-1.05-.73a88.17,88.17,0,0,1,12.58-14.36c2.91-.47,3.75-3.66,6.6-5-2.59,5.06,1.37,8.31,2.93,12a133,133,0,0,1,9.62,33.92A138.63,138.63,0,0,1,246.15,149c0,2.25.1,4.24-3.15,2.89a1.63,1.63,0,0,0-2.06.55,2.62,2.62,0,0,1-2.45.3c-6.76-1.32-13.53-2.58-20.33-3.71A3.75,3.75,0,0,1,215.62,147.87Z" transform="translate(-49.99 -32.64)"/><path class="cls-127" d="M215.62,147.87c8.49,1.22,16.92,2.82,25.32,4.58.74,1,2.22-.11,2.9,1,.38,1.12,2.23-.53,2.29,1.2-.15.93-.5,1.94,1.14,1.74.87-.1.88.44.6,1.07-6.07-1.34-12.16-2.56-18.32-3.43a16.46,16.46,0,0,0-6.32-1.14c-5.26,0-10.37-1.16-15.52-2-1-.15-2.21.05-2.48-1.4l1.67-.09,0-.31c-1.47-.26-2.95-.47-4.4-.81-.37-.08-1.33.54-1.05-.4.11-.37.21-1.66,1.62-1.32,2.85.67,5.77,1,8.66,1.52C213.08,148.36,214.4,148.77,215.62,147.87Z" transform="translate(-49.99 -32.64)"/><path class="cls-116" d="M246.13,154.69c-.45-1-2.14.36-2.29-1.2,3.52.53,7.19.4,10.4,2.33-1.46.86-2.64-.14-3.94-.51A10,10,0,0,0,246.13,154.69Z" transform="translate(-49.99 -32.64)"/><path class="cls-81" d="M255.23,83.94a5.6,5.6,0,0,1-1.46-.15c-.09-.71.53-.31.85-.38a2.06,2.06,0,0,1,.74.16Z" transform="translate(-49.99 -32.64)"/><path class="cls-123" d="M212.7,104l1.07-.51a123.84,123.84,0,0,1,10.5,44.82c-2.32-.41-5.19-.9-8.05-1.42-1.39-.25-2.78-.74-4.05.35a74.88,74.88,0,0,1-11.44-1.83c1.62-1.67,2.94-1.71,5.39-.44-1.55-7.7-2.47-15.95-5-23.49-.65,1.13-1.13,2.87-3.09,3.32-.06,0-.16-.1-.22-.16a.42.42,0,0,1,0-.5l2.34-4,10.94-14.35a3.62,3.62,0,0,0,1.66-1.81Z" transform="translate(-49.99 -32.64)"/><path class="cls-79" d="M202.9,105.21c-.35-2,1.27-2.55,2.54-3.34A11.21,11.21,0,0,1,202.9,105.21Z" transform="translate(-49.99 -32.64)"/><path class="cls-112" d="M212.73,104c-.11,1-.29,2-1.66,1.81A3.79,3.79,0,0,1,212.73,104Z" transform="translate(-49.99 -32.64)"/><path class="cls-128" d="M142.91,92c.72,0,1.33-.58,2.17-.06,5.92,3.65,11.72,7.51,16.52,12.56a66.27,66.27,0,0,1,17.3,32.6c.35,1.68,1,3.3,1.55,4.95q-2.74,6.66-5.5,13.31c.35.93-.21,1.55-.75,2.18a228.5,228.5,0,0,0-8.07,21.93c-2.22,4.6-2.81,9.63-3.89,14.53a13.81,13.81,0,0,0-.56,4,6.67,6.67,0,0,1-.61,1.74,4.78,4.78,0,0,0-3.9,1.34,66.09,66.09,0,0,1-33.35,15,61.74,61.74,0,0,1-31.3-3.6c-1.72-.65-2-2-1.79-3.49a57.6,57.6,0,0,1,1-6.79,6.83,6.83,0,0,0-.18-3,4.19,4.19,0,0,1-.15-.86,5.21,5.21,0,0,1,.14-1.76c.62-2.58.93-5.22,1.39-7.83a8.18,8.18,0,0,1,.86-3.5A2.41,2.41,0,0,1,95,183.89c1.52.76,1,2.08.84,3.25-.51,2.83-1.11,5.64-1.66,8.46-.16.8-.59,1.74.88,1.86,2.24.17,4.19,1.33,6.3,1.91a49.77,49.77,0,0,0,58.16-25.6c11.93-23.48,4.13-54.32-21.47-68-1.73-.92-3.36-1.75-5.37-1.32.55-3.65,3.16-5.79,5.84-7.87Z" transform="translate(-49.99 -32.64)"/><path class="cls-129" d="M138.56,96.6l-5.73,7.46c-1.76,4.18-5,7.41-7.39,11.15a235.56,235.56,0,0,0-15.14,26.52c-3,6.84-6,13.68-8.41,20.79-1.7,3.84-2.21,8.08-4,11.88-1,.55-1,2.28-2.61,2.16-.32,0,.17.21.2.22a1.36,1.36,0,0,1,1,1.47,7.79,7.79,0,0,1-.63,2.3c-1,1.38-1.11,3-1.57,4.59l-.67,3.48c-2.23.4-1.31-1.49-1.74-2.39a1.35,1.35,0,0,1,.2-.55,1.3,1.3,0,0,0-.23.54c.08.75.13,1.81-.69,1.75-1-.07-.58-1.05-.34-1.71.24-3.9,2-7.46,2.39-11.33l4-12.71c1-6.56,4.15-12.37,6.66-18.39a105.51,105.51,0,0,1,7-14.05c2-3.2,3.34-6.76,6-9.53l0,0c.87-1.59,1.92-3.08,2.84-4.64l1.19-1.59q5.44-7.23,10.87-14.48c.74-1,1.49-1.94,2.24-2.91L137.38,93a6.76,6.76,0,0,1-.18,1.11c-.34,1-2.08,1.36-1.58,2.45C136.32,98.07,137.56,95.52,138.56,96.6Z" transform="translate(-49.99 -32.64)"/><path class="cls-130" d="M155.2,79.33c.81.88-.24,1.15-.59,1.52q-3.18,3.29-6.48,6.47c-.37.36-.64,1.41-1.52.6q4.06-4.28,8.14-8.53Q154.93,79.09,155.2,79.33Z" transform="translate(-49.99 -32.64)"/><path class="cls-131" d="M155.2,79.33a3.47,3.47,0,0,0-.45.06,5.09,5.09,0,0,1,4.26-4Z" transform="translate(-49.99 -32.64)"/><path class="cls-132" d="M111.47,129.93c-5.68,10.35-10,21.28-14.26,32.29a2.09,2.09,0,0,0,0-.28c-.09-.25-.34-.61-.48-.22-.72,1.92-1.35,3.89-2.12,6.17a25.71,25.71,0,0,1-6-15.09c-.54-8.29,1.9-15.55,7.75-21.32,3.86-3.82,8.52-6.72,14.22-7.28,1.13-.11,2.24-.37,3.36-.56.64,1.3-.45,2-1,3S111.48,128.63,111.47,129.93Z" transform="translate(-49.99 -32.64)"/><path class="cls-95" d="M111.47,129.93c-.77-1.52.58-2.41,1.13-3.49a7.79,7.79,0,0,0,1.26-2.8h0c.57-1.28.92-2.71,2.3-3.45l.64.06C115.41,123.69,113.2,126.67,111.47,129.93Z" transform="translate(-49.99 -32.64)"/><path class="cls-132" d="M116.16,120.19a12,12,0,0,1-2.3,3.45C114,122,113.68,120.2,116.16,120.19Z" transform="translate(-49.99 -32.64)"/><path class="cls-95" d="M119.62,115.59a9,9,0,0,1-2.84,4.64A7.7,7.7,0,0,1,119.62,115.59Z" transform="translate(-49.99 -32.64)"/><path class="cls-133" d="M92,185.75c.85.78,0,2.54,1.62,2.87-.45,2.71-.58,5.47-1.62,8.06-.65.52-.24,1.11-.11,1.68l0,.58a15.81,15.81,0,0,1,.07,1.69c0,1.26.11,2.55-.77,3.63-1.49-.68-.14,1.33-1.09,1.16-1.19-.17-.8-1.35-1.13-1.85-.45,3.65-.79,7.43-1.37,11.19-.06,1,0,2.09-.1,3.12a21.44,21.44,0,0,0-.49,3.18c0,1.56,0,3.13,0,4.69a3.39,3.39,0,0,1-.84,2.66,1.22,1.22,0,0,1-.92.09.54.54,0,0,1-.25-.78h.15c.63-1.72-.18-3.57.46-5.29l.12-3.94c.53-.93-.09-2,.46-2.95.15-5.74,1.13-11.39,1.8-17.07,1.31-4,1.32-8.28,2.81-12.22,0,.42.08.85.13,1.42C91.7,187.08,91.22,186.09,92,185.75Z" transform="translate(-49.99 -32.64)"/><path class="cls-106" d="M162.2,262.25c-.63-.45-.6-1.13-.6-1.8v-26a1.9,1.9,0,0,1,.51-1.57,3.06,3.06,0,0,1,.88,2.57c0,8.34,0,16.68-.75,25l.45,1.74Z" transform="translate(-49.99 -32.64)"/><path class="cls-112" d="M162.11,264c0-.38.09-.75.14-1.12,1,2.27.29,4.65.45,7q-.37.18-.48-.21C162.18,267.72,162.15,265.84,162.11,264Z" transform="translate(-49.99 -32.64)"/><path class="cls-106" d="M162.22,269.6l.48.21,0,4.47C161.67,272.8,162.36,271.16,162.22,269.6Z" transform="translate(-49.99 -32.64)"/><path class="cls-81" d="M162.79,278.8c0-1.29,0-2.59,0-3.88.95,1.27.32,2.72.44,4.09Q162.91,279.21,162.79,278.8Z" transform="translate(-49.99 -32.64)"/><path class="cls-34" d="M162.79,278.8l.49.21c0,1.12,0,2.23,0,3.35C162.35,281.27,162.87,280,162.79,278.8Z" transform="translate(-49.99 -32.64)"/><path class="cls-81" d="M163.36,285.71l0-3.35c.91,1.09.37,2.37.45,3.57A.31.31,0,0,1,163.36,285.71Z" transform="translate(-49.99 -32.64)"/><path class="cls-34" d="M163.36,285.71l.48.21c0,.93,0,1.85,0,2.77C163,287.8,163.41,286.72,163.36,285.71Z" transform="translate(-49.99 -32.64)"/><path class="cls-124" d="M159.21,219.66q-.19,3.19-.41,6.37a9.89,9.89,0,0,1,.16,3.3c-.42,1.41-.16,2.85-.26,4.28a31.62,31.62,0,0,0-.36,4.34.67.67,0,0,1-.86.16,11.18,11.18,0,0,1-.15-3.55c-.16,3.34.57,6.64.72,9.95.07,1.15.31,2.31-.4,3.36a5.6,5.6,0,0,0-.17.54l-.19.2-.28,0c0,3.86,0,7.71,0,11.56,0,.73.13,1.52-.56,2.08-1.23-2.05-.44-4.28-.53-6.42s-.66-2.5-2.62-1.8a105.64,105.64,0,0,1-33.12,6.61,109.65,109.65,0,0,1-25.47-1.78c-2.33-.48-3.59.31-3.57,2.93-.09-4.53-1.15-8.83-.85-13.24.06-1,.39-2.13-.55-3-.94-1-.78-2.31-.8-3.54-.06-4.3.11-8.59-.1-12.89a4,4,0,0,1-.2-1.45,5,5,0,0,1,.13-.93c.42-1.77.14-3.56.2-5.35,0-1.05,0-2.1.11-3.15a5.26,5.26,0,0,1,.17-.88,9.37,9.37,0,0,0,.32-3.12,2.69,2.69,0,0,1,.79-2.15c1.85.72,1.31,2.38,1.29,3.68,0,2.87-.58,5.7-.57,8.58,0,2.09.79,3,2.82,3.52q31.11,8.19,59.42-7a18.84,18.84,0,0,1,4.23-1.74C158.21,219,158.84,218.86,159.21,219.66Z" transform="translate(-49.99 -32.64)"/><path class="cls-134" d="M89.71,269.13c-.2-6.91-1.51-13.76-1.15-20.7-.34-.74-.38-1.29.72-1.09a44.54,44.54,0,0,1,.14,5.42c.09,1.42-.22,2.87.19,4.28.36,4,1,8,.73,12.06Z" transform="translate(-49.99 -32.64)"/><path class="cls-116" d="M89,227.14l.18,1.19a152.19,152.19,0,0,1,0,17.22v1.21l-.55,0A4.36,4.36,0,0,1,88,244c0-4.59-.05-9.17-.21-13.76C87.76,229.14,87.39,227.69,89,227.14Z" transform="translate(-49.99 -32.64)"/><path class="cls-135" d="M156.42,262.23V246.69c1,.44.41,1.2.58,1.76a77.18,77.18,0,0,1,0,14.34V265l-.59,0Z" transform="translate(-49.99 -32.64)"/><path class="cls-136" d="M89.22,245.55c-.3-5.74-.27-11.48,0-17.22,1.09,2.56.34,5.23.46,7.84.14,3.12,0,6.26,0,9.39Z" transform="translate(-49.99 -32.64)"/><path class="cls-137" d="M157,262.79q0-7.17,0-14.34l.48,0v14.42Z" transform="translate(-49.99 -32.64)"/><path class="cls-34" d="M92.5,281.79H91.44a4.72,4.72,0,0,1,0-3.45l-.57-.58a.61.61,0,0,1-.19-.44c0-.17,0-.25,0-.25.2-.59.11-1.31.76-1.69l1,4.26c.54.46.37,1,.16,1.54Z" transform="translate(-49.99 -32.64)"/><path class="cls-34" d="M93.65,288.11a4.36,4.36,0,0,1-1-5.21A16.88,16.88,0,0,1,93.65,288.11Z" transform="translate(-49.99 -32.64)"/><path class="cls-34" d="M95.37,296.74c-1.75-1.24-1.49-2.92-1-4.65l.53.62Z" transform="translate(-49.99 -32.64)"/><path class="cls-124" d="M89.21,252.83,89,247.3a.5.5,0,0,1,0-.66l.2.12c1,2.1.31,4.3.38,6.46A.49.49,0,0,1,89.21,252.83Z" transform="translate(-49.99 -32.64)"/><path class="cls-138" d="M90.28,269.71c0-.21,0-.42,0-.63.91.52.58,1.39.61,2.16.08.93.89,2.05-.66,2.56A6.8,6.8,0,0,1,90.28,269.71Z" transform="translate(-49.99 -32.64)"/><path class="cls-116" d="M89.21,252.83l.4.39V257C88.7,255.71,89.25,254.24,89.21,252.83Z" transform="translate(-49.99 -32.64)"/><path class="cls-34" d="M90.29,273.73c.87-.66.45-1.65.64-2.49a5.43,5.43,0,0,1,.44,3.08.76.76,0,0,1-.54.31.81.81,0,0,1-.54-.32c-.15-.13-.2-.26-.15-.38S90.24,273.73,90.29,273.73Z" transform="translate(-49.99 -32.64)"/><path class="cls-139" d="M92.67,281.18c0-.51-.11-1-.16-1.54s.13-.9.27-1.95C93.24,279.3,93.43,280.28,92.67,281.18Z" transform="translate(-49.99 -32.64)"/><path class="cls-140" d="M90.86,274.31h.51c0,.35.07.7.11,1.06-.12.62.07,1.36-.61,1.8A3.32,3.32,0,0,1,90.86,274.31Z" transform="translate(-49.99 -32.64)"/><path class="cls-141" d="M158.66,229.2c.05-1.06.1-2.12.14-3.17,1,2.62.26,5.35.5,8-1.21,3.39-.27,6.89-.59,10.32-.11,1.17.46,2.47-.57,3.49h-.49c-.06-1.17-.11-2.34-.17-3.51l.06-.47c.25-2-.43-4.12.53-6.07l.16-4.37C158.76,232.07,158.13,230.58,158.66,229.2Z" transform="translate(-49.99 -32.64)"/><path class="cls-116" d="M90.29,273.73v.58a4.32,4.32,0,0,1,0-4.6C90.28,271.05,90.28,272.39,90.29,273.73Z" transform="translate(-49.99 -32.64)"/><path class="cls-116" d="M90.86,274.31c0,1,0,1.91,0,2.87v.58c-1-1-.39-2.3-.57-3.45Z" transform="translate(-49.99 -32.64)"/><path class="cls-116" d="M91.43,278.34v3.45A2.62,2.62,0,0,1,91.43,278.34Z" transform="translate(-49.99 -32.64)"/><path class="cls-34" d="M86.84,269.13v-2.87A1.93,1.93,0,0,1,86.84,269.13Z" transform="translate(-49.99 -32.64)"/><path class="cls-34" d="M88,279.48v-2.87A1.93,1.93,0,0,1,88,279.48Z" transform="translate(-49.99 -32.64)"/><path class="cls-34" d="M87.41,274.31v-2.88A2,2,0,0,1,87.41,274.31Z" transform="translate(-49.99 -32.64)"/><path class="cls-123" d="M162.24,235.25c-.05-.79-.09-1.57-.13-2.35,0-.2,0-.4,0-.6-.47-1.45-.15-2.93-.2-4.4.48-1.78.15-3.6.27-5.39.4-1.26,0-2.64.61-3.86.46-3.47,1-6.92,1.34-10.39.21-2,1-2.17,2.74-1.45,9,3.74,17.31,8.73,25.8,13.42-.31,1.58,1.22,1.27,1.89,1.81.87.7,2.15.79,2.89,1.82-3.9,2-6.4,5.61-9.49,8.45a105.47,105.47,0,0,1-21.85,15.49c-2.2,1.18-3.13,2.41-2.85,4.85.13,1.06.47,2.31-.52,3.26-.62-4.71-.11-9.44-.29-14.16C162.38,239.58,162.72,237.4,162.24,235.25Z" transform="translate(-49.99 -32.64)"/><path class="cls-142" d="M162.24,235.25c.9,1,.48,2.17.48,3.27.05,5.79,0,11.59,0,17.39-.24,1.51.51,3.13-.51,4.56Z" transform="translate(-49.99 -32.64)"/><path class="cls-123" d="M205.23,149.55q8.21,1.42,16.42,2.85a11.73,11.73,0,0,1,1.58.53l-1.13.14c2.33,1.83.43,4.1.31,6a104.49,104.49,0,0,1-10.58,39.67,145.11,145.11,0,0,1-10.58,17.61,31.78,31.78,0,0,0-1.68,3.29l-14.95-8a6.65,6.65,0,0,1,1.54-5.61,77,77,0,0,0,10.59-18c4.44-10.18,7.77-20.74,7.49-32.06,0-1.5,1.61-3.29-.14-4.45-1.21-.8-3-.56-4.47-.8-2.26-.36-4.54-.64-6.8-1-.9-.13-1.94,0-2.56-1.17a1.85,1.85,0,0,1,2.51-.23l2.71.11a1.64,1.64,0,0,1,1.24.37A37.94,37.94,0,0,0,205.23,149.55Z" transform="translate(-49.99 -32.64)"/><path class="cls-143" d="M192.78,148.31c-.6.19-1.35-.23-1.83.39l14.82,2.07c-.63,6.66-.92,13.32-2.26,19.83a86.69,86.69,0,0,1-4,12.48A88.25,88.25,0,0,1,186,207.35c-1.1,1.4.25,3.26-1.41,4.24-6-3.26-11.88-6.53-17.85-9.74-1.21-.66-1.41-1.46-1.24-2.79,1.35-10.37,4.42-20.29,7.95-30.07,2.33-6.47,5.32-12.67,8.16-18.93,1.2-2.62,2.82-3.3,5.35-2.78a11.79,11.79,0,0,0,4,.46,1.32,1.32,0,0,1,1.63.09A2.86,2.86,0,0,0,192.78,148.31Z" transform="translate(-49.99 -32.64)"/><path class="cls-144" d="M159.21,219.66a15.19,15.19,0,0,0-4.88,1.59,84.23,84.23,0,0,1-33.91,10.08c-9.88.83-19.24-1.09-28.72-3-1.56-.31-1.36-1.27-1.42-2.3-.21-3.63.32-7.22.55-10.83.07-1,.38-2.12-.49-3a1.62,1.62,0,0,1-.58-.74,8.83,8.83,0,0,1,.39-5.56c.48-.42.26-1.2.8-1.6.72-1.29.43-2.76.67-4.13,1.22,0,.27,1.33,1,1.68-.39,2.53-.79,5.05-1.14,7.58-.19,1.32.36,1.84,1.73,2.36a62.27,62.27,0,0,0,28.09,3.77,59.46,59.46,0,0,0,19.19-5.14,65.44,65.44,0,0,0,18-11.53c1.62-1.51,1.93-.31,2.59.66a1.11,1.11,0,0,1,.06,1.35c-.63,5.62-.88,11.28-2.06,16.83a1.06,1.06,0,0,0,.25.79Z" transform="translate(-49.99 -32.64)"/><path class="cls-143" d="M197.79,124.17c1.64.17,1.53-1.5,2.29-2.24a14.23,14.23,0,0,0,1.63-2.33c2.07,8.5,3.87,17.12,5.17,25.92-1.55.25-3.89-1.58-6.15-.08-.84,0-1.72.18-2.42-.48a12.06,12.06,0,0,0-6.21-.67,13.27,13.27,0,0,1-3.37-.35c-3.26-.66-3.31-.63-1.62-3.34C190.56,135.06,193.86,129.4,197.79,124.17Z" transform="translate(-49.99 -32.64)"/><path class="cls-144" d="M161,197.83c1.15-5.26,2.32-10.51,3.43-15.78.24-1.12.23-2.31,1.68-2.63-1.33,6-3.33,11.75-3.86,17.87.11.48-.15.7-.57.82A.88.88,0,0,1,161,197.83Z" transform="translate(-49.99 -32.64)"/><path class="cls-124" d="M159.27,218.52c-1.49-2.51,0-5,.06-7.52A58.24,58.24,0,0,1,161,200.7c.16-.28.33-.28.5,0-.48,1.7.23,3.51-.43,5.2.35,1.68-.47,3.28-.39,4.95a14.56,14.56,0,0,0-.33,3.16c-.43.83.12,1.87-.58,2.63Z" transform="translate(-49.99 -32.64)"/><path class="cls-145" d="M162.8,218.65l-.14,3.94c-.59,1.71.19,3.53-.45,5.23l-.09,4.49c-1.13-3.05-.6-6.23-.4-9.29.16-2.43.37-4.9.55-7.58C163.09,216.59,162.56,217.67,162.8,218.65Z" transform="translate(-49.99 -32.64)"/><path class="cls-146" d="M160.39,210.89c0-1.69-.12-3.41.7-5,1.34,1.73-.14,3.43-.07,5.15.11,2.9-1,5.69-1,8.61l-.21-3,.18-2.74C160.43,212.94,159.9,211.85,160.39,210.89Z" transform="translate(-49.99 -32.64)"/><path class="cls-147" d="M192.1,144.29c2.53-1.51,4.94.37,7.51.08-.32.77-.89.45-1.3.59C196.2,145.13,194.17,144.51,192.1,144.29Z" transform="translate(-49.99 -32.64)"/><path class="cls-148" d="M161.65,197.84l.62-.55c.79.86.41,1.87.41,3.16l-1-1.49C161.23,198.62,161.24,198.25,161.65,197.84Z" transform="translate(-49.99 -32.64)"/><path class="cls-73" d="M196.73,148.79a.92.92,0,0,1-1.24-.37c.77-1,1.86-.42,2.9-.37Z" transform="translate(-49.99 -32.64)"/><path class="cls-73" d="M192.58,147.83l-1.63-.09c1.08-.91,2.27-.49,3.53-.37C193.89,148.05,193.18,147.68,192.58,147.83Z" transform="translate(-49.99 -32.64)"/><path class="cls-149" d="M174.2,157.49l.75-2.18C175.66,156.37,175.45,157.11,174.2,157.49Z" transform="translate(-49.99 -32.64)"/><path class="cls-150" d="M161.65,197.84c0,.38,0,.75.08,1.12l-.21,1.74H161v-2.87Z" transform="translate(-49.99 -32.64)"/><path class="cls-151" d="M84,228.3h.57c.87.9.5,2,.58,3.1v18.85c.3,1.69-.61,3.35-.08,5,0,.4,0,.79,0,1.19h-.5a3.79,3.79,0,0,1-.58-2.3v-.57c-.62-6-.17-12-.25-17.94C83.68,233.22,83.36,230.74,84,228.3Z" transform="translate(-49.99 -32.64)"/><path class="cls-75" d="M90.79,205.86c-1,1.84,0,3.89-.62,5.77a.85.85,0,0,1-.49.31.91.91,0,0,0-.38.46,13,13,0,0,0,.16,3.69,2.51,2.51,0,0,1-.07.82c-.17.39-.34.77-.49,1.18a20.61,20.61,0,0,0,.19,6.32c-1.55,5.78-.53,11.68-.83,17.51-.07,1.21.29,2.46-.28,3.63-1.19-2.22-.58-4.63-.49-6.92.11-3.08-1.15-5.75-1.8-8.6a1.22,1.22,0,0,1,0-1.73c.85-.6.5-1.5.58-2.3a9.86,9.86,0,0,0,0-5.17l.58-2.88a4.42,4.42,0,0,0,0-3.44c.92-4.17.78-8.5,1.93-12.65,1.12.85.51,2.51,1.51,3.44A1,1,0,0,1,90.79,205.86Z" transform="translate(-49.99 -32.64)"/><path class="cls-152" d="M88,245.55c0-4.93,0-9.87,0-14.81a29.18,29.18,0,0,1,.58-7,15.64,15.64,0,0,1,0-6.32l.57-.58a1,1,0,0,1,.55.25l.13.27-.21.66a16.54,16.54,0,0,0-.19,3.78c-.1,1.81.22,3.62-.18,5.41l-.19,0c-1.05,3.07-.43,6.23-.42,9.33,0,3.38-.63,6.82.41,10.17v.66l-.48,1.13C87.6,247.62,88.13,246.52,88,245.55Z" transform="translate(-49.99 -32.64)"/><path class="cls-153" d="M85.68,228.3c0,.58,0,1.15,0,1.73,0,6.86,0,13.71,0,20.57,0,1,.35,2.11-.5,3-.68-1-.19-2.09-.34-3.13v-19c.14-1-.34-2.16.35-3.14Z" transform="translate(-49.99 -32.64)"/><path class="cls-115" d="M85.05,250.78l.12,2.82c0,.57-.09,1.13-.14,1.7-1-1.45-.29-3.08-.47-4.62C84.78,250.46,84.94,250.51,85.05,250.78Z" transform="translate(-49.99 -32.64)"/><path class="cls-116" d="M85.64,222.44c-.13,1.77.54,3.6-.46,5.29,0-1.69,0-3.38,0-5.08Z" transform="translate(-49.99 -32.64)"/><path class="cls-116" d="M86.22,215.55c-.07,1,.4,2.07-.46,2.95C85.76,217.49,85.49,216.44,86.22,215.55Z" transform="translate(-49.99 -32.64)"/><path class="cls-10" d="M84,228.3v25.31c-1.17-1.55-.49-3.31-.54-5-.11-3.71,0-7.42,0-11.14C83.7,234.45,82.74,231.31,84,228.3Z" transform="translate(-49.99 -32.64)"/><path class="cls-10" d="M55.21,222l.57.57c-.19,1.15.47,2.45-.57,3.45Z" transform="translate(-49.99 -32.64)"/><path class="cls-10" d="M55.78,216.23a2.61,2.61,0,0,1,0,3.45Z" transform="translate(-49.99 -32.64)"/><path class="cls-10" d="M85.18,228.31l-.13,2.82c-.12.29-.28.31-.49.09l0-2.91c.17-.2.33-.4.5-.59Z" transform="translate(-49.99 -32.64)"/><path class="cls-154" d="M109.84,141.48c2-5.56,5.2-10.53,8.15-15.6a148.68,148.68,0,0,1,14.84-21.82c1.88-1.64,3.34,0,4.82.72,14.53,7.55,24,19.39,27.07,35.34,4.24,22.11-3.86,43-24.65,55.18-13.24,7.73-27.33,8.8-41.86,3.74-1.54-.53-3.09-1.64-5.06-.34.11-4.17,1.4-7.88,2-11.7.17-1,.62-2-.18-3-.69-1.26,0-2.33.46-3.44a3.33,3.33,0,0,1,.62-2.26c.37-1.36.21-2.86,1.12-4.07l4.13-12.05c1.64.66.79,1.87.56,2.85a2.2,2.2,0,0,0,1,2.67c11.37,8,27.24,3.34,31.66-9.85,3.63-10.84-.73-22.53-12.34-26.74-1.59-.58-3.43-.77-4.26-2.35-2.23,4.21-4.25,8.62-6.6,12.85-.29.51-.66,1.32-1.52.84C109.42,142.24,109.59,141.81,109.84,141.48Z" transform="translate(-49.99 -32.64)"/><path class="cls-133" d="M95.44,180.58c-.15,1.15-.31,2.3-.46,3.44l-.68,1.12C94.14,183.48,93.69,181.76,95.44,180.58Z" transform="translate(-49.99 -32.64)"/><path class="cls-155" d="M92.59,201.85c-.33-.56-.65-1.12-1-1.68s-.25-.94.32-1.23C93,199.72,92.44,200.86,92.59,201.85Z" transform="translate(-49.99 -32.64)"/><path class="cls-156" d="M91.9,198.36a1.69,1.69,0,0,1-.35-2.07c.36-.6.32.21.46.39Z" transform="translate(-49.99 -32.64)"/><path class="cls-157" d="M109.84,141.48c.74,1.62.86-.1,1-.26,2.43-4.52,4.36-9.32,7.45-13.88.15,2,1.57,2.26,2.89,2.65,7.66,2.31,12.86,7.27,14.62,15,2.84,12.53-3.05,23.66-16.49,27-6.74,1.65-12.3-1-17.85-4.12-1-.59-.66-1.36-.52-2.22.18-1.14,1.46-2.16.42-3.45A138.45,138.45,0,0,1,109.84,141.48Z" transform="translate(-49.99 -32.64)"/><path class="cls-133" d="M97.18,174.25a9.36,9.36,0,0,1-1.12,4.07c-.08-1-.62-1.27-1.57-1-.73.17-.78-.41-.62-.87a5.25,5.25,0,0,1,.73-1.12C96.49,177.49,96,173.91,97.18,174.25Z" transform="translate(-49.99 -32.64)"/><path class="cls-133" d="M92,185.88c.13-.75-.2-1.43.32-1.95a.87.87,0,0,1,.61.36C93.25,185.14,92.51,185.38,92,185.88Z" transform="translate(-49.99 -32.64)"/><path class="cls-116" d="M86.26,220.83a5.19,5.19,0,0,1,0,5.17Z" transform="translate(-49.99 -32.64)"/><path class="cls-116" d="M86.84,214.51a2.59,2.59,0,0,1,0,3.44Z" transform="translate(-49.99 -32.64)"/><path class="cls-158" d="M90.79,205.86l-.51-.56c.16-.56-.34-1.25.32-1.72l.35.72C90.9,204.82,90.84,205.34,90.79,205.86Z" transform="translate(-49.99 -32.64)"/><path class="cls-159" d="M157.48,244.36c-1.1-3.4-.17-6.85,0-10.29l.2,4.18a21.26,21.26,0,0,1,0,6.17Z" transform="translate(-49.99 -32.64)"/><path class="cls-106" d="M157.67,244.42c0-2.06,0-4.11,0-6.17l.41-.43C158,240,158.63,242.27,157.67,244.42Z" transform="translate(-49.99 -32.64)"/><path class="cls-144" d="M89.23,227.17v-5.51a.44.44,0,0,1,.42-.41C89.53,223.22,90.22,225.25,89.23,227.17Z" transform="translate(-49.99 -32.64)"/><path class="cls-106" d="M158.66,229.2c-.11,1.42.52,2.92-.43,4.25A9,9,0,0,1,158.66,229.2Z" transform="translate(-49.99 -32.64)"/><path class="cls-116" d="M89.64,221.25l-.42.41c0-1.23-.48-2.53.38-3.68C89.61,219.07,89.62,220.16,89.64,221.25Z" transform="translate(-49.99 -32.64)"/><path class="cls-133" d="M89.71,211.63h.46l.17.57c0,.7-.08,1.39-.13,2.08-.19.38-.43.41-.72.1A2.33,2.33,0,0,1,89.71,211.63Z" transform="translate(-49.99 -32.64)"/><path class="cls-144" d="M89.79,214.67l.43-.39c0,1,.43,2.12-.41,3l-.19.08C89.47,216.47,88.9,215.52,89.79,214.67Z" transform="translate(-49.99 -32.64)"/><path class="cls-75" d="M162.21,227.82c.15-1.74-.54-3.56.45-5.23C162.59,224.34,163.09,226.14,162.21,227.82Z" transform="translate(-49.99 -32.64)"/><path class="cls-75" d="M160.39,210.89c0,1,.4,2.1-.42,3A5,5,0,0,1,160.39,210.89Z" transform="translate(-49.99 -32.64)"/><path class="cls-160" d="M84.56,231.22l.49-.09v19.65l-.49-.1Z" transform="translate(-49.99 -32.64)"/><path class="cls-161" d="M89.79,214.67l-.17,2.73-.49-.6v-.58a10.29,10.29,0,0,1,0-5.17l.57.58C89.74,212.64,89.77,213.65,89.79,214.67Z" transform="translate(-49.99 -32.64)"/><path class="cls-133" d="M88.56,217.38q0,3.15,0,6.32A7.58,7.58,0,0,1,88.56,217.38Z" transform="translate(-49.99 -32.64)"/><path class="cls-133" d="M89.14,211.05c0,1.73,0,3.45,0,5.17A5.19,5.19,0,0,1,89.14,211.05Z" transform="translate(-49.99 -32.64)"/><path class="cls-133" d="M89.32,207.12a3.59,3.59,0,0,1,.22,2.78C88.71,209,89.42,208,89.32,207.12Z" transform="translate(-49.99 -32.64)"/></svg>