<svg id="Camada_1" data-name="Camada 1" xmlns="http://www.w3.org/2000/svg" viewBox="0 0 573 767"><defs><style>.cls-1{fill:#71c737;}.cls-2{fill:#d30000;}.cls-3{fill:#a0da7a;}.cls-4{fill:#d71414;}.cls-5{fill:#f6cfcf;}</style></defs><title>logoif</title><path class="cls-1" d="M1,617c1.72-1.19,1.48-3.21,2-4.87,5.6-18.06,19-28.08,37.79-28.09,34.65,0,69.31.5,104-.18,24.86-.48,39.75,19.19,40.08,39q.87,53.21,0,106.43c-.31,19.4-13.92,34.69-28.78,37.77-.39.08-.68.6-1,.92H30c-17.27-4.31-25.81-16.31-29-33Z" transform="translate(-1 -1)"/><path class="cls-1" d="M1,424c1.74-1.17,1.5-3.2,2-4.85,5.61-17.95,19.13-28,37.88-28,34.64,0,69.29.42,103.92-.15,25-.41,39.69,19.43,40,39.13.55,35.47.42,70.95,0,106.42-.2,18.37-13.26,34.3-29.89,37.89a40.82,40.82,0,0,1-8.43.64c-35.14,0-70.29-.51-105.42.22-21.38.45-34.53-14.8-38.28-28.85C2.42,544.92,2.65,543,1,542Z" transform="translate(-1 -1)"/><path class="cls-1" d="M225,768c-.27-1-1.18-1-1.94-1.31-17.75-6.5-26.65-19.93-27-38.11-.64-35.12-.42-70.27-.09-105.4.18-19.5,13.54-35.51,31.28-38.64a49.68,49.68,0,0,1,8.46-.49c34,0,68,.77,101.9-.27,26.82-.81,41.83,19.51,42.09,40.77.41,34.29.6,68.61-.08,102.9-.4,20.27-10.72,34.37-30.64,40.55Z" transform="translate(-1 -1)"/><path class="cls-1" d="M1,231c1.77-1.14,1.53-3.18,2.05-4.83,5.65-17.93,19.2-28,38-28,34.48,0,69,.36,103.42-.12,26.29-.37,40,20.17,40.36,38.79.59,35.63.45,71.28.05,106.92-.2,18-12.89,33.66-29,37.67a38.91,38.91,0,0,1-9.43.73H41c-19.39,0-32.79-10.13-38.2-28.73C2.37,351.93,2.65,350,1,349Z" transform="translate(-1 -1)"/><path class="cls-1" d="M574,538c-1.72,1-1.42,2.89-1.81,4.38-5.06,19.31-18.92,30.24-38.66,30.25q-52,0-103.93,0c-22.11,0-39.19-15.56-39.56-37.73q-.92-54.45,0-108.92c.38-21.9,17.39-37.3,39.31-37.33q51.47-.06,102.93,0c22.62,0,36.86,12,40.72,34.28.14.8,0,1.69,1,2.08v3c-.83,1.2-.5,2.58-.5,3.88q0,48.62,0,97.24c0,1.3-.33,2.68.5,3.88Z" transform="translate(-1 -1)"/><path class="cls-1" d="M574,154c-1.7,1.63-1.42,3.94-2,5.94-3.95,14.87-16.95,29.87-37.74,29.51-35-.6-70-.78-104.91.05-24.82.58-39.07-20.6-39.46-38-.41-18.31-.21-36.63-.23-54.95q0-24.74,0-49.46c.07-14.52,5.38-26.57,17.17-35.42,6.86-5.16,14.83-6.42,23.13-6.42H532.45c22.25,0,36.84,12.46,40.58,34.62.14.8,0,1.69,1,2.09v3c-.83,1.2-.5,2.58-.5,3.88q0,48.62,0,97.24c0,1.3-.33,2.68.5,3.88Z" transform="translate(-1 -1)"/><path class="cls-2" d="M101,1c6.18,2.24,12.76,2.84,19,5C157.7,19.31,182.69,58.67,178.8,99c-4,41.37-35,74.87-74.91,80.86C52,187.63,6.18,150,1.83,96c-.69-3-.14-6.13-.32-9.19C1.25,63.45,10.32,44,26.27,27.27,36.87,16.13,49.49,8.6,63.94,3.77,69.18,2,74.66,2,80,1h4A34.25,34.25,0,0,0,97,1Z" transform="translate(-1 -1)"/><path class="cls-3" d="M574,150c-1.52-1.09-1-2.72-1-4.13q0-48.37,0-96.73c0-1.42-.53-3,1-4.14Z" transform="translate(-1 -1)"/><path class="cls-3" d="M574,533c-1.51-1.09-1-2.72-1-4.14q0-48.36,0-96.73c0-1.41-.54-3,1-4.13Z" transform="translate(-1 -1)"/><path class="cls-4" d="M97,1A17.84,17.84,0,0,1,84,1Z" transform="translate(-1 -1)"/><path class="cls-5" d="M1,86a1.67,1.67,0,0,1,.83,0V96l-.41,0L1,96Z" transform="translate(-1 -1)"/><path class="cls-1" d="M287.48,575.07c-17.33,0-34.68-.64-52,.16-23.16,1.07-39.07-18.72-39.48-38.48-.49-24.32-.19-48.65-.21-73,0-11-.17-22,.11-33,.6-23.87,17-39.67,40.84-39.67,33.66,0,67.33.67,101-.22,26.66-.71,41.62,19.17,41.94,40.42.51,34.48.44,69,0,103.46-.24,19.91-12.69,35.66-29.79,39.66a34.32,34.32,0,0,1-8,.62Q314.72,575.09,287.48,575.07Z" transform="translate(-1 -1)"/><path class="cls-1" d="M287.8,382.17c-17.16,0-34.36-.76-51.47.17-26,1.42-40.39-21.4-40.43-39.64-.07-29-.14-58,0-87,0-8.8-.88-17.66,1.1-26.39,4.45-19.56,18.91-31.16,39-31.17,34,0,68,.55,102-.18,27.41-.59,41.5,20.08,41.78,40.63.46,34.32.39,68.65,0,103-.21,19.88-12.55,36-29.52,39.83a38.17,38.17,0,0,1-8.42.71C323.79,382.19,305.8,382.17,287.8,382.17Z" transform="translate(-1 -1)"/><path class="cls-1" d="M287.41,189.29c-17.33,0-34.68-.61-52,.15-24,1-39-19.42-39.3-37.51q-.84-54.48,0-109c.35-21.74,17.56-37.61,39.23-37.66,34.16-.08,68.31,0,102.47,0,24.68,0,41.47,15.58,41.86,40.35.54,34.48.41,69,0,103.46-.2,19.15-12.21,35-28.4,39.25a40.66,40.66,0,0,1-10.42.93Q314.16,189.31,287.41,189.29Z" transform="translate(-1 -1)"/></svg>