<svg id="Camada_1" data-name="Camada 1" xmlns="http://www.w3.org/2000/svg" viewBox="0 0 471.84 342.59"><title>logoJogos</title><path d="M206.28,148.8s-64.8-37-81.12-49.92-60-24.48-105.12,0c6.24,2.4,70.56,2.4,105.12,37.92s83,56.16,100.32,64.32,65.76,31.68,112.8,6.72c18.72-11,39.36-22.56,36.48-27.36-7.68.48-75.76,18.72-112.52-3.84C222.12,158.4,206.28,148.8,206.28,148.8Z" transform="translate(-20.04 -74.4)"/><circle cx="210.67" cy="37.49" r="37.49"/><path d="M145.8,161.76S160,201.85,193.22,219c8.74,7.07,50.5,22.91,61.54,39.23s31.2,29.76,35.52,60v44.64s-6.64-49.44-28-63.84-8.65-15.84-69-34.56c-21-10.56-45.5-12-60.38-68.64C132.84,185.76,145.8,161.76,145.8,161.76Z" transform="translate(-20.04 -74.4)"/><polyline points="116.46 97.38 112.86 120.2 125.76 87.36 123.48 84.6"/><path d="M34.2,335s110.64-12.24,106.56-99.36c5,2.88,32.16,32.4,6.84,74.64S80.52,346.08,34.2,335Z" transform="translate(-20.04 -74.4)"/><path d="M34.2,348.48S151.08,408,247.56,382.56c19.2-2.88,101.64-10.8,244.32-146.88,0,0-40,58.56-107.76,99.12S276,388.88,276,388.88l-.36,7s48.24-8.28,131.76-55.8c1.8,3.2-98.28,84.6-169.92,76.32C209.76,417,142,423.84,34.2,348.48Z" transform="translate(-20.04 -74.4)"/></svg>