<svg xmlns="http://www.w3.org/2000/svg" viewBox="0 0 655.72 727.24"><defs><style>.cls-1{fill:none;stroke:#fff;stroke-linecap:round;stroke-linejoin:round;stroke-width:205px;}.cls-2{fill:#71c737;}.cls-3{fill:#d30000;}.cls-4{fill:#a0da7a;}.cls-5{fill:#d71414;}.cls-6{fill:#f6cfcf;}</style></defs><title>logofundo</title><g id="Camada_2" data-name="Camada 2"><polyline class="cls-1" points="102.5 102.5 553.22 231.38 113.26 307.84 536.48 434.83 102.5 529.26 532.9 624.74"/></g><g id="Camada_1" data-name="Camada 1"><path class="cls-2" d="M138.84,574.81c1.29-.89,1.1-2.41,1.48-3.66,4.17-13.56,14.22-21.11,28.31-21.15,26-.08,52,.25,78-.32,18.66-.41,29.87,14.33,30.15,29.21q.75,39.93.19,79.88c-.2,14.55-10.39,26.06-21.53,28.39-.29.06-.51.45-.76.69l-93.81.23c-13-3.21-19.4-12.19-21.83-24.71Z" transform="translate(-7.14 -28.92)"/><path class="cls-2" d="M138.49,430c1.3-.88,1.12-2.4,1.51-3.65,4.17-13.48,14.3-21.06,28.37-21.1,26-.08,52,.19,78-.3,18.76-.35,29.82,14.51,30.09,29.29.48,26.62.44,53.25.22,79.87-.12,13.78-9.89,25.76-22.36,28.49a31.09,31.09,0,0,1-6.33.49c-26.37.09-52.75-.25-79.11.36-16.05.38-26-11-28.79-21.58-.3-1.13-.14-2.55-1.38-3.32Z" transform="translate(-7.14 -28.92)"/><path class="cls-2" d="M307.22,687.72c-.21-.73-.89-.77-1.46-1-13.33-4.84-20-14.9-20.32-28.55-.54-26.36-.44-52.73-.25-79.1.1-14.63,10.1-26.67,23.4-29.05a36.24,36.24,0,0,1,6.34-.38c25.5-.09,51,.45,76.48-.39,20.12-.66,31.43,14.56,31.66,30.51.38,25.74.58,51.5.13,77.23-.26,15.21-8,25.82-22.92,30.49Z" transform="translate(-7.14 -28.92)"/><path class="cls-2" d="M138.14,285.12c1.32-.86,1.14-2.38,1.52-3.63,4.21-13.46,14.36-21,28.45-21.07,25.87-.09,51.74.14,77.61-.29,19.72-.32,30.09,15.07,30.36,29.05.51,26.74.47,53.49.23,80.23-.12,13.53-9.61,25.29-21.69,28.33a29.07,29.07,0,0,1-7.08.56q-39.56.12-79.11.2c-14.55,0-24.63-7.55-28.72-21.5-.33-1.12-.12-2.54-1.36-3.32Z" transform="translate(-7.14 -28.92)"/><path class="cls-2" d="M568.72,514.48c-1.29.74-1.06,2.17-1.35,3.29-3.76,14.5-14.15,22.73-29,22.77q-39,.13-78,.19c-16.59,0-29.43-11.6-29.75-28.24q-.8-40.86-.19-81.74c.25-16.44,13-28,29.43-28.09q38.63-.14,77.25-.2c17,0,27.69,8.93,30.63,25.66.1.6,0,1.26.73,1.56v2.25c-.62.9-.37,1.93-.37,2.91q.08,36.5.18,73c0,1-.25,2,.38,2.91Z" transform="translate(-7.14 -28.92)"/><path class="cls-2" d="M568,226.3c-1.27,1.22-1.06,2.95-1.45,4.46-2.94,11.16-12.67,22.45-28.27,22.22-26.24-.4-52.5-.46-78.73.22-18.63.48-29.36-15.39-29.69-28.41-.34-13.74-.22-27.5-.27-41.24-.05-12.38-.1-24.75-.07-37.12,0-10.9,4-20,12.82-26.62,5.14-3.88,11.12-4.84,17.34-4.85q38.44-.1,76.87-.19c16.69,0,27.67,9.29,30.52,25.91.1.59,0,1.26.73,1.56v2.25c-.62.91-.37,1.94-.37,2.91q.07,36.49.18,73c0,1-.24,2,.38,2.9Z" transform="translate(-7.14 -28.92)"/><path class="cls-3" d="M212.77,112.33c4.64,1.67,9.58,2.11,14.25,3.74,28.33,9.9,47.16,39.39,44.31,69.65-2.91,31.05-26.14,56.25-56.07,60.82-38.94,5.94-73.38-22.2-76.74-62.7-.53-2.28-.12-4.6-.26-6.9-.24-17.55,6.53-32.15,18.47-44.76A67.78,67.78,0,0,1,185,114.48c3.93-1.33,8-1.34,12-2.11h3a25.58,25.58,0,0,0,9.75,0Z" transform="translate(-7.14 -28.92)"/><path class="cls-4" d="M568,223.29c-1.14-.81-.73-2-.74-3.1q-.12-36.28-.17-72.59c0-1.07-.41-2.28.72-3.11Z" transform="translate(-7.14 -28.92)"/><path class="cls-4" d="M568.71,510.73c-1.14-.82-.74-2-.74-3.1q-.12-36.3-.18-72.6c0-1.06-.41-2.28.73-3.1Z" transform="translate(-7.14 -28.92)"/><path class="cls-5" d="M209.76,112.34a13.34,13.34,0,0,1-9.75,0Z" transform="translate(-7.14 -28.92)"/><path class="cls-6" d="M137.87,176.31a1.19,1.19,0,0,1,.62,0l0,7.57-.32,0-.31-.05Z" transform="translate(-7.14 -28.92)"/><path class="cls-2" d="M353.76,542.82c-13,0-26-.41-39,.22-17.37.84-29.35-14-29.69-28.81-.42-18.25-.23-36.51-.29-54.77,0-8.25-.17-16.5,0-24.75.41-17.92,12.67-29.8,30.58-29.85,25.26-.06,50.53.39,75.77-.35,20-.57,31.27,14.31,31.55,30.26.45,25.88.46,51.77.21,77.65-.15,14.94-9.46,26.78-22.29,29.81a26,26,0,0,1-6,.49Z" transform="translate(-7.14 -28.92)"/><path class="cls-2" d="M353.65,398.05c-12.88,0-25.79-.5-38.63.23-19.5,1.1-30.35-16-30.41-29.68-.11-21.76-.21-43.52-.19-65.27,0-6.61-.7-13.25.78-19.81,3.3-14.68,14.13-23.42,29.21-23.46,25.5-.08,51,.29,76.52-.32,20.57-.49,31.18,15,31.43,30.42.4,25.75.41,51.51.21,77.27-.12,14.92-9.35,27-22.08,29.95a29.07,29.07,0,0,1-6.33.55C380.66,398,367.16,398,353.65,398.05Z" transform="translate(-7.14 -28.92)"/><path class="cls-2" d="M353,253.3c-13,0-26-.39-39,.21-18,.82-29.33-14.5-29.57-28.08q-.74-40.87-.2-81.77c.22-16.32,13.11-28.26,29.37-28.34,25.63-.12,51.27-.14,76.9-.2,18.53,0,31.15,11.62,31.49,30.21.47,25.87.43,51.76.21,77.64-.12,14.37-9.1,26.26-21.24,29.51a30.31,30.31,0,0,1-7.82.71Q373.09,253.28,353,253.3Z" transform="translate(-7.14 -28.92)"/></g></svg>