<svg id="Camada_1" data-name="Camada 1" xmlns="http://www.w3.org/2000/svg" viewBox="0 0 190.19 392.31"><defs><style>.cls-1{fill:#4b4b4b;}.cls-2{fill:#4c4c4c;}.cls-3{fill:#4d4d4d;}.cls-4{fill:#f5f5f5;}.cls-5{fill:#f3f3f3;}.cls-6{fill:#f4f4f4;}</style></defs><title>xadrez</title><path class="cls-1" d="M329.73,365.74H187.2c0-1.62,1.24-2.24,2-3.15,22.35-27.07,34.67-58.34,38.94-93,.66-5.38,1-10.8,1.34-16.22.11-2.12.75-2.8,2.92-2.79,17.13.09,34.25.12,51.38,0,2.8,0,3.09,1.12,3.19,3.4a192.44,192.44,0,0,0,9.93,54c7.05,20.6,17.28,39.44,31.56,56C328.79,364.36,329.06,364.82,329.73,365.74Z" transform="translate(-163.09 -47.87)"/><path class="cls-1" d="M229.81,153.86c-14.18-9-23.56-21.3-27.14-37.88-6.7-31,14.65-62.1,46.39-67.36,31.26-5.18,61.58,17.14,65.2,48.29,2.75,23.61-6.13,42.06-25.65,55.5-.68.47-1.34,1-2,1.45-9.39.66-18.79.26-28.18.26S239.34,154.53,229.81,153.86Z" transform="translate(-163.09 -47.87)"/><path class="cls-1" d="M175.5,424.63c-13.19-7.61-15.07-21.79-9.37-31.5,2.91-4.94,6.51-7.76,13-7.73,53.28.27,106.57.19,159.85.07a10.59,10.59,0,0,1,8.65,3.93c8.89,10,7.84,26.92-6.71,35.23a8.75,8.75,0,0,1-3.3.25H178.8A8.75,8.75,0,0,1,175.5,424.63Z" transform="translate(-163.09 -47.87)"/><path class="cls-1" d="M345.94,429.49c2.29,1.87,4,4,2.6,7.16s-4,3.53-6.9,3.53q-83.44,0-166.89,0c-2.94,0-5.58-.46-6.9-3.53s.33-5.29,2.61-7.16c1.31-.72,2.73-.38,4.09-.38q83.65,0,167.3,0C343.21,429.11,344.63,428.77,345.94,429.49Z" transform="translate(-163.09 -47.87)"/><path class="cls-1" d="M258,381.14H176.12a33.66,33.66,0,0,1-3.76-.08,5.1,5.1,0,0,1-4.93-5.26c-.07-3,1.75-4.91,4.74-5.48a18.44,18.44,0,0,1,3.33-.09H340.91a17.59,17.59,0,0,1,3.33.1c3,.55,4.8,2.51,4.73,5.48a5.12,5.12,0,0,1-4.94,5.25,31.38,31.38,0,0,1-3.76.08Z" transform="translate(-163.09 -47.87)"/><path class="cls-1" d="M314.17,202.13c2.58,1.64,4.22,3.8,3.14,7s-3.66,3.84-6.69,3.84q-52.42,0-104.84,0c-3,0-5.63-.74-6.69-3.85s.56-5.32,3.14-7a7,7,0,0,1,3.28-.31H310.89A7,7,0,0,1,314.17,202.13Z" transform="translate(-163.09 -47.87)"/><path class="cls-1" d="M299.44,217.48c-3.64,4.75-6.91,9.19-9.2,14.23-.6,1.31-1.74,1.16-2.84,1.16H229c-1.1,0-2.25.18-2.86-1.13-2.31-5-5.54-9.49-9.24-14.25Z" transform="translate(-163.09 -47.87)"/><path class="cls-1" d="M217.34,197.17c3.07-4.11,6.28-8.15,8.33-12.9.73-1.71,1.86-2.05,3.57-2q29,.08,57.94,0c1.71,0,2.82.34,3.56,2.05,2.06,4.74,5.28,8.77,8.34,12.89-1,.71-2.15.42-3.24.42q-37.63,0-75.27,0C219.48,197.59,218.34,197.89,217.34,197.17Z" transform="translate(-163.09 -47.87)"/><path class="cls-2" d="M258.07,177.92c-11.82,0-23.64,0-35.47,0-4.41,0-6.66-1.59-6.43-4.66.29-3.89,3.05-4.42,6.27-4.42q35.67,0,71.35,0c4.42,0,6.66,1.58,6.43,4.65-.29,3.89-3.05,4.44-6.27,4.43C282,177.9,270,177.92,258.07,177.92Z" transform="translate(-163.09 -47.87)"/><path class="cls-2" d="M258.65,237.25c11.82,0,23.64,0,35.46,0,3.26,0,6.1.61,6.07,4.53s-2.92,4.55-6.14,4.55q-35.88,0-71.75,0c-3.24,0-6.09-.73-6.07-4.61s2.91-4.47,6.14-4.46C234.46,237.28,246.55,237.25,258.65,237.25Z" transform="translate(-163.09 -47.87)"/><path class="cls-3" d="M283.89,164.55H232.51c-1.5-5.77-1.2-6.19,4.47-6.19h42.45C285.08,158.36,285.39,158.79,283.89,164.55Z" transform="translate(-163.09 -47.87)"/><path class="cls-4" d="M345.94,429.49c-1.94-.08-3.88-.24-5.82-.24H176.28c-1.94,0-3.88.15-5.82.24,1.22-1.37,2.86-.84,4.32-.84q83.42,0,166.84,0C343.08,428.65,344.72,428.12,345.94,429.49Z" transform="translate(-163.09 -47.87)"/><path class="cls-4" d="M175.5,424.63H340.9c-1.31,1.21-2.92.69-4.39.69q-78.31,0-156.62,0C178.42,425.32,176.8,425.84,175.5,424.63Z" transform="translate(-163.09 -47.87)"/><path class="cls-5" d="M314.17,202.13H202.23c1.26-1.28,2.88-.76,4.35-.76q51.61,0,103.24,0C311.29,201.37,312.91,200.85,314.17,202.13Z" transform="translate(-163.09 -47.87)"/><path class="cls-5" d="M217.34,197.17c10.28.07,20.57.22,30.85.21,17,0,33.92-.13,50.89-.21.24,1.64-1.05.87-1.57.87q-39.31.06-78.63,0a7.73,7.73,0,0,1-1.57-.23A3.52,3.52,0,0,1,217.34,197.17Z" transform="translate(-163.09 -47.87)"/><path class="cls-6" d="M283.89,164.55c.53-6,.53-6-5.14-6h-41.1c-5.66,0-5.66,0-5.14,6-2.43-4.89-1.52-6.65,3.48-6.65q22.22,0,44.42,0C285.41,157.9,286.32,159.66,283.89,164.55Z" transform="translate(-163.09 -47.87)"/><path class="cls-6" d="M229.81,153.86h56.78c-1,1.1-2.32.75-3.54.75q-24.85,0-49.71,0C232.13,154.61,230.8,155,229.81,153.86Z" transform="translate(-163.09 -47.87)"/></svg>