<svg id="Camada_1" data-name="Camada 1" xmlns="http://www.w3.org/2000/svg" viewBox="0 0 370.35 370.32"><defs><style>.cls-1{fill:#fff;}</style></defs><title>closeicon</title><path class="cls-1" d="M64.84,418.26a34.43,34.43,0,0,1,10.63-24.09q39.09-39,78.07-78c15.55-15.55,31.06-31.13,46.7-46.59,1.93-1.91,1.71-2.83-.08-4.62Q138,202.9,75.91,140.73c-11.68-11.69-14.33-27.32-7-40.88a33.6,33.6,0,0,1,52.78-8.45c3.09,2.93,6,6,9.07,9q58.41,58.41,116.79,116.89c1.93,1.93,2.84,2.1,4.87.06q62.36-62.56,124.9-125c15.43-15.41,40-13.21,52,4.5a33.58,33.58,0,0,1-3.05,41.6c-1,1.07-2,2.09-3.06,3.12q-61.52,61.53-123.09,123c-2.2,2.2-2.06,3.24.05,5.35q62.32,62.13,124.5,124.42c12.08,12.09,13.9,29.72,4.61,43.29A33.51,33.51,0,0,1,378.24,443c-9.44-9.12-18.61-18.52-27.89-27.8q-49-49-98-98.11c-1.81-1.81-2.72-1.94-4.62,0q-62.25,62.44-124.66,124.73c-14.46,14.45-36.22,14.15-49.58-.62C67.66,434.73,64.93,427.08,64.84,418.26Z" transform="translate(-64.82 -82.1)"/></svg>