<svg id="Camada_1" data-name="Camada 1" xmlns="http://www.w3.org/2000/svg" viewBox="0 0 272.57 468.16"><defs><style>.cls-1{fill:#d8d8d8;}.cls-2{fill:#d8241b;}.cls-3{fill:#a7d7d7;}.cls-4{fill:#d7231a;}.cls-5{fill:#edd7b0;}.cls-6{fill:#ef978b;}.cls-7{fill:#313939;}.cls-8{fill:#333b3a;}.cls-9{fill:#95c1c1;}.cls-10{fill:#a9d8d7;}.cls-11{fill:#be221a;}.cls-12{fill:#f3f3f3;}.cls-13{fill:#d9d9d9;}.cls-14{fill:#d7d7d7;}.cls-15{fill:#4c504e;}.cls-16{fill:#ddd1d0;}.cls-17{fill:#f0e5ce;}.cls-18{fill:#ede1cb;}.cls-19{fill:#f2e7d5;}.cls-20{fill:#757267;}.cls-21{fill:#d7241b;}.cls-22{fill:#ecd6b0;}.cls-23{fill:#dadada;}.cls-24{fill:#dd3d35;}.cls-25{fill:#dd4037;}.cls-26{fill:#d74c44;}.cls-27{fill:#da453d;}.cls-28{fill:#d4867a;}.cls-29{fill:#d74d45;}.cls-30{fill:#db534a;}.cls-31{fill:#f1e7d3;}.cls-32{fill:#bc2018;}.cls-33{fill:#c41f16;}.cls-34{fill:#bd1e15;}.cls-35{fill:#c41e15;}.cls-36{fill:#c41d14;}.cls-37{fill:#383f3e;}.cls-38{fill:#f2f3f1;}.cls-39{fill:#38403f;}.cls-40{fill:#4c5353;}.cls-41{fill:#4d5454;}.cls-42{fill:#b2dcdc;}.cls-43{fill:#eddbb9;}.cls-44{fill:#94bfbd;}.cls-45{fill:#c7d7c5;}.cls-46{fill:#c4d7c7;}.cls-47{fill:#cad7c3;}.cls-48{fill:#e1d7b7;}.cls-49{fill:#d0be9a;}.cls-50{fill:#c0d7c9;}.cls-51{fill:#c9d7c4;}.cls-52{fill:#cdd7c0;}.cls-53{fill:#d6d7bc;}.cls-54{fill:#d3d7be;}.cls-55{fill:#bb1e15;}.cls-56{fill:#bd1d15;}.cls-57{fill:#be2018;}.cls-58{fill:#de372e;}.cls-59{fill:#fbd6d0;}.cls-60{fill:#dab77c;}.cls-61{fill:#ead8b8;}.cls-62{fill:#a9d7d7;}.cls-63{fill:#f4f4f4;}.cls-64{fill:#d1271e;}.cls-65{fill:#d32920;}.cls-66{fill:#d4261d;}.cls-67{fill:#ecd7b2;}.cls-68{fill:#d5251c;}.cls-69{fill:#d5241b;}.cls-70{fill:#d6251c;}.cls-71{fill:#df392f;}.cls-72{fill:#d7251c;}.cls-73{fill:#d6241b;}.cls-74{fill:#a8d8d7;}.cls-75{fill:#edd7b1;}.cls-76{fill:#a7d5d4;}.cls-77{fill:#323a39;}.cls-78{fill:#a6d2d0;}.cls-79{fill:#ebd6b0;}.cls-80{fill:#3c4948;}.cls-81{fill:#d6231a;}.cls-82{fill:#d6231b;}</style></defs><title>gincana</title><path class="cls-1" d="M275.13,24.42A23.12,23.12,0,0,1,271,28.48c.73-1.67,2.44-2.54,3.35-4.06Z" transform="translate(-95.22 -24.42)"/><path class="cls-2" d="M234.73,267.93a281.19,281.19,0,0,1-32.84-15.88,56.45,56.45,0,0,0-24-7.17c-3.27-.26-3.34-.08-4.13,3.23-1.62,6.79-3.23,13.59-6.31,19.91-2.33,4.81-5.8,8.93-8.3,13.65-2.13,4-4.43,7.92-6.3,12.06a1.52,1.52,0,0,1-.5.23c-1.78-.58-2.59-2.29-3.92-3.39-.65-.54-1.2-1.19-1.81-1.78l4.24,4.27c.54.55,1.21,1,1.27,1.89,0,.09,0,.19,0,.28l-2.51,5.12c-.92.75-1.74.13-2.57-.2-3.71-1.51-7.39-3-11.55-2.75-1.2.09-2.38.94-3.61.19l0,0a3.13,3.13,0,0,1-.08-3.55l.13-1.05a13.34,13.34,0,0,1,.74-3.31.21.21,0,0,0,0-.3c.58-1.32-.23-2.93.85-4.15a2,2,0,0,0,2.83-.64,3.28,3.28,0,0,0,.07-4.32,4.66,4.66,0,0,1-1.11-3.62,1.66,1.66,0,0,1,.3-.77c.76-.49,1.25.14,1.74.49a2,2,0,0,0,3.09-.42c.53-.48.35-.89-.08-1.33-.6-.61-1.15-1.25-1.72-1.89a4,4,0,0,1-1-4.15,10.43,10.43,0,0,0,.17-2.74,2.48,2.48,0,0,1,.33-1.1l.1-.63a8.93,8.93,0,0,1,.68-2.54l.1-.72a34.59,34.59,0,0,1,1.52-6,.26.26,0,0,0,.06-.33,10.33,10.33,0,0,1,.7-2.44l.1-.68a11.6,11.6,0,0,1,.78-2.88h0c.34-.77.14-1.7.71-2.4l.11-.61a8.25,8.25,0,0,1,.69-2.16.36.36,0,0,0,.07-.36,12.25,12.25,0,0,1,.76-2.41l.09-.1,0-.13a15.78,15.78,0,0,1,.71-2.14.18.18,0,0,0,.08-.27,6.25,6.25,0,0,1,.66-1.71l.08-.41c.34-.76.29-1.67.88-2.33l0,0c.2-.57.2-1.22.73-1.65h0c.33-.49.26-1.17.76-1.58a.13.13,0,0,0,.08-.21,3.29,3.29,0,0,1,.69-1.37l1.65-2.73a8.35,8.35,0,0,1,.71-1.23,34.67,34.67,0,0,1,4-5.6,17,17,0,0,1,2.3-2.35l.05,0a9.56,9.56,0,0,1,1.54-1.51,20.08,20.08,0,0,1,3.64-2.43,10,10,0,0,1,1.6-.73l.38-.09c.46-.44,1.11-.43,1.64-.68a.29.29,0,0,0,.34-.07c.86-.62,1.93-.43,2.87-.72a.19.19,0,0,0,.29,0,28.06,28.06,0,0,1,9.5,0l1.07,0c3.09.25,6.19.25,9.28.38.59,0,1.11.37,1.72.38a5.25,5.25,0,0,1,4.79,2.29c1.71,2.43,4.73,2.11,6.09-.51,1.09-2.06,2.82-1.15,4.32-1.39a31.07,31.07,0,0,1,5.19.33l6.6.11c3.44.36,6.89.06,10.33.16a23.46,23.46,0,0,0,9.5-1.35,74.38,74.38,0,0,1,10.1-2.69A16.32,16.32,0,0,1,260,210a70.91,70.91,0,0,1,14.76,10.83,4,4,0,0,1,.36.88.19.19,0,0,0,.08.26,6.09,6.09,0,0,1,.74,1.62l0,0a5.49,5.49,0,0,1,.79,1.72,9.67,9.67,0,0,0,1.64,3.81,4.23,4.23,0,0,1,.74,1.73.15.15,0,0,0,.07.24c.5.46.51,1.12.72,1.7a.21.21,0,0,0,.08.29,4.36,4.36,0,0,1,.71,1.76.16.16,0,0,0,.05.25,3.65,3.65,0,0,1,1.14,1.92c.39.77,0,1.67.43,2.44a.29.29,0,0,0,.07.35c.6.55.41,1.37.7,2v0a21.37,21.37,0,0,1,.8,2.84l.1.71c.55.76.42,1.69.68,2.53l.08.64c.72,1.42.41,3,.72,4.5l.05,1a8.16,8.16,0,0,1,0,4l0,.65c-.35,1.21.07,2.57-.71,3.7a8.07,8.07,0,0,0-.87,3.08,10.89,10.89,0,0,1-.8,2.05v0a.71.71,0,0,1-.53.24c-5,1.29-10,.66-15.06.67-2,0-4.08.3-6-.54-1.54-.67-1.65-1.25-.47-2.49,2.11-.59,4.31-1.09,4.46-3.92a4.16,4.16,0,0,1-1.24,2.43,3.54,3.54,0,0,1-2.53.95A1.67,1.67,0,0,1,260,264a1.47,1.47,0,0,1,.47-1.61c.82-.94,1.75-1.78,2.62-2.68,1.07-1.12.95-1.44-.51-2s-2.63.13-3.56,1.06a3.21,3.21,0,0,0-.86,3.44c.23.7.8,1.21,1,1.93-.08.73.43,1.36.33,2.09-.61.79,0,2.19-1.27,2.64-.39-.18-.22-1-1.13-.71-.74.19-.63-.72-.48-1.29.08-.78,1.47-1.39.57-2.21a2.91,2.91,0,0,0-3.49-.33c-1,.51-1.46,1.48-2.25,2.15-.61.63-.34,1.95-1.6,2.09a2.2,2.2,0,0,1-1.06-.3c-3.35-.58-6.64.2-9.95.42-.88.06-1,.93-1.17,1.63s-.42,1.15-1.19,1a1.4,1.4,0,0,1-1.24-1.32C235.05,269.27,235.43,268.49,234.73,267.93Z" transform="translate(-95.22 -24.42)"/><path class="cls-3" d="M223.64,174.49a1.62,1.62,0,0,0,0-.38c.35-.48,0-1.28.74-1.6a3.34,3.34,0,0,1,.84-2.41c.35-.47.26-1.17.78-1.55-.17-.94.8-1.48.81-2.36a11.23,11.23,0,0,0,.37-6.31c-.33-1.61.1-3.25-.36-4.83l-.06-2.75a9,9,0,0,1-.33-2l0-.78c-.53-1,.13-2.18-.39-3.19l0-1.54c-.91-1.47-.11-3.11-.47-4.63-.29-.82.15-1.73-.29-2.54v-1.17c-.43-1.42,0-2.92-.39-4.35l0-.8c-.5-1,.14-2.17-.37-3.19l-.06-2.75c-.9-2.18-.24-4.53-.74-6.74l0-2c-.48-1.15.14-2.42-.37-3.57h0c-.57-1.55.14-3.22-.39-4.78,0-.65,0-1.3,0-2a92.17,92.17,0,0,1-.4-17l.42-1.55c.3-.52.24-1.21.76-1.62a1,1,0,0,0,0-.35,6.38,6.38,0,0,1,.74-1.23,19.82,19.82,0,0,1,2.41-4c.46-.7.38-1.59.79-2.31a7,7,0,0,1,.8-3.15,6.54,6.54,0,0,1,.75-2l.07,0c1.3-.65,1.69.73,2.49,1.12-1.42-1.79-1.42-1.79.62-2.82a3.77,3.77,0,0,0,1.26-5.56c-.36-.58-1.11-1-.83-1.85l0-.79c1.07-.75,1.48.27,2.1.77,1,.78,1.47,2.27,3.1,2.06a2.08,2.08,0,0,1,.82.14,3.52,3.52,0,0,0,2.4.41c3.12.46,5.66-1,8.14-2.55,1.4,1.42,1.37,3,.61,4.71-1.61,3.74-3.12,7.53-4.65,11.31-.29.72-.47,1.5-.69,2.25-.61,2.18-.27,4.48-1.39,6.66-.8,1.58-.2,3.63.54,5.36a15.3,15.3,0,0,1,1.3,7.65,30.69,30.69,0,0,0,.82,9.78,8.4,8.4,0,0,0,2.85,4.42,7.16,7.16,0,0,1,2.65,6.27,5.07,5.07,0,0,0,3.91,5c.58.58.29,1.2.11,1.83-.56,2-1.46,3.8-2.09,5.73-.21.52-.8,1-.2,1.62a5,5,0,0,0,.9.88,2.22,2.22,0,0,0,1.77.34c1.37,0,2.73,0,4.09,0a5.49,5.49,0,0,0,3.4-.57c2-.27,3.91-1.24,6-1a3.46,3.46,0,0,0,2.28-.53c1.24-.12,2.39-.74,3.66-.73.81.48.21.87-.11,1.22-1,1.05-2,2.05-3.05,3.08,1.37-1.41,2.83-2.74,4.12-4.24a3,3,0,0,1,.52-.22,14.82,14.82,0,0,0,1.61-.33c2.62.05,4-1.82,5.56-3.48.65-.65,1.12-1.55,2.19-1.64a3.4,3.4,0,0,1,1.76,1,1.82,1.82,0,0,1-.37-2.15c.39-.7,1.11-1.1,1.61-1.7a4.44,4.44,0,0,1,.37-.38,27.08,27.08,0,0,0,2.08-2.07l.92-.92a5.67,5.67,0,0,0,1.49-2c.94-.23,1-1.22,1.53-1.81a34,34,0,0,0,2.32-3.24,1.51,1.51,0,0,1,1.11-.73c2.06.09,3.05-1.23,3.79-2.88.16-.35.27-.84.69-.88s.7.51.91.9c1.11,2.13.23,3.88-2.48,5,3.33-1,4.11-3.89,1.68-6.34a6.13,6.13,0,0,1-1.16-1.33,1.54,1.54,0,0,1-.1-.56,3.29,3.29,0,0,1,1.35-2.15.77.77,0,0,1,.54.06c.78.51,1.14,1.71,2.79,1.33a3.76,3.76,0,0,1-2.86-1.52c-.28-.36-.11-.69,0-1a5.8,5.8,0,0,1,1.07-1.58,1,1,0,0,1,.54,0c1,.49,1.61,1.49,2.54,2.17-.73-1-1.81-1.65-2.39-2.73a1.57,1.57,0,0,1,0-.57c.26-.73.47-1.51,1.41-1.67a3.65,3.65,0,0,1,1.7.93c2.59,1.91,5.6.63,6-2.62a3.3,3.3,0,0,1-1.23,2.47,3.63,3.63,0,0,1-2.7,1c-1.61-.22-2.05-1.15-1.06-2.41.7-.87,1.56-1.6,2.33-2.4,1.58-1.63,1.51-1.88-.75-2.61a2.67,2.67,0,0,1-.71-.32.85.85,0,0,1-.23-.52,2.71,2.71,0,0,1,1.07-2c.95-.31.88-1.41,1.53-2,1.36-.34.84.71.91,1.27.11,1-.2,1.92.55,2.8,1.77,2.07,3.94,2.28,6,.47.34-.3.57-.72,1-.9a2.2,2.2,0,0,1,1.71,0,5.39,5.39,0,0,0,4.17,0,1.89,1.89,0,0,1,2.17.3c0,1,.05,2.09.08,3.14-.36.48,0,1.28-.74,1.6a1.31,1.31,0,0,0,0,.39c-.29.51-.35,1.15-.8,1.59h0a6.32,6.32,0,0,1-.77,1.59,62.94,62.94,0,0,0-4,9.48,7,7,0,0,1-.76,1.61,4.17,4.17,0,0,0-.83,2.33c-.27.55-.32,1.2-.83,1.62a19,19,0,0,0-2.33,6.32,5.74,5.74,0,0,1-.79,1.61h0c-.3.37-.39.86-.75,1.2a3.94,3.94,0,0,0-.83,2.36c-.28.66-.24,1.43-.77,2a1.54,1.54,0,0,0,0,.37c-.31.51-.25,1.18-.73,1.61-.26,1.06-1.06,2-.85,3.15-.27.66-.24,1.43-.76,2-.68,2.33-1.57,4.62-1.63,7.1-.41.61-.14,1.5-.83,2l-.74,1.2c-.32.36-.38.9-.82,1.18a87.21,87.21,0,0,0-7.15,9.32,38.2,38.2,0,0,0-3.91,6.11c-.29.38-.39.89-.78,1.21h0c-.36.48-.23,1.21-.84,1.56-.84.76-.77,1.77-.75,2.77-.37.76-.06,1.75-.78,2.39-2.71,3.39-5.69,6.58-8.05,10.23-1.14,1.78-2.86,3.27-3.06,5.57-.57,1.68-.24,3.49-.77,5.18l0,1.17c-.48.58.15,1.43-.45,2l-.81,1.59c-.8.06-1.12-.63-1.56-1.06q-10.9-10.91-21.81-21.8c7.67,7.73,15.44,15.38,23.09,23.14a.35.35,0,0,1-.05.48l-.77.82c-.3.41-.83.48-1.19.8a2.42,2.42,0,0,0-1.19,1.19c-.33.35-.38.91-.84,1.17a3.26,3.26,0,0,0-1.55,2.35.63.63,0,0,1-.49.24c-1.76-.94-2.43-2.83-3.64-4.25a27.59,27.59,0,0,1-3-4.55,10,10,0,0,0-5.42-4.57,3.08,3.08,0,0,0-1.78-.61,2.69,2.69,0,0,1-.83-.27c-.92-.67-1.95-.39-2.95-.37-3.28,0-6.58.32-9.81-.66a4.82,4.82,0,0,0-2.92.22,12.87,12.87,0,0,1-4.49.45,5,5,0,0,0-3.51.51,12,12,0,0,1-5.09.06c-.79-.22-.8-1-1.14-1.56a5.36,5.36,0,0,1-1.61-2.81c-.51-.41-.44-1.1-.76-1.6l-.81-2a3.12,3.12,0,0,1-.53-1.9c.89-.52,1.32.26,1.81.69,1,.87,1.85,1.85,2.85,2.78a3.36,3.36,0,0,0-.54-.67c-.82-1-.91-1.66.59-2.06a3.24,3.24,0,0,0,2.55-3.32,3.63,3.63,0,0,0-2.68-3.67,3.54,3.54,0,0,0-4.18,1.74c-.54,1-1,2-2.2,2.36-.6-.12-.78-.57-.85-1.1-.51-.41-.44-1.1-.76-1.6a1.59,1.59,0,0,0,0-.38A4.17,4.17,0,0,1,223.64,174.49Z" transform="translate(-95.22 -24.42)"/><path class="cls-4" d="M259.28,266c-.27-.5-1.29-.81-.39-1.6a2.53,2.53,0,0,1,2.38,1.19c-.17.45-1.06.48-.84,1a2.2,2.2,0,0,0,1.57,1c2.31.6,4.68.35,7,.33,4.53,0,9.1.51,13.58-.64,0,0,.06.24.1.36a11.74,11.74,0,0,1-2.33,4.7l-1.26,2.77a4.83,4.83,0,0,1-1.11,1.19c-.42.79-.84,1.58-1.27,2.36a6.11,6.11,0,0,1-1.11,1.6l-1.26,2.36c-.72,1-1,2.29-1.91,3.18l-.5,1.51c-.32.66-.21,1.49-.82,2l0,0c-.23.68-.45,1.36-.72,2a4.91,4.91,0,0,0-.86,3,24.44,24.44,0,0,1-.77,2.91l-.08.1,0,.12a.54.54,0,0,1-.31.42c-.9.2-1.28-.55-1.77-1-2.83-2.75-5.57-5.59-7.08-7.07,1.89,1.82,4.94,5.09,8.19,8.15a1.66,1.66,0,0,1,.6,1,1.52,1.52,0,0,1-.3,1.09l-.1.68c-.27.95-.11,2-.7,2.87l-.09.69c-.32,1.21-.18,2.52-.77,3.68l-.09.1.06.11c-.29,1.11-.11,2.31-.72,3.34l-.07.62c-.29,1-.05,2.06-.67,3l-.12,1.09a20.78,20.78,0,0,1-.77,4.06l-.09.11.06.12a16.33,16.33,0,0,1-.69,3.32l-.08.73c-.37,1,0,2.27-.7,3.24l-.11,1c-.29,1.24-.18,2.56-.75,3.73a.16.16,0,0,0,0,.26c-.3.95,0,2-.69,2.91a10.22,10.22,0,0,0-.9,3.81,8.67,8.67,0,0,1-.75,2.53l-.09.09.05.12a6.37,6.37,0,0,1-.75,2.56l-.09.1,0,.12a9,9,0,0,1-.68,2.15l-.06.39c-.37,1-.18,2.2-.85,3.15l0,0c-.34.92-.16,2-.74,2.82a.19.19,0,0,0-.05.28c-.27.95-.12,2-.69,2.88l-.08.74c-.29,1.86-.39,3.75-.77,5.6a9.27,9.27,0,0,0,0,3.56,31.21,31.21,0,0,0,.76,4.06l.12.7a4.52,4.52,0,0,1,.66,1.71.18.18,0,0,0,.07.27c.21.4.6.75.46,1.28-.24,1.08-1.17,1.08-2,1.3a4,4,0,0,0-3.05,3.89,3.86,3.86,0,0,0,3,3.54c1.73.47,2.82-.07,4.21-2.09a.7.7,0,0,1,.54-.11c.55.59.52,1.4.8,2.09a3.4,3.4,0,0,0,.7,2c.67.49.49,1.35.87,2h0a8.92,8.92,0,0,1,.78,2.13.14.14,0,0,0,.06.23,16.08,16.08,0,0,1,.73,2.12.17.17,0,0,0,.06.26,12.73,12.73,0,0,1,.75,2.39h0c.54,3.17,1.42,6.27,1.67,9.49a14.52,14.52,0,0,1,.14,3.09c-.26,1.17-.7.35-1,.06-2.22-2-4.3-4.17-6.18-6.1,2.13,2.5,5,4.69,7.26,7.51.06.88-.3,1.77.1,2.63q.51,13.14,1,26.29c.13,3.35.37,6.71.19,10.07a3,3,0,0,1-1.12.77c-5,1.45-10,3.41-15.38,3a3.5,3.5,0,0,1-2.93-1.29c-2.28-2.47-2.18-5.71-2.68-8.72-2.08-12.47-4.41-24.89-7.38-37.19a2.17,2.17,0,0,0-.26-.53,6.61,6.61,0,0,1-1.1-2.67c-.13-.46-.26-.93-.42-1.39a30.47,30.47,0,0,1-.84-3.42,1.66,1.66,0,0,1,.24-.83c.81-.71,1.54-.32,2.3.14,1.18.72,2,1.88,3.06,2.67-1.36-1.9-3-3.47-5.45-3.76a1,1,0,0,1-.45-.3c-1.38-5.19-3.54-10.13-5.14-15.25a46.48,46.48,0,0,1-2.08-6.74c-.15-.44-.37-1,.07-1.27s.81.24,1.13.53c2,1.8,3.76,3.87,5.74,5.7-2.62-2.44-4.87-5.27-7.74-7.46l-.4-.4c-.7-.71-.56-1.65-.69-2.51-1.23-5.32-2.48-10.63-1.95-16.18.86-9,2.13-18,3.62-27,1.52-9.15,4-18.1,5.84-27.18,1.24-2.26,1-4.76,1.17-7.19,1.16-.46,1.59.6,2.36,1.1-.67-1.08-2-1.64-2.18-3a6.78,6.78,0,0,1,.14-2.06l.08-1.1c.75-1.54,1.84-1.42,3-.58a20.87,20.87,0,0,1,2.73,2.5,47.4,47.4,0,0,0-4.07-3.82c-.07-1.81.22-3.6.14-5.42a3,3,0,0,0-1.36-2.8c-.58-1.86,0-3.83-.54-5.7h0c.69-.54.75,0,.79.49a17.34,17.34,0,0,0,.1,1.77.92.92,0,0,0,1,.7c.43,0,.46-.45.43-.76-.22-2,1-2.22,2.59-2.22,2.9,0,5.76-.62,8.67-.5.43,0,.59.13.63.51-1.31,2.22-.2,3.69,1.54,5,.51.38.87,1,1.48,1.35-3.41-3.47-3.61-4-2.23-5.93a2.25,2.25,0,0,0,.87-2s.1-.08.16-.08.11.05.17.08a2.32,2.32,0,0,1,.55,1.62,3.82,3.82,0,0,0,4.1,3.32,3.53,3.53,0,0,0,3.31-3.84A2.33,2.33,0,0,1,259.28,266Z" transform="translate(-95.22 -24.42)"/><path class="cls-5" d="M260.07,138.44l-4.72,0c-.43-.49-1.2-.23-1.61-.75a.76.76,0,0,1-.82-.77,1.3,1.3,0,0,1,0-1.64c.17-2.28,1.44-4.19,2.1-6.31a5.49,5.49,0,0,0,.3-1.48,5.36,5.36,0,0,0,3.85-4.94,75.05,75.05,0,0,1,1.91-12.59,2.23,2.23,0,0,0-.08-1.33c-1.47-4.35.56-7.61,3.32-10.63.3-.32.69-.85,1.15-.51.94.69,1.23-.18,1.73-.57s.48-1.12.86-1.61l.34-.27c2.4-4.1,5.87-6.37,10.73-6.24a20.51,20.51,0,0,1,3.32.15,5.17,5.17,0,0,0,1.52.28,19.78,19.78,0,0,1,13,8.14,10.64,10.64,0,0,1,1.95,7.81c-.38.79-.05,1.83-.86,2.46-1.21,1-2.43,2.1-2.54,3.87-.06.91,0,1.82-.07,2.73a1.78,1.78,0,0,1-.31.81.8.8,0,0,1-.5.23c-2.69-1.32-4.38-.72-5.65,1.93-.26.56,0,.86.29,1.2.67.72,1.38,1.38,2.08,2.07.66.88,2.06,1.46,1.22,3a.73.73,0,0,1-.8.78c-1.16.52-1.27-.57-1.61-1.15-1.93-3.28-4.79-3.24-7-.15-1,1.42-.81,2.06.32,3.12a14,14,0,0,1,2.89,3.2.63.63,0,0,1-.12.53c-1,.16-1.29,1.1-2,1.58-1.36-.46-2.3.35-3.31,1a12.46,12.46,0,0,1-2,1.54,1.87,1.87,0,0,1-.53,0c-1.07,0-1.52,1-2.37,1.41a.45.45,0,0,1-.5,0c-1.29.35-2.54.94-3.94.73-.57.5-1.45.19-2,.74-2.19-.4-4.14,1-6.3.84C262.26,138.2,261.06,137.9,260.07,138.44Z" transform="translate(-95.22 -24.42)"/><path class="cls-5" d="M263.28,193.07a7.52,7.52,0,0,1,5.49,3.88,107.07,107.07,0,0,0,6.76,9.61,17.75,17.75,0,0,1-.38,5.53l0,3.16c-.57,2,.22,4.07-.46,6.05-3.57-2.91-7.19-5.74-10.94-8.42-6.29-4.5-12.93-5.48-20.2-2.87-2.84,1-5.8,1.73-8.7,2.57a8.71,8.71,0,0,1-5.25,0c.83-.53.61-1.38.62-2.14.07-4.33-.22-8.67.38-13a1.93,1.93,0,0,1,.19-.75l0-2c.43-.75.05-1.77.8-2.41l5.51,0c1-.69,2.22-.1,3.19-.74a13.43,13.43,0,0,0,5.2-.68,4,4,0,0,1,2.7,0c3.25,1.17,6.6.49,9.89.73.82.69,2,0,2.81.75l.77,0C262.07,192.83,262.85,192.57,263.28,193.07Z" transform="translate(-95.22 -24.42)"/><path class="cls-5" d="M329.68,94.91c-1.37-.4-2.45.61-3.71.81-1.65.26-2.93-1.07-4.52-.8-.67.2-1.12-.38-1.72-.48a3.31,3.31,0,0,1-1.24-1.08,1.45,1.45,0,0,1-.12-.82,1.77,1.77,0,0,1,.37-.67c1.44-1.68,1.41-1.82-.74-2.65-.68-.26-1.42-.45-.9-1.44,2.58-4.92,5.26-9.79,7.73-14.77,3.21-6.47,7.8-12.12,11-18.61A10.08,10.08,0,0,1,342.09,49a16.42,16.42,0,0,0,7.08-4.79c.43-.44,1.06-.5,1.56-.8.37-.56.53-1.29,1.21-1.61a2.24,2.24,0,0,1,3.16,0c1.35,1.15,3,2,4,3.55a5,5,0,0,1,2.77,3.13c.19,1.14,1.14,2.13.65,3.39-.49.63-1,.25-1.34-.09-1.12-1.07-2.57-1.91-3-3.55-.28-1.09-1.55-.49-2-1.27,1.29,2.71,4.1,3.8,6.07,5.78a.42.42,0,0,1,0,.51h0c-.31.37-.39.88-.78,1.2a1.45,1.45,0,0,0,0,.36c-.2.34-.41.66-.86.66-1.84-.64-2.77-2.34-4.13-3.54-.59-.51-1-1-1.62,0-.25.37-.85.27-1.27.46a3.73,3.73,0,0,0-2.2,3.81,4,4,0,0,0,3.51,3.22,3.27,3.27,0,0,0,3.52-2.26c.37-1.6,1.17-1.62,2.38-1.25.75.19.26,1,.67,1.36h0c.22.22.32.69.8.39,1.37-1.55,2.13-3.61,3.95-4.78,1.29.18,1.34.31.82,2l-.06.39c-.5.42-.45,1.09-.76,1.6A15,15,0,0,1,359.46,64a6.81,6.81,0,0,1-1.61.77l-.77,0c-.82.64-1.89.39-2.78.76l-.78,0c-.83.63-1.92.31-2.8.75l-.76.08a.3.3,0,0,1-.45-.12,24.08,24.08,0,0,1-3.11-3,2.75,2.75,0,0,1-.12-3.91c1.18-1.21,2.58-1.19,4,.08.79.7,1.46,1.52,2.45,2.32-1-1.06-1.88-2-2.83-2.79a2.45,2.45,0,0,0-3.67.28c-1.42,1.47-1.47,2.5-.26,3.78s2.49,2.33,3.67,3.56c-.67.85-1.73,0-2.46.55h0l-.24.16a1,1,0,0,1-.49-.25c-.5-.52-.86-1.15-1.42-1.63a3.58,3.58,0,0,0-4.68-.08c-.84.64-1,1.72-1.67,2.4-1.29,1.29.6,1.54.68,2.35a1,1,0,0,1,.07.54c-.27.46-.7.8-.93,1.29l0,.77c-.34.49-.24,1.21-.81,1.58l-.79,1.58c-.37.34-.47.83-.76,1.21.1,1-.73,1.77-.82,2.73-.41.47-.26,1.2-.78,1.62h0c-.33.5-.25,1.19-.77,1.59a1.62,1.62,0,0,0,0,.38c-.57.54-.14,1.5-.84,2a2.49,2.49,0,0,0-.74,1.6c-.34.49-.26,1.17-.75,1.58a2.63,2.63,0,0,0-.06.39c-.46.59-.42,1.37-.77,2v.78c-.41.74-.39,1.63-.77,2.39Z" transform="translate(-95.22 -24.42)"/><path class="cls-6" d="M146,309.12c.44,2.81,1.95,5.24,2.8,7.9s2.18,5.16,2.81,7.91c-9-.9-16.93,3.12-25.07,5.94q-9.89,3.42-19.46,7.72a55.27,55.27,0,0,0-7.47,4,6.38,6.38,0,0,0-2.49,2.48.42.42,0,0,1-.54.11l-.47-.47a3,3,0,0,1,0-3.54l1.61-2a12.2,12.2,0,0,0,1.47-1.2c3.54-3.46,7.73-6.13,11.44-9.38l2.93-2.58c.37-.44.27-1.12.77-1.5a52.9,52.9,0,0,1,4.78-8.37c.34-.32.39-.84.77-1.14l5.56-7.12c.31-.4.83-.47,1.19-.79l1.22-.38c1.9-1.58,4.29-1.18,6.42-1.25a21.56,21.56,0,0,1,9.42,1.62A3.58,3.58,0,0,1,146,309.12Z" transform="translate(-95.22 -24.42)"/><path class="cls-2" d="M97,345.13c-.75-1,.07-1.36.7-1.83a58.59,58.59,0,0,1,13.77-7.17c10.56-4.19,21-8.61,32.11-11.34,2.66-.66,5.41-1.34,8.07.14,1.29,3.3.77,5.85-1.81,8.2a18,18,0,0,1-8.42,4.06c-5.84,1.33-11.67,2.74-16.56,6.48-6.45,4.93-13.7,4.64-21.12,3.32-.9-.16-1.83-.21-2.74-.31h0c-.76-.36-1.74,0-2.4-.7l-.16-.1H98.2C97.78,345.64,97.14,345.75,97,345.13Z" transform="translate(-95.22 -24.42)"/><path class="cls-5" d="M238.7,66.4l-.78,0a6.91,6.91,0,0,1-3.23-3.57,1.63,1.63,0,0,1,0-1.85c.52-.7.78-1.6,1.63-2,2.16-.32,2.85,1.68,4.51,2.88-1.17-1.08-2-2-2.83-2.85-.43-.42-1.06-.87-.51-1.64l0-.4c1-.84,1.8-.61,2.33.57a3.13,3.13,0,0,0,3.34,1.94,3.6,3.6,0,0,0,3.22-2.52c.15-.49.16-1.19.82-1.18s1.05.72,1.25,1.36c.64,2-.34,3.51-2.86,4.31,3.38-.88,4.22-3.69,1.84-6.18-1.09-1.15-2.25-2.23-3.33-3.38-.53-.57-1.19-1.11-.88-2a2.6,2.6,0,0,1,3.83.36,12.21,12.21,0,0,0,3,2.45c-2.74-1.62-4.56-3.72-3.93-7.17,1.48-1.55,2.54-3.5,4.35-4.74,1.47.24,1.17,1.27,1.07,2.27A3.67,3.67,0,0,0,256,47.17c1.65-.23,2.3-1.51,3-2.72-.77,1.36-1.59,2.66-3.45,2.65-.72,0-1.53.07-1.92-.69s.1-1.37.56-1.95a35,35,0,0,1,4.27-4.34,1.78,1.78,0,0,1,1.34.1c3.18,1.2,4.59.52,5.58-2.7A4.32,4.32,0,0,1,263.89,40a2.92,2.92,0,0,1-2.74.7c-1.25-.29-1.82-1.26-1-2.13,1.6-1.79,3-3.83,5.52-4.58,5.23-.87,10.58-.62,15.8-1.63a1.71,1.71,0,0,0,.71-.28c.61-.49,1.21-1.21,2.06-.6s.4,1.45.43,2.21a2.52,2.52,0,0,1-.17,1c-.63,1.64-1.58,3.06-1.71,5-.11,1.7-2.2,2.83-3.24,4.34-2.78,4-6.53,5.87-11.48,5-.89-.16-1.87.12-2.75-.06-4.86-1-7.65,2-10,5.4-2.14,3.12-3.94,6.48-5.89,9.73-1.25,2.24-3.47,2.73-5.72,3.08a16.82,16.82,0,0,1-2.56,0C240.37,66.67,239.37,67,238.7,66.4Z" transform="translate(-95.22 -24.42)"/><path class="cls-7" d="M298.43,105.09c0-6.41-3.65-11.38-10.3-14.06-1.39-.56-2.86-.92-4.3-1.37-1.61-.69-2.61-2.08-3.82-3.24s-.5-1.56.65-1.83c5.37-3.16,10.84-3,16.38-.48a1.43,1.43,0,0,1,.66.41c1.59,2.47,4.23,2.57,6.73,3.11a10,10,0,0,1,7.21,5.28,2.59,2.59,0,0,1-.8,2c-.33.22-.41.67-.77.86-2.27,1.15-2.84,3.08-2.53,5.43a1.13,1.13,0,0,1-.32.46L306,103.24c-1.23,0-1-1-1.28-1.75-.7.39-.55.84-.16,1.36s1,.89.69,1.66l-.85,1.48a1.22,1.22,0,0,1-1.87-.79c-.34-1.29-1.33-1.58-2.25-2a2.49,2.49,0,0,0,1.9,2.2,2.28,2.28,0,0,1,1.45,1.75c-.4.66-.79,1.33-1.18,2C300.63,108.76,298.4,106.52,298.43,105.09Z" transform="translate(-95.22 -24.42)"/><path class="cls-5" d="M146,309.12a14.46,14.46,0,0,0-7.25-2.74,33.08,33.08,0,0,0-10.87.37l.76-1.2c.33-.5.26-1.18.77-1.59a5.42,5.42,0,0,1,.82-2.37c.33-.49.25-1.18.76-1.59a5.5,5.5,0,0,1,.85-2.41c5.4-2,10.29-.11,15.16,2,.82.35,1.56,1,2.57.79a28.76,28.76,0,0,0-2.74,6.37,6.19,6.19,0,0,0-.76,1.6Z" transform="translate(-95.22 -24.42)"/><path class="cls-8" d="M282.65,89.4c-1,0-2,0-3-.09a11.37,11.37,0,0,0-9.59,4.1c-.52.58-.91,1.31-1.7,1.61l-.17-.09c2.26-4.6,5.15-8.53,10.46-9.9C280.14,86.37,281.91,87.42,282.65,89.4Z" transform="translate(-95.22 -24.42)"/><path class="cls-5" d="M241.05,52.92c1.46-.06,3-.66,4.17.82.76,1,1.36,2.1.66,3.42a2.78,2.78,0,0,1-3,1.65,3.21,3.21,0,0,1-2.9-2.54,10.42,10.42,0,0,1-.05-1.77c0-.44,0-.9.4-1.2C240.5,53.1,240.63,52.71,241.05,52.92Z" transform="translate(-95.22 -24.42)"/><path class="cls-9" d="M281.45,199.83c-3.47-3.41-7-6.81-10.41-10.24-4.67-4.63-9.31-9.28-14-13.93l.38-.38,24.32,24.14a1.64,1.64,0,0,1,0,.38C281.7,200,281.58,200,281.45,199.83Z" transform="translate(-95.22 -24.42)"/><path class="cls-5" d="M258.5,40.26c-1.91-.67-3.8-1.39-5.8-.19-.36.21-.47-.31-.55-.62,1.06-1.38,2-2.87,4-3.15.53,0,1,0,1.19.72C257.64,38.12,258.1,39.18,258.5,40.26Z" transform="translate(-95.22 -24.42)"/><path class="cls-10" d="M232,71a2.14,2.14,0,0,1-2,.13.54.54,0,0,1,0-.78,1.1,1.1,0,0,0,0-.36,6.27,6.27,0,0,1,.75-1.62,4.79,4.79,0,0,1,.85-2.38c1.81-.63,1.93,1,2.2,1.91" transform="translate(-95.22 -24.42)"/><path class="cls-11" d="M138.1,265.85a14.23,14.23,0,0,1-.26,4.06c-.4,1.37,1,2,1.56,3a8.8,8.8,0,0,0,1.61,1.68c.88.88.77,1.46-.51,1.68l-.25-.12c-1.27-1.34-2.64-2.6-3.95-3.91a2.2,2.2,0,0,1-.19-.87c.08-1.25,1-2.21,1.22-3.4a.23.23,0,0,0,0-.32C137.85,267.13,137.05,266.11,138.1,265.85Z" transform="translate(-95.22 -24.42)"/><path class="cls-12" d="M230.76,196.67c-.38,4.83-.45,9.67-.37,14.51,0,.66-.12,1.17-.82,1.36a97.48,97.48,0,0,1-10.81-.4c3.15,0,6.31-.09,9.47,0,1.41,0,1.81-.47,1.78-1.83-.07-3.55,0-7.11,0-10.66A4.58,4.58,0,0,1,230.76,196.67Z" transform="translate(-95.22 -24.42)"/><path class="cls-13" d="M110.4,301.25c-2.55,2.54-5.1,5.07-7.35,7.29C105,306.06,107.81,303.77,110.4,301.25Z" transform="translate(-95.22 -24.42)"/><path class="cls-12" d="M222.46,89.36c-.26,5.68.33,11.35.4,17-.85-1.21-.54-2.7-.62-4-.26-4.18-.11-8.38-.09-12.57C222.15,89.68,222.35,89.52,222.46,89.36Z" transform="translate(-95.22 -24.42)"/><path class="cls-12" d="M197.61,211.65a1.61,1.61,0,0,0-.21-.3c4.69.08,9.39-.43,14.06.37a3.64,3.64,0,0,1,.7.31H206.7a51.41,51.41,0,0,0-8.77-.36C197.8,211.86,197.7,211.85,197.61,211.65Z" transform="translate(-95.22 -24.42)"/><path class="cls-12" d="M193.15,211.25l-2.76.09c-3.2-.37-6.44-.2-9.62-.79C184.9,210.74,189.09,209.88,193.15,211.25Z" transform="translate(-95.22 -24.42)"/><path class="cls-14" d="M278.26,357.51l-.38-.36" transform="translate(-95.22 -24.42)"/><path class="cls-14" d="M270.51,364.53" transform="translate(-95.22 -24.42)"/><path class="cls-12" d="M179.7,210.51h-9.5C173.37,209.22,176.53,209.62,179.7,210.51Z" transform="translate(-95.22 -24.42)"/><path class="cls-12" d="M226.84,155.05c.5,3.71,1.64,7.43,0,11.14C227.74,162.48,226.48,158.76,226.84,155.05Z" transform="translate(-95.22 -24.42)"/><path class="cls-15" d="M282.65,89.4l-4-4.37a3.39,3.39,0,0,1,2-.44c-.75.42-1.13.8-.24,1.6,1.21,1.07,2.28,2.3,3.41,3.47A1.47,1.47,0,0,1,282.65,89.4Z" transform="translate(-95.22 -24.42)"/><path class="cls-12" d="M133,284.16c.29-.42.56-.32.81,0a.86.86,0,0,1,.26.45.72.72,0,0,1-.3.69c-.69,1.27-.36,2.83-1.12,4.08C132.62,287.65,132,285.85,133,284.16Z" transform="translate(-95.22 -24.42)"/><path class="cls-12" d="M280.34,272.28c.78-1.56,1.55-3.13,2.33-4.7a2.14,2.14,0,0,0,.34-.09C282.67,269.4,282.14,271.19,280.34,272.28Z" transform="translate(-95.22 -24.42)"/><path class="cls-12" d="M136.49,271.5l.1.78c.33.44.17.8-.2,1.11l-.25.08c-1.12.29-1.6,0-1-1.18.34-.68.25-1.07-.52-1.22a.88.88,0,0,1,.8-.38C136.13,270.44,136.22,271.09,136.49,271.5Z" transform="translate(-95.22 -24.42)"/><path class="cls-12" d="M223.66,118.64a37.09,37.09,0,0,1,.74,6.74c-1-.51-.73-1.43-.74-2.25C223.64,121.63,223.66,120.13,223.66,118.64Z" transform="translate(-95.22 -24.42)"/><path class="cls-12" d="M140.48,254.87a28.33,28.33,0,0,1-1.52,6A9.74,9.74,0,0,1,140.48,254.87Z" transform="translate(-95.22 -24.42)"/><path class="cls-12" d="M275.15,212.09a24.4,24.4,0,0,1,.38-5.53l.37-.05C275.9,208.4,276.16,210.33,275.15,212.09Z" transform="translate(-95.22 -24.42)"/><path class="cls-16" d="M137.33,267.94c.13,1.29-.61,2.36-.84,3.56" transform="translate(-95.22 -24.42)"/><path class="cls-12" d="M283.05,194.67c.1-1.75-.36-3.58.77-5.18C283.83,191.26,284,193.05,283.05,194.67Z" transform="translate(-95.22 -24.42)"/><path class="cls-12" d="M272.42,285.74c.51-1.13.73-2.44,1.91-3.18C274.14,283.89,274,285.27,272.42,285.74Z" transform="translate(-95.22 -24.42)"/><path class="cls-12" d="M254.54,363a15,15,0,0,1,.77-5.6A11.64,11.64,0,0,1,254.54,363Z" transform="translate(-95.22 -24.42)"/><path class="cls-12" d="M274.66,221.3c.35-2-.39-4.09.46-6.05,0,2.16,0,4.32-.05,6.49Z" transform="translate(-95.22 -24.42)"/><path class="cls-12" d="M225.65,140a15.59,15.59,0,0,1,0,2.37c-.14.9-.5.44-.77,0,.83-1.53.19-3.2.41-4.78C225.88,138.35,225.53,139.23,225.65,140Z" transform="translate(-95.22 -24.42)"/><path class="cls-12" d="M367,54.9c-.18-.7.46-1.74-.82-2,.67-1.53,1.13-.21,1.39.2A1.19,1.19,0,0,1,367,54.9Z" transform="translate(-95.22 -24.42)"/><path class="cls-3" d="M316.3,88.52c0,.15,0,.3,0,.45-.95.07-1.33,1.36-2.42,1.14C314.18,88.79,315.13,88.5,316.3,88.52Z" transform="translate(-95.22 -24.42)"/><path class="cls-12" d="M285.38,253a18.54,18.54,0,0,1-.72-4.5C285.93,249.87,285.28,251.51,285.38,253Z" transform="translate(-95.22 -24.42)"/><path class="cls-12" d="M231.59,192.3a4.29,4.29,0,0,1-.8,2.41c0-1.19,0-2.38,0-3.56Z" transform="translate(-95.22 -24.42)"/><path class="cls-12" d="M131.71,294.07a7.74,7.74,0,0,0,.08,3.55C130.35,296.47,130.74,295.28,131.71,294.07Z" transform="translate(-95.22 -24.42)"/><path class="cls-12" d="M224.85,132.12c.66,1.4.29,2.9.39,4.35A9,9,0,0,1,224.85,132.12Z" transform="translate(-95.22 -24.42)"/><path class="cls-12" d="M264,320.19a10.89,10.89,0,0,1,.77-4.06C264.83,317.54,265,319,264,320.19Z" transform="translate(-95.22 -24.42)"/><path class="cls-12" d="M222.88,108.33c.75,1.54.23,3.19.39,4.78C222.42,111.58,223.06,109.92,222.88,108.33Z" transform="translate(-95.22 -24.42)"/><path class="cls-12" d="M285.41,258c0-1.32,0-2.64,0-4C286.49,255.39,285.81,256.71,285.41,258Z" transform="translate(-95.22 -24.42)"/><path class="cls-12" d="M266.4,307.92a8.48,8.48,0,0,1,.77-3.68C267.13,305.51,267.59,306.89,266.4,307.92Z" transform="translate(-95.22 -24.42)"/><path class="cls-12" d="M261.66,332.46a9.42,9.42,0,0,1,.75-3.73C262.38,330,262.84,331.41,261.66,332.46Z" transform="translate(-95.22 -24.42)"/><path class="cls-12" d="M96.13,341.18a5,5,0,0,0,0,3.54C95.08,343.53,94.77,342.35,96.13,341.18Z" transform="translate(-95.22 -24.42)"/><path class="cls-12" d="M284.67,262.38c.24-1.24.47-2.47.71-3.7C285.2,259.92,286,261.36,284.67,262.38Z" transform="translate(-95.22 -24.42)"/><path class="cls-12" d="M350.72,66.38a4.17,4.17,0,0,1,2.8-.76C352.91,67.06,351.65,66.13,350.72,66.38Z" transform="translate(-95.22 -24.42)"/><path class="cls-12" d="M265.65,311.47a7.59,7.59,0,0,1,.72-3.34C266.24,309.27,267,310.59,265.65,311.47Z" transform="translate(-95.22 -24.42)"/><path class="cls-12" d="M255.29,370.57a7,7,0,0,1-.76-4.06A11,11,0,0,1,255.29,370.57Z" transform="translate(-95.22 -24.42)"/><path class="cls-12" d="M355.1,41.87c-1.05-.32-2.1-.71-3.16,0C353,40.62,354.07,40.53,355.1,41.87Z" transform="translate(-95.22 -24.42)"/><path class="cls-12" d="M157.85,216.82a9.87,9.87,0,0,1-2.3,2.35A3.51,3.51,0,0,1,157.85,216.82Z" transform="translate(-95.22 -24.42)"/><path class="cls-12" d="M262.52,327.71a8.61,8.61,0,0,1,.7-3.24C263,325.55,264,326.89,262.52,327.71Z" transform="translate(-95.22 -24.42)"/><path class="cls-12" d="M223.64,174.49v3.16C222.51,176.59,222.9,175.54,223.64,174.49Z" transform="translate(-95.22 -24.42)"/><path class="cls-12" d="M256.13,353.45a5.18,5.18,0,0,1,.74-2.82C256.8,351.62,257.35,352.76,256.13,353.45Z" transform="translate(-95.22 -24.42)"/><path class="cls-12" d="M264.91,315a7.18,7.18,0,0,1,.67-3C265.38,313.08,266.25,314.31,264.91,315Z" transform="translate(-95.22 -24.42)"/><path class="cls-12" d="M263.3,323.74a8.07,8.07,0,0,1,.69-3.32C264,321.58,264.28,322.79,263.3,323.74Z" transform="translate(-95.22 -24.42)"/><path class="cls-12" d="M260.93,335.63a7,7,0,0,1,.69-2.91C261.43,333.7,262.28,334.92,260.93,335.63Z" transform="translate(-95.22 -24.42)"/><path class="cls-12" d="M256.85,350.65a6.69,6.69,0,0,1,.85-3.15C257.64,348.61,258,349.83,256.85,350.65Z" transform="translate(-95.22 -24.42)"/><path class="cls-12" d="M132.58,289.71a7.06,7.06,0,0,1-.74,3.31C131.82,291.85,131.53,290.63,132.58,289.71Z" transform="translate(-95.22 -24.42)"/><path class="cls-12" d="M354.3,65.6a5.66,5.66,0,0,1,2.78-.76C356.41,66,355.26,65.47,354.3,65.6Z" transform="translate(-95.22 -24.42)"/><path class="cls-12" d="M347.18,67.18c.63-.81,1.74,0,2.4-.73l0,0,.34,0C349.44,68.3,348,66.7,347.18,67.18Z" transform="translate(-95.22 -24.42)"/><path class="cls-12" d="M267.26,303.55a6.27,6.27,0,0,1,.7-2.87C267.89,301.68,268.43,302.83,267.26,303.55Z" transform="translate(-95.22 -24.42)"/><path class="cls-12" d="M332.88,85.38c.06-.75,0-1.56.84-2C333.55,84.11,334.22,85.17,332.88,85.38Z" transform="translate(-95.22 -24.42)"/><path class="cls-12" d="M223.27,113.1c.7,1.13.26,2.38.37,3.57C222.89,115.54,223.41,114.29,223.27,113.1Z" transform="translate(-95.22 -24.42)"/><path class="cls-12" d="M169.91,210.55a8.14,8.14,0,0,1-2.87.72C167.76,210.08,168.92,210.63,169.91,210.55Z" transform="translate(-95.22 -24.42)"/><path class="cls-12" d="M284.58,247.89a5.5,5.5,0,0,1-.68-2.53C285.24,245.9,284.39,247,284.58,247.89Z" transform="translate(-95.22 -24.42)"/><path class="cls-12" d="M255.39,356.61a6.27,6.27,0,0,1,.69-2.88C256,354.73,256.55,355.87,255.39,356.61Z" transform="translate(-95.22 -24.42)"/><path class="cls-12" d="M138.1,265.85l-.72,1.77c.07-1-.47-2.13.7-2.85Z" transform="translate(-95.22 -24.42)"/><path class="cls-12" d="M275.59,280.2c-.07-.84.63-1.15,1.11-1.6C276.72,279.4,276.85,280.28,275.59,280.2Z" transform="translate(-95.22 -24.42)"/><path class="cls-12" d="M142.12,248.54a6,6,0,0,1-.78,2.88C141.29,250.38,141.12,249.3,142.12,248.54Z" transform="translate(-95.22 -24.42)"/><path class="cls-12" d="M268.06,300v-1.11c.19-.4-.13-.94.34-1.26l.33-.18C268.56,298.31,269.41,299.45,268.06,300Z" transform="translate(-95.22 -24.42)"/><path class="cls-12" d="M281.41,237a2.26,2.26,0,0,1,1.24,1.19c-.46.3-.38.78-.41,1.23A4.75,4.75,0,0,1,281.41,237Z" transform="translate(-95.22 -24.42)"/><path class="cls-12" d="M142.83,246.15a4.76,4.76,0,0,1-.71,2.4C142.33,247.74,141.49,246.62,142.83,246.15Z" transform="translate(-95.22 -24.42)"/><path class="cls-12" d="M329.78,94.11a2.74,2.74,0,0,1,.77-2.39A2.66,2.66,0,0,1,329.78,94.11Z" transform="translate(-95.22 -24.42)"/><path class="cls-12" d="M227.61,78.27a2.51,2.51,0,0,1-.79,2.32A2.61,2.61,0,0,1,227.61,78.27Z" transform="translate(-95.22 -24.42)"/><path class="cls-12" d="M259.27,381.19l.4-.84c.14.93.27,1.86.4,2.8A3.55,3.55,0,0,1,259.27,381.19Z" transform="translate(-95.22 -24.42)"/><path class="cls-12" d="M141.24,252.1a5.14,5.14,0,0,1-.7,2.44C140.56,253.67,140.21,252.68,141.24,252.1Z" transform="translate(-95.22 -24.42)"/><path class="cls-12" d="M361.43,57.29c-.24-.41-.48-.81-.73-1.21a.48.48,0,0,1,0-.77l.76-.43Z" transform="translate(-95.22 -24.42)"/><path class="cls-12" d="M98.54,346a5.94,5.94,0,0,1,2.4.7C100.13,346.49,99,347.31,98.54,346Z" transform="translate(-95.22 -24.42)"/><path class="cls-12" d="M283.8,244.65a5.9,5.9,0,0,1-.8-2.84A3.46,3.46,0,0,1,283.8,244.65Z" transform="translate(-95.22 -24.42)"/><path class="cls-12" d="M226,146.35c.71,1,.26,2.13.39,3.19C225.65,148.56,226.19,147.41,226,146.35Z" transform="translate(-95.22 -24.42)"/><path class="cls-12" d="M310.7,147.94a3,3,0,0,1,.84-2C311.38,146.66,312.05,147.72,310.7,147.94Z" transform="translate(-95.22 -24.42)"/><path class="cls-12" d="M268.77,297.23a5.52,5.52,0,0,1,.77-2.91A3.73,3.73,0,0,1,268.77,297.23Z" transform="translate(-95.22 -24.42)"/><path class="cls-12" d="M138.86,261.6a5.51,5.51,0,0,1-.68,2.54C138.2,263.24,137.81,262.22,138.86,261.6Z" transform="translate(-95.22 -24.42)"/><path class="cls-12" d="M224.46,128.13c.69,1,.26,2.13.37,3.19C224.07,130.33,224.6,129.19,224.46,128.13Z" transform="translate(-95.22 -24.42)"/><path class="cls-12" d="M226.84,182.38l.41.41c.12.66.24,1.32.35,2C226.52,184.24,226.88,183.25,226.84,182.38Z" transform="translate(-95.22 -24.42)"/><path class="cls-12" d="M258.49,344.74a4.67,4.67,0,0,1,.75-2.56C259.22,343.1,259.64,344.15,258.49,344.74Z" transform="translate(-95.22 -24.42)"/><path class="cls-12" d="M143.63,243.38a3.5,3.5,0,0,1-.69,2.16C142.89,244.73,142.7,243.87,143.63,243.38Z" transform="translate(-95.22 -24.42)"/><path class="cls-12" d="M146.93,233.52a4.5,4.5,0,0,1-.88,2.33C146.05,235,146,234.06,146.93,233.52Z" transform="translate(-95.22 -24.42)"/><path class="cls-12" d="M278,276.24c.27-.5.51-1,1.11-1.19C279.16,275.86,278.85,276.31,278,276.24Z" transform="translate(-95.22 -24.42)"/><path class="cls-12" d="M334.51,81.44a1.55,1.55,0,0,1,.78-1.62C335.24,80.46,335.57,81.29,334.51,81.44Z" transform="translate(-95.22 -24.42)"/><path class="cls-12" d="M257.76,347.11a3.59,3.59,0,0,1,.68-2.15C258.49,345.77,258.67,346.61,257.76,347.11Z" transform="translate(-95.22 -24.42)"/><path class="cls-17" d="M330.56,90.94c0-.76-.1-1.56.77-2A2.27,2.27,0,0,1,330.56,90.94Z" transform="translate(-95.22 -24.42)"/><path class="cls-12" d="M259.28,342a4.54,4.54,0,0,1,.75-2.53A2.58,2.58,0,0,1,259.28,342Z" transform="translate(-95.22 -24.42)"/><path class="cls-12" d="M226.45,150.32c.55.59.31,1.3.33,2C226.51,151.66,225.76,151.11,226.45,150.32Z" transform="translate(-95.22 -24.42)"/><path class="cls-12" d="M144.46,240.61a4.49,4.49,0,0,1-.76,2.41A2.61,2.61,0,0,1,144.46,240.61Z" transform="translate(-95.22 -24.42)"/><path class="cls-12" d="M159.44,215.27a3.46,3.46,0,0,1-1.54,1.51A1.73,1.73,0,0,1,159.44,215.27Z" transform="translate(-95.22 -24.42)"/><path class="cls-12" d="M283,241.84a3.63,3.63,0,0,1-.7-2C283.51,240.15,282.9,241.12,283,241.84Z" transform="translate(-95.22 -24.42)"/><path class="cls-12" d="M264,394.25a4.62,4.62,0,0,1-.75-2.39A2.57,2.57,0,0,1,264,394.25Z" transform="translate(-95.22 -24.42)"/><path class="cls-12" d="M294.93,173.69a7.22,7.22,0,0,1,.78-2.39C295.65,172.16,296,173.16,294.93,173.69Z" transform="translate(-95.22 -24.42)"/><path class="cls-12" d="M271.1,289.28a3,3,0,0,1,.82-2C272,288.05,272.14,288.92,271.1,289.28Z" transform="translate(-95.22 -24.42)"/><path class="cls-12" d="M261.64,387.13a4.66,4.66,0,0,1-.87-2C261.83,385.47,261.65,386.34,261.64,387.13Z" transform="translate(-95.22 -24.42)"/><path class="cls-12" d="M283,267.51a3.58,3.58,0,0,1,.8-2.05A2.06,2.06,0,0,1,283,267.51Z" transform="translate(-95.22 -24.42)"/><path class="cls-12" d="M228.41,186.74a2.11,2.11,0,0,1,.76,1.6C228.14,188.18,228.48,187.36,228.41,186.74Z" transform="translate(-95.22 -24.42)"/><path class="cls-12" d="M114.35,324.55a1.63,1.63,0,0,1-.77,1.5C113.64,325.45,113.37,324.68,114.35,324.55Z" transform="translate(-95.22 -24.42)"/><path class="cls-12" d="M223.66,178a2.25,2.25,0,0,1,.76,1.6C223.39,179.47,223.72,178.66,223.66,178Z" transform="translate(-95.22 -24.42)"/><path class="cls-12" d="M226,168.55a2,2,0,0,1-.78,1.55C225.3,169.48,225,168.69,226,168.55Z" transform="translate(-95.22 -24.42)"/><path class="cls-12" d="M296.46,168.53a2.54,2.54,0,0,1,.84-1.56C297.23,167.6,297.55,168.45,296.46,168.53Z" transform="translate(-95.22 -24.42)"/><path class="cls-12" d="M276.66,225.32a2.61,2.61,0,0,1-.79-1.72C276.72,223.91,276.74,224.59,276.66,225.32Z" transform="translate(-95.22 -24.42)"/><path class="cls-12" d="M293.33,225.59l-2.37,0A1.75,1.75,0,0,1,293.33,225.59Z" transform="translate(-95.22 -24.42)"/><path class="cls-12" d="M148.4,230.31a2.65,2.65,0,0,1-.76,1.58C147.7,231.27,147.38,230.47,148.4,230.31Z" transform="translate(-95.22 -24.42)"/><path class="cls-12" d="M128.63,286.56c.55.2.89.84,1.58.74C129.15,288.18,128.85,287.45,128.63,286.56Z" transform="translate(-95.22 -24.42)"/><path class="cls-12" d="M313.16,138.84a3.78,3.78,0,0,1,.76-2C313.93,137.61,314.06,138.42,313.16,138.84Z" transform="translate(-95.22 -24.42)"/><path class="cls-12" d="M279.83,232.8a2.46,2.46,0,0,1-.72-1.7C280.18,231.32,279.8,232.15,279.83,232.8Z" transform="translate(-95.22 -24.42)"/><path class="cls-12" d="M314.77,133.7a2.21,2.21,0,0,1,.73-1.61C315.44,132.71,315.78,133.51,314.77,133.7Z" transform="translate(-95.22 -24.42)"/><path class="cls-12" d="M270.4,291.28a3,3,0,0,1,.72-2A2.2,2.2,0,0,1,270.4,291.28Z" transform="translate(-95.22 -24.42)"/><path class="cls-12" d="M123.11,293.65c0-.78,0-1.57,0-2.36A1.85,1.85,0,0,1,123.11,293.65Z" transform="translate(-95.22 -24.42)"/><path class="cls-12" d="M166.7,211.34a3,3,0,0,1-1.64.68C165.28,211,166.08,211.38,166.7,211.34Z" transform="translate(-95.22 -24.42)"/><path class="cls-12" d="M147.64,231.9a2.44,2.44,0,0,1-.73,1.65C146.9,232.89,146.55,232.08,147.64,231.9Z" transform="translate(-95.22 -24.42)"/><path class="cls-12" d="M99.21,338a1.79,1.79,0,0,1-1.47,1.2A1.94,1.94,0,0,1,99.21,338Z" transform="translate(-95.22 -24.42)"/><path class="cls-12" d="M331.39,88.56a2.08,2.08,0,0,1,.75-1.58C332.07,87.59,332.4,88.4,331.39,88.56Z" transform="translate(-95.22 -24.42)"/><path class="cls-12" d="M223.64,86.19a2.38,2.38,0,0,1-.76,1.62C222.93,87.17,222.6,86.35,223.64,86.19Z" transform="translate(-95.22 -24.42)"/><path class="cls-12" d="M256.07,373a2.7,2.7,0,0,1-.66-1.71C256.44,371.52,256,372.33,256.07,373Z" transform="translate(-95.22 -24.42)"/><path class="cls-12" d="M145.23,238.24a3.76,3.76,0,0,1-.71,2.14A2.29,2.29,0,0,1,145.23,238.24Z" transform="translate(-95.22 -24.42)"/><path class="cls-12" d="M129.4,304a2.14,2.14,0,0,1-.77,1.59C128.7,304.93,128.37,304.12,129.4,304Z" transform="translate(-95.22 -24.42)"/><path class="cls-12" d="M256.35,374.47l-.21-1.22c.88.38.75,1.2.82,1.93l-.08.07C256.27,375.28,256.34,374.86,256.35,374.47Z" transform="translate(-95.22 -24.42)"/><path class="cls-12" d="M333.74,83a2.15,2.15,0,0,1,.77-1.59C334.45,82.06,334.77,82.87,333.74,83Z" transform="translate(-95.22 -24.42)"/><path class="cls-12" d="M260.08,377.21" transform="translate(-95.22 -24.42)"/><path class="cls-12" d="M315.53,131.72a3.91,3.91,0,0,1,.77-2C316.3,130.49,316.43,131.31,315.53,131.72Z" transform="translate(-95.22 -24.42)"/><path class="cls-12" d="M229.16,73.12a3.83,3.83,0,0,1-.75,2C228.4,74.36,228.29,73.56,229.16,73.12Z" transform="translate(-95.22 -24.42)"/><path class="cls-12" d="M337.66,74.3a2.39,2.39,0,0,1,.81-1.58C338.41,73.35,338.73,74.19,337.66,74.3Z" transform="translate(-95.22 -24.42)"/><path class="cls-12" d="M131,300a2.16,2.16,0,0,1-.76,1.59C130.28,301,130,300.16,131,300Z" transform="translate(-95.22 -24.42)"/><path class="cls-12" d="M230,70.36c0,.26,0,.52,0,.78l-.78,1.22A2.26,2.26,0,0,1,230,70.36Z" transform="translate(-95.22 -24.42)"/><path class="cls-12" d="M262.41,389.25a3.46,3.46,0,0,1-.78-2.13A2.13,2.13,0,0,1,262.41,389.25Z" transform="translate(-95.22 -24.42)"/><path class="cls-12" d="M263.2,391.6a3.45,3.45,0,0,1-.73-2.12A2.24,2.24,0,0,1,263.2,391.6Z" transform="translate(-95.22 -24.42)"/><path class="cls-18" d="M366.19,56.89c.06-.62-.23-1.41.76-1.6A2,2,0,0,1,366.19,56.89Z" transform="translate(-95.22 -24.42)"/><path class="cls-12" d="M277.45,204.16a1.49,1.49,0,0,1,.84-1.17C278.3,203.59,278.27,204.17,277.45,204.16Z" transform="translate(-95.22 -24.42)"/><path class="cls-12" d="M279.48,201.8a1.29,1.29,0,0,1,1.19-.8C280.63,201.79,280.06,201.81,279.48,201.8Z" transform="translate(-95.22 -24.42)"/><path class="cls-12" d="M282.58,197.83c.15-.66-.13-1.43.45-2C282.94,196.51,283.35,197.31,282.58,197.83Z" transform="translate(-95.22 -24.42)"/><path class="cls-12" d="M225.63,181.2a1.18,1.18,0,0,1,1.22,1.19A2.29,2.29,0,0,1,225.63,181.2Z" transform="translate(-95.22 -24.42)"/><path class="cls-12" d="M297.3,167a1.34,1.34,0,0,1,.78-1.21C298.1,166.33,298.1,166.9,297.3,167Z" transform="translate(-95.22 -24.42)"/><path class="cls-12" d="M309.14,150.32a1.41,1.41,0,0,1,.82-1.18C310,149.73,310,150.31,309.14,150.32Z" transform="translate(-95.22 -24.42)"/><path class="cls-12" d="M125.46,282.17h-2A1.35,1.35,0,0,1,125.46,282.17Z" transform="translate(-95.22 -24.42)"/><path class="cls-12" d="M121.47,284.17c.1.87-.26,1.27-1.14,1.15Z" transform="translate(-95.22 -24.42)"/><path class="cls-12" d="M224.4,172.51c-.25.53-.49,1.07-.74,1.6C223.73,173.5,223.38,172.69,224.4,172.51Z" transform="translate(-95.22 -24.42)"/><path class="cls-12" d="M224.41,84.61a1.29,1.29,0,0,1-.74,1.23C223.65,85.27,223.61,84.69,224.41,84.61Z" transform="translate(-95.22 -24.42)"/><path class="cls-12" d="M329,99.65c.24-.53.49-1.07.74-1.6C329.69,98.67,330,99.47,329,99.65Z" transform="translate(-95.22 -24.42)"/><path class="cls-18" d="M336.11,77.09c0-.57,0-1.12.76-1.21A1.2,1.2,0,0,1,336.11,77.09Z" transform="translate(-95.22 -24.42)"/><path class="cls-19" d="M339.26,70.74c.13.14.26.27.4.4L338.5,72A1.21,1.21,0,0,1,339.26,70.74Z" transform="translate(-95.22 -24.42)"/><path class="cls-12" d="M97,345.13l1.25.77a1.43,1.43,0,0,1-1.63-.71A1.21,1.21,0,0,0,97,345.13Z" transform="translate(-95.22 -24.42)"/><path class="cls-12" d="M275.89,223.62a2.38,2.38,0,0,1-.74-1.62A1.38,1.38,0,0,1,275.89,223.62Z" transform="translate(-95.22 -24.42)"/><path class="cls-12" d="M362.24,57.69c-.07.28-.06.72-.5.58s-.28-.62-.3-1Z" transform="translate(-95.22 -24.42)"/><path class="cls-12" d="M361.45,54.52a1.17,1.17,0,0,1,.78-1.2C362.24,53.9,362.23,54.46,361.45,54.52Z" transform="translate(-95.22 -24.42)"/><path class="cls-12" d="M350.73,43.43a2.1,2.1,0,0,1-1.56.8A1.38,1.38,0,0,1,350.73,43.43Z" transform="translate(-95.22 -24.42)"/><path class="cls-12" d="M151.53,224.77c.06.58-.37.88-.71,1.23C150.8,225.44,150.75,224.86,151.53,224.77Z" transform="translate(-95.22 -24.42)"/><path class="cls-12" d="M322.66,114.3a2.3,2.3,0,0,1,.76-1.61A1.41,1.41,0,0,1,322.66,114.3Z" transform="translate(-95.22 -24.42)"/><path class="cls-12" d="M149.17,228.73c.1.62-.32,1-.69,1.37C148.44,229.51,148.3,228.86,149.17,228.73Z" transform="translate(-95.22 -24.42)"/><path class="cls-12" d="M279,230.86a2.69,2.69,0,0,1-.74-1.73C279.07,229.48,279.13,230.14,279,230.86Z" transform="translate(-95.22 -24.42)"/><path class="cls-12" d="M286.21,231.49a2.72,2.72,0,0,1-1.58.39C285.1,231.5,285.49,230.85,286.21,231.49Z" transform="translate(-95.22 -24.42)"/><path class="cls-12" d="M288.19,231.89a2.82,2.82,0,0,1-1.58-.39C287.33,230.84,287.73,231.5,288.19,231.89Z" transform="translate(-95.22 -24.42)"/><path class="cls-12" d="M164.68,212.11c-.47.36-.92.81-1.6.73A1.44,1.44,0,0,1,164.68,212.11Z" transform="translate(-95.22 -24.42)"/><path class="cls-12" d="M209.83,94.1c0-.66,0-1.31,0-2A1.39,1.39,0,0,1,209.83,94.1Z" transform="translate(-95.22 -24.42)"/><path class="cls-12" d="M241.05,52.92l-.77.38c0-.56,0-1.11.78-1.16C241.06,52.4,241.05,52.66,241.05,52.92Z" transform="translate(-95.22 -24.42)"/><path class="cls-12" d="M119.9,315a1.05,1.05,0,0,1-.77,1.14C119.12,315.62,119.15,315.09,119.9,315Z" transform="translate(-95.22 -24.42)"/><path class="cls-12" d="M280.62,234.85a2.81,2.81,0,0,1-.71-1.76C280.68,233.46,280.71,234.13,280.62,234.85Z" transform="translate(-95.22 -24.42)"/><path class="cls-12" d="M146,236.26a3,3,0,0,1-.66,1.71A1.47,1.47,0,0,1,146,236.26Z" transform="translate(-95.22 -24.42)"/><path class="cls-20" d="M268.06,95.29c0,.71-.09,1.33-.86,1.61C267.23,96.23,267.34,95.6,268.06,95.29Z" transform="translate(-95.22 -24.42)"/><path class="cls-12" d="M357.85,64.8a2.27,2.27,0,0,1,1.61-.77A1.42,1.42,0,0,1,357.85,64.8Z" transform="translate(-95.22 -24.42)"/><path class="cls-12" d="M328.17,101.63A2.22,2.22,0,0,1,329,100,1.39,1.39,0,0,1,328.17,101.63Z" transform="translate(-95.22 -24.42)"/><path class="cls-12" d="M346.82,69.15c0-.65,0-1.3,0-2a1.58,1.58,0,0,1,.38,0C347.11,67.84,347.43,68.58,346.82,69.15Z" transform="translate(-95.22 -24.42)"/><path class="cls-12" d="M126.65,307.13a1.4,1.4,0,0,1-1.19.79C125.51,307.13,126.07,307.12,126.65,307.13Z" transform="translate(-95.22 -24.42)"/><path class="cls-12" d="M230.76,68.38A2.37,2.37,0,0,1,230,70,1.39,1.39,0,0,1,230.76,68.38Z" transform="translate(-95.22 -24.42)"/><path class="cls-12" d="M321,118.25a2.79,2.79,0,0,1,.83-1.62C321.88,117.34,321.8,118,321,118.25Z" transform="translate(-95.22 -24.42)"/><path class="cls-12" d="M327.4,103.21a2.28,2.28,0,0,1,.77-1.59A1.39,1.39,0,0,1,327.4,103.21Z" transform="translate(-95.22 -24.42)"/><path class="cls-12" d="M317.88,126.18a2.53,2.53,0,0,1,.79-1.61A1.4,1.4,0,0,1,317.88,126.18Z" transform="translate(-95.22 -24.42)"/><path class="cls-12" d="M317.13,127.37a1.24,1.24,0,0,1,.75-1.2C317.89,126.73,317.91,127.3,317.13,127.37Z" transform="translate(-95.22 -24.42)"/><path class="cls-6" d="M237.53,472.31c1.79-2.46,2.84-5.32,4.4-7.89s2.83-5.08,5.84-6.1a2,2,0,0,1,2.34-1.34,159.56,159.56,0,0,1,16,2,3.76,3.76,0,0,1,1.9,1,4.59,4.59,0,0,1,2.8,3.35c1,3.37,2.56,6.51,3.87,9.75-1.06.72-1.81,1.8-2.7,2.49,1-.43,1.31-2,2.75-2.09l.75,1.6a4,4,0,0,1-1.91,2.17,34.65,34.65,0,0,1-9.78,4.61c-.82.29-1.69.42-2.51.72a15.94,15.94,0,0,1-1.71.47,8.33,8.33,0,0,0-2.1.42c-6.57,1.68-13.29,2.56-19.92,3.88a3.07,3.07,0,0,1-1.75-.08c-.4-.2-.67-.76-.36-.92,2.11-1.08,1.54-3.11,1.58-4.75a22,22,0,0,0-.28-6.26C236.49,474.2,237.17,473.27,237.53,472.31Z" transform="translate(-95.22 -24.42)"/><path class="cls-21" d="M235.53,486.85c4.23-.4,8.37-1.41,12.54-2.12,3.22-.54,6.41-1.21,9.62-1.83.19-.06.45,0,.47.16.12,1.28-.29,2.54-.21,3.83,0,.55-.66.52-1,.73l-.75.08c-1.05.35-2.24.08-3.21.76-8.23,2.3-16.44,4.82-25.14,4a13.5,13.5,0,0,1-8.63-3.89c-.52-.53-1.24-1-1-2,1.15-.59,2.31-.12,3.45,0a55,55,0,0,0,8.21.5c1.91,0,3.8.06,4.91,2.05-.41-.67-1.31-.93-1.27-1.88a2,2,0,0,1,1.25-.63A1.06,1.06,0,0,1,235.53,486.85Z" transform="translate(-95.22 -24.42)"/><path class="cls-22" d="M268,459.91c-5.41-1.18-10.93-1.53-16.41-2.23-1.29-.17-2.74-.58-3.85.64a19.49,19.49,0,0,0,0-8.53c2.83,1.33,5.76.94,8.63.3,3.63-.81,7.2-1.85,10.8-2.79A96.63,96.63,0,0,1,268,459.91Z" transform="translate(-95.22 -24.42)"/><path class="cls-6" d="M230.32,487.63a45.12,45.12,0,0,1-12.15-1.1c-.69-1.35.05-2.24,1-3a10.55,10.55,0,0,1,5-2.12,10,10,0,0,0,4.49-1.79,70.41,70.41,0,0,0,8.85-7.31c-.45,2.93.12,5.84.21,8.76.06,1.59-1,3.11-.17,4.76.14.26-.6.64-1.07.5s-.9-.13-1,.52l-.74,0a14.69,14.69,0,0,1-3.62.42A5.08,5.08,0,0,0,230.32,487.63Z" transform="translate(-95.22 -24.42)"/><path class="cls-21" d="M263.65,481.35c2.67-1.07,5.47-1.87,7.93-3.42,1.37-.87,2.62-1.94,3.92-2.92,2.44,5.81,2,6.82-3.89,9a20.4,20.4,0,0,1-4.74,1.35,4.8,4.8,0,0,0-2.83.74l-1.94.44c-.69.29-1.05.11-.8-.66a3.68,3.68,0,0,1,1.37-1.65A2.5,2.5,0,0,0,263.65,481.35Z" transform="translate(-95.22 -24.42)"/><path class="cls-23" d="M224.18,366c.28.28.6,1.89,1.51.41a6.12,6.12,0,0,1,.69,2.51" transform="translate(-95.22 -24.42)"/><path class="cls-23" d="M203.41,346.1a16,16,0,0,1-2.37-2.35c.93-.15,1.3.46,1.74.91" transform="translate(-95.22 -24.42)"/><path class="cls-24" d="M238,284c-1-1.16-2.08-1.23-3.21-.19,0-5.27.35-10.54-.06-15.82.89,1.89.29,4,.83,5.92a2.55,2.55,0,0,1,.41,2.42,21.51,21.51,0,0,0-.16,3.93,1.54,1.54,0,0,0,.93,1.57c2,.84,3.13,2.68,4.66,4.06.28.25.59.64.1,1-.28.19-.62,0-.88-.23" transform="translate(-95.22 -24.42)"/><path class="cls-25" d="M263.65,481.35c1.34.93,1,1.77-.09,2.66a18.79,18.79,0,0,0-1.79,1.78c-.47.49-.08.62.33.72a3.88,3.88,0,0,1-2.27.43.8.8,0,0,1-.53,0c-.21-1.52,1.11-2.09,1.93-2.89s.85-1.33,0-2Z" transform="translate(-95.22 -24.42)"/><path class="cls-26" d="M234.74,288.89a1.24,1.24,0,0,0-.26,1.43A5.65,5.65,0,0,1,233.2,296q.75-5.6,1.49-11.18c0,.82.06,1.63.1,2.45C235,287.84,235.25,288.38,234.74,288.89Z" transform="translate(-95.22 -24.42)"/><path class="cls-27" d="M259.25,486.81l.58.13a6.56,6.56,0,0,1-2.92.68c.24-.29.75-.71.69-.84-.67-1.33.36-2.59.09-3.88.58-.53,1.31-.32,2-.4C259.58,483.94,258.59,485.29,259.25,486.81Z" transform="translate(-95.22 -24.42)"/><path class="cls-1" d="M166.13,357.06l-7.38,7.36.34.35,7.41-7.33Z" transform="translate(-95.22 -24.42)"/><path class="cls-28" d="M274.75,473.41l-3.68,3.34c1-1.49,1.87-3.06,3.63-3.74C274.72,473.14,274.73,473.28,274.75,473.41Z" transform="translate(-95.22 -24.42)"/><path class="cls-29" d="M264,486.07c.78-.41.74-1.29,1.13-2.18.56.62.69,1.67,1.7,1.44A6.09,6.09,0,0,1,264,486.07Z" transform="translate(-95.22 -24.42)"/><path class="cls-30" d="M253,488.46c.83-1.28,2.09-.72,3.21-.76A7.15,7.15,0,0,1,253,488.46Z" transform="translate(-95.22 -24.42)"/><path class="cls-31" d="M146.06,308.32a1.44,1.44,0,0,1,.76-1.6A2.13,2.13,0,0,1,146.06,308.32Z" transform="translate(-95.22 -24.42)"/><path class="cls-32" d="M133.75,285.33l.17-.75c1.71-.5,1.9-.76,2-3-.69.69-1.47,1.72-1.81,0a1.36,1.36,0,0,1,.45-1.34l.69-2.83.14-.7a1,1,0,0,0,.32-.15,4.53,4.53,0,0,0,1.08,3.4c1.84,2.08.67,5.49-2,6.37C133.79,286.71,133.81,286,133.75,285.33Z" transform="translate(-95.22 -24.42)"/><path class="cls-4" d="M258.11,268.73a2.08,2.08,0,0,1-1.36,1.76c-.88.36-2.06.62-2.69-.26s.54-1.28,1-1.8a19.83,19.83,0,0,1,1.85-1.69c.13.41-.69,1.32.6,1.1C258.37,267.68,258,268.38,258.11,268.73Z" transform="translate(-95.22 -24.42)"/><path class="cls-33" d="M152.54,293.69c-.56.36-.41,1.05-.7,1.53-.59-1.86-2.23-2.84-3.46-4.15a34.87,34.87,0,0,1-3.07-3.24c2,.81,3.24,2.45,4.66,3.88A5.89,5.89,0,0,0,152.54,293.69Z" transform="translate(-95.22 -24.42)"/><path class="cls-34" d="M135.82,275.85c-.31-.85.48-1.55.32-2.38a.16.16,0,0,1,.18.06,7.21,7.21,0,0,0,4.19,2.71h0c-.63,1.56-1.66,1.76-3,.86C136.92,276.71,136.38,276.27,135.82,275.85Z" transform="translate(-95.22 -24.42)"/><path class="cls-35" d="M159.05,252.65c1.18-1.35,2.68-2.77,4.09-4.29Z" transform="translate(-95.22 -24.42)"/><path class="cls-36" d="M163.13,248.26l3.38-3.21A12.19,12.19,0,0,1,163.13,248.26Z" transform="translate(-95.22 -24.42)"/><path class="cls-37" d="M294.59,115.23l.33-.14c.53.81.55,1.83,1.22,2.6s-.32,1.28-.37,2c-.38.67-.48,1.63-1.59,1.55a3.37,3.37,0,0,1-2.37-.35c-.71-.75-.31-1.46.09-2.14.57-1,1.23-1.85,1.75-2.84C293.88,115.53,294.12,115.21,294.59,115.23Z" transform="translate(-95.22 -24.42)"/><path class="cls-38" d="M278.72,133.72c1-1.36,2.54-2,3.72-3.14,1-1,1.22.42,1.79.75-1.59,1.8-2.9,4.06-5.89,3.53C278,134.34,278.37,134,278.72,133.72Z" transform="translate(-95.22 -24.42)"/><path class="cls-39" d="M295.77,119.65c0-.84.54-1.73-.6-2.38-.85-.49-.14-1.44-.25-2.18l.06-.61a.47.47,0,0,1,.35-.44c1.39.16,2.48.7,2.75,2.23A17.73,17.73,0,0,1,295.77,119.65Z" transform="translate(-95.22 -24.42)"/><path class="cls-9" d="M226.85,144.51l8,8.12a4.18,4.18,0,0,0,1.18,1q-4.56-4.58-9.13-9.14Z" transform="translate(-95.22 -24.42)"/><path class="cls-40" d="M307.22,101.69l3.62-6.75c0,.12,0,.24,0,.36l-.48.82c-.23.34-.2.85-.68,1a2,2,0,0,0-1.08,2.16,1.34,1.34,0,0,1-.67,1.12l-.73.87" transform="translate(-95.22 -24.42)"/><path class="cls-41" d="M304.84,100.33c.14-.08.48-.11.51,0a1,1,0,0,1,.15.71,1.73,1.73,0,0,0,.54,2.25l0,.39c.11.41-.09.64-.46.77a1.73,1.73,0,0,1-.32.11c-.28-.36-.53-.74-.84-1.07" transform="translate(-95.22 -24.42)"/><path class="cls-42" d="M309.16,107.29c-.38.37-.74.11-1-.18-.85-.89-1.69-1.8-2.53-2.71l.46-.77" transform="translate(-95.22 -24.42)"/><path class="cls-43" d="M291.87,120.59a3.19,3.19,0,0,1,2.31.61,2.12,2.12,0,0,1-1.63,2.22c.21-1.35-1.14-1.81-1.59-2.78l.19-.18A.75.75,0,0,1,291.87,120.59Z" transform="translate(-95.22 -24.42)"/><path class="cls-44" d="M275.51,135.37l.41-.1c.16-.17.29-.14.4.06l-5.59,5.25C272.14,138.5,274.11,137.18,275.51,135.37Z" transform="translate(-95.22 -24.42)"/><path class="cls-45" d="M240.29,191.53c-.89,1-2.06.77-3.19.74C237.87,190.79,239.23,191.79,240.29,191.53Z" transform="translate(-95.22 -24.42)"/><path class="cls-46" d="M260.89,192.28c-1-.08-2.12.42-2.81-.75C259,191.75,260.26,190.87,260.89,192.28Z" transform="translate(-95.22 -24.42)"/><path class="cls-47" d="M260.07,138.44c.89-1,2.06-.77,3.19-.76C262.37,138.67,261.2,138.45,260.07,138.44Z" transform="translate(-95.22 -24.42)"/><path class="cls-48" d="M278.72,133.72c-.13.38-.25.76-.38,1.14-.43.58-1,.39-1.63.4a1.54,1.54,0,0,1,1.57-1.56Z" transform="translate(-95.22 -24.42)"/><path class="cls-49" d="M278.28,133.7a4.43,4.43,0,0,0-1.57,1.56l-.39.07-.4-.06c.6-.66,1.17-1.36,1.83-2C278.16,133,278.25,133.36,278.28,133.7Z" transform="translate(-95.22 -24.42)"/><path class="cls-50" d="M238.7,66.4a2.73,2.73,0,0,1,2.39.77C240.28,67,239.13,67.79,238.7,66.4Z" transform="translate(-95.22 -24.42)"/><path class="cls-51" d="M269.56,136.84c.33-1.19,1.29-.63,2-.74C271.13,137,270.34,136.9,269.56,136.84Z" transform="translate(-95.22 -24.42)"/><path class="cls-52" d="M252.92,135.26v1.64C251.83,136.35,251.84,135.81,252.92,135.26Z" transform="translate(-95.22 -24.42)"/><path class="cls-53" d="M263.28,193.07c-.65,0-1.44.27-1.62-.75C262.3,192.35,263.08,192.07,263.28,193.07Z" transform="translate(-95.22 -24.42)"/><path class="cls-54" d="M253.74,137.67c.63.05,1.42-.25,1.61.75C254.7,138.41,253.92,138.69,253.74,137.67Z" transform="translate(-95.22 -24.42)"/><path class="cls-55" d="M243.79,386.88" transform="translate(-95.22 -24.42)"/><path class="cls-55" d="M242.78,386.81" transform="translate(-95.22 -24.42)"/><path class="cls-55" d="M241.41,387.93" transform="translate(-95.22 -24.42)"/><path class="cls-55" d="M238.85,392.86" transform="translate(-95.22 -24.42)"/><path class="cls-55" d="M243.32,396" transform="translate(-95.22 -24.42)"/><path class="cls-2" d="M236.72,281.78c-1.17.16-1.67-.31-1.57-1.53.17-2.12.27-4.26.39-6.39,1.39-.69,1.62.2,1.56,1.24C237,277.32,237.65,279.6,236.72,281.78Z" transform="translate(-95.22 -24.42)"/><path class="cls-56" d="M251.87,385.45" transform="translate(-95.22 -24.42)"/><path class="cls-57" d="M234.17,391.6l1.32,3.48,5,3.53c.32.26.67.46,1.05.18s.23-.56.09-.88" transform="translate(-95.22 -24.42)"/><path class="cls-57" d="M237.29,395.54a2.58,2.58,0,0,0-1.8-.46,1.24,1.24,0,0,1-.37-1.19" transform="translate(-95.22 -24.42)"/><path class="cls-58" d="M268.4,297.63a1.55,1.55,0,0,1-.34,1.26c-3.12-3.19-6.25-6.37-9.34-9.58a2.86,2.86,0,0,1-1.3-2.11c3.17,3.18,6.05,6.09,9,9C267,296.77,267.43,297.57,268.4,297.63Z" transform="translate(-95.22 -24.42)"/><path class="cls-35" d="M265.59,407.28l0,.82-8.16-8.73.07-.08Z" transform="translate(-95.22 -24.42)"/><path class="cls-59" d="M236.32,400.59l.06-1.35a1.49,1.49,0,0,1,.38,1.19c-.07.2-.15.39-.22.58Z" transform="translate(-95.22 -24.42)"/><path class="cls-60" d="M275.81,131.2c-4.37,1.33-8.8,2.48-13.18,0-2.29-1.31-3.12-3.56-3.42-6.74C263.31,131.32,269.85,130.33,275.81,131.2Z" transform="translate(-95.22 -24.42)"/><path class="cls-61" d="M296.12,112.73l-.81,1.57-.33.18a7.29,7.29,0,0,1,2.49-7.32s.13,0,.15.09a2.36,2.36,0,0,1,.1.38l0,1.13A4.74,4.74,0,0,1,296.12,112.73Z" transform="translate(-95.22 -24.42)"/><path class="cls-62" d="M319.87,94.14c.83,1.51-.56,1.64-1.34,2a2.19,2.19,0,0,1-2.35-.47.4.4,0,0,1,.12-.66c.84-.47,1.25-1.58,2.36-1.65C319.28,93.27,319.46,93.88,319.87,94.14Z" transform="translate(-95.22 -24.42)"/><path class="cls-12" d="M360.27,59.25c-.27.15-.53.31-.79.47-.54-.88.56-1.29.29-2.45C360.47,58.17,360.18,58.74,360.27,59.25Z" transform="translate(-95.22 -24.42)"/><path class="cls-63" d="M260.24,373.68c-.36.33-.66,1.05-1.2.78s-.57-1-.56-1.6" transform="translate(-95.22 -24.42)"/><path class="cls-3" d="M230.58,177.07a3.34,3.34,0,0,1,3.33,3.55,3.12,3.12,0,0,1-3.41,2.57,3.18,3.18,0,0,1-2.88-3.72A2.67,2.67,0,0,1,230.58,177.07Z" transform="translate(-95.22 -24.42)"/><path class="cls-5" d="M252.16,43.37c0-2,2.22-3.67,3.86-2.92.36.16,1.11.41.48.91-1,.82-1.71,2-2.69,2.79-.35.29-.77.9-1.33.61S252.25,43.81,252.16,43.37Z" transform="translate(-95.22 -24.42)"/><path class="cls-64" d="M134.84,285c-.54.22-.66-.18-.92-.43,0-.13-.08-.26-.13-.39a2.91,2.91,0,0,0,.36-2l.36-.5c.14.16,0,.86.47.36a5.05,5.05,0,0,0,.62-1.57" transform="translate(-95.22 -24.42)"/><path class="cls-10" d="M317,90.53c.08.44,0,.93.45,1.24,0,.83-.68,1.25-1.2,1.73s-.7,1.19-1.4.69a1.39,1.39,0,0,1-.44-1.78C315,91.42,315.22,89.82,317,90.53Z" transform="translate(-95.22 -24.42)"/><path class="cls-65" d="M199.81,214.65c-1.13,0-2.25-.19-2-.86a2.47,2.47,0,0,1,2.75-1.68c.61.08,1.8-.39,1.59.75A2.32,2.32,0,0,1,199.81,214.65Z" transform="translate(-95.22 -24.42)"/><path class="cls-66" d="M197.52,212.11c-.4.62-.8,1.21-1.19,0A1,1,0,0,1,197.52,212.11Z" transform="translate(-95.22 -24.42)"/><path class="cls-65" d="M197.52,212.11h-1.19c.19-.81.91-.12,1.28-.45a.26.26,0,0,1,.32,0Z" transform="translate(-95.22 -24.42)"/><path class="cls-67" d="M345.6,67.18a26.68,26.68,0,0,1-4,.84c-.91,0-1.64.42-1.6,1.53h-.37c0-.26,0-.53,0-.79-.1-1.5,0-3,1.74-3.47S344.77,65.28,345.6,67.18Z" transform="translate(-95.22 -24.42)"/><path class="cls-68" d="M140.51,276.24c-3.19,0-3.49-.2-4.19-2.71l.27-1.25A8.16,8.16,0,0,1,140.51,276.24Z" transform="translate(-95.22 -24.42)"/><path class="cls-69" d="M258.68,380.38c-.84,1.17-1.59,2.46-3.34,2.36a1.55,1.55,0,0,1-1.36-.65c-.28-.5.25-.82.57-1.12,1-1,2.09-2,3.14-3l.39.38Z" transform="translate(-95.22 -24.42)"/><path class="cls-70" d="M259.25,486.81c-1.72-1.62-.53-2.95.43-4.31l1.54-.41c.65.05,1.48,0,1.74.66s-.64.84-1,1.24C261.1,485,260.16,485.87,259.25,486.81Z" transform="translate(-95.22 -24.42)"/><path class="cls-71" d="M230.32,487.63l.46-.35a3.81,3.81,0,0,1,2.78.05l2.32,2.61C234.14,488.83,232.74,487.06,230.32,487.63Z" transform="translate(-95.22 -24.42)"/><path class="cls-6" d="M233.56,487.33l-2.78-.05c1.27-.81,2.67-.24,4-.38Z" transform="translate(-95.22 -24.42)"/><path class="cls-2" d="M184.05,223.41c0-1.84.93-2.64,2.89-2.61a2.91,2.91,0,0,1,3.06,3c0,1.92-1.08,3-2.91,2.9A3.08,3.08,0,0,1,184.05,223.41Z" transform="translate(-95.22 -24.42)"/><path class="cls-2" d="M177.73,236.16a2.74,2.74,0,0,1-2.61,3.05c-1.77,0-3.69-1.65-3.67-3.22a3,3,0,0,1,2.93-2.9A3.1,3.1,0,0,1,177.73,236.16Z" transform="translate(-95.22 -24.42)"/><path class="cls-72" d="M252.16,267.48c0-2,2-3.6,3.73-3,.69.25,1.25.53.3,1.29s-1.58,1.55-2.4,2.29c-.35.32-.6,1-1.23.7S252.22,267.85,252.16,267.48Z" transform="translate(-95.22 -24.42)"/><path class="cls-72" d="M258.49,260.92c-.08-1.5.92-2.21,2.11-2.72a1.79,1.79,0,0,1,2.32.42c.43.72-.7.89-1.06,1.36a13.61,13.61,0,0,1-1.64,1.67c-.37.34-.67,1-1.22.83S258.54,261.49,258.49,260.92Z" transform="translate(-95.22 -24.42)"/><path class="cls-73" d="M143.4,264.77a1.53,1.53,0,0,1,1.44.47c.37.62-.39.86-.7,1.21-.75.83-1.57,1.59-2.36,2.38s-1.1.48-1.27-.45A3,3,0,0,1,143.4,264.77Z" transform="translate(-95.22 -24.42)"/><path class="cls-73" d="M151.58,259.23l-3.26,3c-.29.27-.61.54-1,.37s-.38-.61-.44-1a2.63,2.63,0,0,1,1.26-2.84A2.56,2.56,0,0,1,151.58,259.23Z" transform="translate(-95.22 -24.42)"/><path class="cls-3" d="M246.21,167.87a3,3,0,0,1-3,3,3.68,3.68,0,0,1-3.35-3.26,3,3,0,0,1,3-3A3.71,3.71,0,0,1,246.21,167.87Z" transform="translate(-95.22 -24.42)"/><path class="cls-74" d="M263.35,146.86c-1.21,1.07-2.37,2-3.43,3.08-.9.9-1.21.34-1.37-.48a3.07,3.07,0,0,1,1.35-3.07C260.89,145.6,261.93,145.65,263.35,146.86Z" transform="translate(-95.22 -24.42)"/><path class="cls-3" d="M252.11,154.88c-.1-1.06.85-1.82,2-2.36a1.81,1.81,0,0,1,2.34.33c.39.61-.61,1-1,1.46a16.45,16.45,0,0,1-1.67,1.67c-.36.33-.62,1-1.23.76S252.19,155.85,252.11,154.88Z" transform="translate(-95.22 -24.42)"/><path class="cls-75" d="M289.36,126.57c-1.05-.23-1.66,1-2.76.75a3.37,3.37,0,0,1-2.88-4.11,2.74,2.74,0,0,1,3.16-2.13,3.14,3.14,0,0,1,2.76,4.14c-.1.44-.18.89-.27,1.33Z" transform="translate(-95.22 -24.42)"/><path class="cls-76" d="M308,100.42c.15-.38.3-.77.46-1.15.15-.89.13-1.88,1.25-2.24l.72-.91c2.39.93,2.44,1,.47,2.79C310.06,99.62,309.63,101.32,308,100.42Z" transform="translate(-95.22 -24.42)"/><path class="cls-77" d="M296.12,112.73l1.57-4c1.72-.36,3.13,0,4,1.66a5.34,5.34,0,0,1-2.41,4.28c-.09,0-.19.06-.28.09A3,3,0,0,1,296.12,112.73Z" transform="translate(-95.22 -24.42)"/><path class="cls-78" d="M299.29,114.7l2.41-4.28.33-.12C302.07,113.62,301.73,114.17,299.29,114.7Z" transform="translate(-95.22 -24.42)"/><path class="cls-79" d="M291,120.64a1.21,1.21,0,0,0-.15-1.58,2.5,2.5,0,0,1,.11-3.67c1.24-1.23,2.22-.33,3.19.49-.25,1.18-1.12,2-1.69,3-.3.52-1,.93-.55,1.7Z" transform="translate(-95.22 -24.42)"/><path class="cls-80" d="M309.66,97l-1.25,2.24C307.79,97.94,308.08,97.13,309.66,97Z" transform="translate(-95.22 -24.42)"/><path class="cls-21" d="M242.83,276.77a3.45,3.45,0,0,1,3.36,3.39,3,3,0,0,1-3,2.8,3.37,3.37,0,0,1-3.3-3.41A2.83,2.83,0,0,1,242.83,276.77Z" transform="translate(-95.22 -24.42)"/><path class="cls-81" d="M243.29,395a3.67,3.67,0,0,1-3.37-3.48,3,3,0,0,1,3-2.84,3.57,3.57,0,0,1,3.2,3.35A3.1,3.1,0,0,1,243.29,395Z" transform="translate(-95.22 -24.42)"/><path class="cls-82" d="M257.22,377.35c-1.4,1.23-2.52,2.23-3.67,3.2a1.26,1.26,0,0,1-.87.32c-.43-.1-.47-.56-.52-1a2.74,2.74,0,0,1,1.08-2.78C254.39,376.33,255.52,376.36,257.22,377.35Z" transform="translate(-95.22 -24.42)"/><path class="cls-2" d="M236.18,250.78c.27,1.75,10,33.37,10,33.37l27.18-20.79-10.9-18Z" transform="translate(-95.22 -24.42)"/><polygon class="cls-2" points="165.55 360.73 161.13 350.04 153.97 350.82 155.87 359.81 165.02 361.72 165.55 360.73"/><polygon class="cls-2" points="94.79 192.4 116.94 194.75 113.21 187.61 97.94 186.82 94.79 192.4"/><polygon class="cls-2" points="42.16 243.2 38.03 262.7 42.16 263.4 49.27 245.3 42.16 243.2"/><polygon class="cls-3" points="130.41 156.78 132.7 161.12 140.82 161.12 141.88 151.64 134.35 150.86 129.21 155.21 130.41 156.78"/><polygon class="cls-7" points="203.46 81.63 202.48 84.33 199.7 90.67 202.04 92.42 204.07 90.28 207.28 84.76 209.22 81.57 205.44 77.2 203.46 81.63"/><polygon class="cls-3" points="189.98 105.31 192.25 103.8 193.88 106.3 192.36 107.29 190.43 105.55 189.98 105.31"/><polygon class="cls-5" points="196.53 99.78 190.86 105 185.42 100.14 191.48 93.83 196.53 99.78"/><polygon class="cls-5" points="196.11 96.03 199.76 90.05 195.21 89.07 191.48 92.21 196.11 96.03"/><polygon class="cls-3" points="202.87 91.55 207.28 84.76 212.01 86.9 210.88 93.29 202.87 91.55"/><polygon class="cls-3" points="207.61 84.21 211.69 78.79 216.43 82.34 210.6 85.67 207.61 84.21"/><path class="cls-3" d="M315.65,97s.43,7.22-.52,7.26S308,104,308,104l-1.07-1.86,4-7.19Z" transform="translate(-95.22 -24.42)"/><polygon class="cls-7" points="210.88 77.26 209.23 75.61 208.22 77.2 210.08 80.08 210.88 77.26"/><polygon class="cls-7" points="212.32 76.81 216.07 69.92 211.46 69.92 211.66 74.84 212.32 76.81"/><path class="cls-3" d="M312.93,91.22l1.36-2,2-.69.62-.19,2.76,1.8-1.31,2.41.12.82,2.08,1.43.88.13s.53,3,0,2.87-7.38,1-7.56.8S312.93,91.22,312.93,91.22Z" transform="translate(-95.22 -24.42)"/><path class="cls-3" d="M319.68,90.13s-.74,3,10,4.78c-.13.74-5.47,2.3-5.85,2.18s-6.92-2.58-6.91-3S318,89.22,318,89.22l1.52.73Z" transform="translate(-95.22 -24.42)"/><polygon class="cls-5" points="244.04 46.32 244.91 44.45 246.19 41.61 250.38 42.76 251.23 42.66 250.38 40 245.62 38.55 240.53 43.38 244.04 46.32"/><path class="cls-5" d="M347.18,66l2.4.42,2.54-1.61s2.29-3.12,2.18-3.4A37,37,0,0,0,350,58.3c-.67-.38-7.56-7.33-6.8-1S347.18,66,347.18,66Z" transform="translate(-95.22 -24.42)"/><polygon class="cls-3" points="134.38 49.7 135.77 42.8 138.59 38.61 142.23 43.96 138.31 50.7 134.38 49.7"/><polygon class="cls-5" points="141.58 41.44 138.59 38.61 139.21 37.17 142.3 32.88 151.29 20.69 157.14 14.76 161.14 12.88 163.85 16.72 162.19 24.79 152.06 40.58 141.58 41.44"/></svg>