<svg id="Camada_1" data-name="Camada 1" xmlns="http://www.w3.org/2000/svg" xmlns:xlink="http://www.w3.org/1999/xlink" viewBox="0 0 402.93 403.98"><defs><style>.cls-1{fill:url(#Gradiente_sem_nome_2);}.cls-2,.cls-3{fill:none;}.cls-2,.cls-3,.cls-4{stroke:#000;}.cls-2{stroke-width:8.11px;}.cls-3,.cls-4{stroke-width:2.99px;}.cls-4{fill:#043b7d;}.cls-5{fill-rule:evenodd;}</style><radialGradient id="Gradiente_sem_nome_2" cx="-208.05" cy="301.91" r="116.61" gradientTransform="matrix(0.53, -1.98, -2.06, -0.55, 897.5, -99.67)" gradientUnits="userSpaceOnUse"><stop offset="0" stop-color="#fffb26" stop-opacity="0.97"/><stop offset="0.6" stop-color="#fde01a"/><stop offset="1" stop-color="#e1b401"/></radialGradient></defs><title>handball</title><path class="cls-1" d="M454.65,241.88c.74,109.38-87.33,198.65-196.71,199.39S59.29,353.94,58.55,244.56v-2.68C57.81,132.5,145.88,43.23,255.26,42.49S453.91,129.82,454.65,239.2v2.68Z" transform="translate(-54.94 -41.04)"/><path class="cls-2" d="M453.81,243c.54,108.77-87.4,197.39-196.42,197.93S59.54,353.77,59,245v-2C58.46,134.26,146.4,45.64,255.42,45.1s197.85,87.2,198.39,196v2Z" transform="translate(-54.94 -41.04)"/><path class="cls-3" d="M212.18,231.47C200.28,258,191.43,284,186.37,311.73" transform="translate(-54.94 -41.04)"/><path class="cls-3" d="M292.51,229.67c11.46,28.76,20.25,52.49,26.34,83.73" transform="translate(-54.94 -41.04)"/><path class="cls-3" d="M103.7,180.11c26.41-8.91,47.52-12.92,70.31-13.37" transform="translate(-54.94 -41.04)"/><path class="cls-3" d="M106.3,128.57c20.27-30.15,45.13-42.68,73.54-50.82" transform="translate(-54.94 -41.04)"/><path class="cls-3" d="M329.93,76.73c43.29,13.55,55.2,27.92,73.37,49.74" transform="translate(-54.94 -41.04)"/><path class="cls-3" d="M331.53,168.72c26.86-.41,47.89,1.63,70.51,10" transform="translate(-54.94 -41.04)"/><path class="cls-3" d="M426.82,254.86c-8.55,24.78-18.89,47.13-46.71,68.86" transform="translate(-54.94 -41.04)"/><path class="cls-3" d="M382.68,376.63c13.94.09,20-7.61,31.88-15.51" transform="translate(-54.94 -41.04)"/><path class="cls-3" d="M317.93,421.83c-.65,5.36-.59,5.11-2.28,9.64" transform="translate(-54.94 -41.04)"/><path class="cls-3" d="M191.8,417.31c2.5,6.65,4.57,10.34,8.81,14.95" transform="translate(-54.94 -41.04)"/><path class="cls-3" d="M125.37,374.1c-10.73-2.17-16.2-5.74-26.71-12.42" transform="translate(-54.94 -41.04)"/><path class="cls-3" d="M80.74,253q15.17,45.64,44.46,68.06" transform="translate(-54.94 -41.04)"/><path class="cls-3" d="M446.13,267c2.18,8.5,2.81,8.16,2.86,19.39" transform="translate(-54.94 -41.04)"/><path class="cls-4" d="M169.35,167.1a492.72,492.72,0,0,0,41.92,67.08c17.44-2.91,50.1-2.15,82.46-1.48,14.43-20.6,29.47-44,40.55-64.24-4.92-17-13.17-34.75-38.81-64-30.31-5-57.93-2.79-83.72,1.15-19.26,18.38-32.24,38.27-42.4,61.5Z" transform="translate(-54.94 -41.04)"/><path class="cls-4" d="M122.83,319c23.29.13,43.79-4.77,64.11-10,22.76,24.72,46.59,39.17,65.79,47.65l2,54.24c-13.24,9.38-34.61,11.93-61.15,10.16-30.46-8.17-51.5-26.6-70.24-47.54-5.44-24.34-3.8-40.39-.51-54.51Z" transform="translate(-54.94 -41.04)"/><path class="cls-4" d="M317.88,310.15c18.92,6.67,40.74,10.44,66.35,10.43,5.4,18.47,7.46,37,1.37,55.8-20.76,24.81-43.06,41.37-67.46,46.76-22.91,2.75-44.1-1.1-63.36-12.33l-2-54.33a178.13,178.13,0,0,0,65.12-46.33Z" transform="translate(-54.94 -41.04)"/><path class="cls-4" d="M401.44,124.37c6.67,19.56,5,36.92-1,53.8,15.77,24.84,26,51.18,25.15,80.55,7.53,2.44,15.28,3.37,21.66,13.93,15.52-38.53-.57-106.73-31.8-145.16Z" transform="translate(-54.94 -41.04)"/><path class="cls-4" d="M175.86,79.19a81.05,81.05,0,0,1,36.08,26.66c28.85-5.43,56.65-5.95,83.36-1.29,8.74-11.2,22.76-19.26,38.33-26.41-4.87-8.82-10.32-18.59-24.46-24.46C275.4,44.16,241.94,44,210,52.2c-20.39,5.7-27,16.66-34.1,27Z" transform="translate(-54.94 -41.04)"/><path class="cls-4" d="M107.17,179.17c-3.63-15.59-6.14-31.82,1.59-54L95,130.58c-31.37,42.59-39.64,96.78-33.43,138.8C68,262,74.89,258.54,81.88,255.94c.72-27.9,6.44-54.3,25.29-76.77Z" transform="translate(-54.94 -41.04)"/><path class="cls-5" d="M167.79,165.12c-24.64,1.19-42.69,6.24-59.22,11.39,0,3.23.54,2.14.54,3.44,23.69-6.69,29.34-8.16,58.44-11.68Z" transform="translate(-54.94 -41.04)"/><path class="cls-5" d="M174.12,77.8c-10,2-49,16.48-65.79,45.73l2.35,1.57C131,95.55,169.15,82,174.89,80.67Z" transform="translate(-54.94 -41.04)"/><path class="cls-5" d="M179.12,78.51c8.93,4.25,19.38,8,33.2,25.25l-3,1.29c-17.24-19.62-29.18-21.25-33.08-24Z" transform="translate(-54.94 -41.04)"/><path class="cls-5" d="M209.06,104.3c-13.5,13.07-34.85,38.28-40.32,64.53l2.79.18c8.21-28.27,30.38-53.41,41.85-64.71" transform="translate(-54.94 -41.04)"/></svg>