<svg id="Camada_1" data-name="Camada 1" xmlns="http://www.w3.org/2000/svg" viewBox="0 0 458.04 458.02"><defs><style>.cls-1{fill:#b2e596;}.cls-2{fill:#fefefe;}</style></defs><title>peteca</title><path d="M32.21,370.38c2-2.93,1.6-6.46,2.32-9.69,4.2-18.87,13.51-34.8,27.13-48.35,2.11-2.1,4.08-4.38,6.35-6.3,16.66-14.08,27.82-31.88,37.6-51.28,38.28-75.9,77.42-151.36,116.19-227,2.26-4.42,4.83-8.27,10.27-8.85,5.66-.61,9.92,2.77,12.12,9.63C249.6,45.37,255,62.19,260.28,79.07a7.28,7.28,0,0,0,5.48,5.48c16.47,5.07,32.8,10.6,49.29,15.6,6.16,1.87,9.74,5.3,11.62,11.53,5.08,16.78,10.68,33.39,15.92,50.12a6.18,6.18,0,0,0,4.61,4.63c16.87,5.28,33.66,10.84,50.56,16,5.65,1.73,9,4.94,10.8,10.65,5.21,16.89,10.82,33.66,16.07,50.54a6.58,6.58,0,0,0,4.88,5q25.73,8,51.39,16.36c9,2.91,12.12,11.62,6.64,18-1.69,2-4,3-6.26,4.19L334.93,362.33Q282,389.51,229,416.67a24.18,24.18,0,0,0-6.1,4.41c-10.23,10.22-20.29,20.62-30.84,30.5A89.82,89.82,0,0,1,138.24,476c-.62.06-1.16.13-1.36.82H117.2a82.76,82.76,0,0,1-38.63-12.31c-23-13.87-37.77-34-44.64-60-1.11-4.18-.56-8.55-1.72-12.7Z" transform="translate(-32.21 -18.83)"/><path class="cls-1" d="M230.8,58.12c3.5,10.91,6.64,20.79,9.84,30.65.73,2.24-.74,3.67-1.72,5.27q-36.13,59-72.32,118c-4.08,6.67-4,11.76.17,15.85a10.47,10.47,0,0,0,16.31-1.45c3-4.24,5.58-8.8,8.31-13.24q32.09-52.35,64.08-104.75c1.8-3,3.21-3.59,6.59-2.44,13.5,4.59,27.13,8.83,40.76,13.06a6.59,6.59,0,0,1,5,4.89q6.7,21.74,13.87,43.32c.86,2.61.55,4.24-1.45,6.2q-17.38,17.1-34.49,34.46c-6.13,6.22-5.83,13.72.51,17.92a9.69,9.69,0,0,0,11.28.13,35.72,35.72,0,0,0,5.73-4.93c10.79-10.72,21.58-21.43,32.23-32.29,2-2,3.61-2.31,6.21-1.45q21.58,7.14,43.31,13.88a6.62,6.62,0,0,1,4.92,4.94q6.51,20.85,13.34,41.61c.82,2.49.47,3.82-1.92,5.29q-98.9,60.41-197.64,121c-2.14,1.31-3.33,1.41-5.18-.51q-10.38-10.8-21.19-21.2c-2.36-2.26-2-3.45.14-5.56q44.39-44.17,88.59-88.53a31.35,31.35,0,0,0,4.05-4.73,10.57,10.57,0,0,0-14.6-14.71,29.89,29.89,0,0,0-4.75,4q-44.15,44.1-88.19,88.3c-2.66,2.69-4,2.61-6.53-.06-6.55-6.94-13.34-13.65-20.23-20.25-2.11-2-2.35-3.36-.76-5.89,8.4-13.36,16.61-26.83,24.8-40.31,3.67-6,3.13-11.47-1.27-15.38a10.44,10.44,0,0,0-14.16.26,26.89,26.89,0,0,0-3.79,4.94c-7.19,11.65-14.31,23.36-21.51,35-.56.9-.9,3.3-2.64,1.74-1.32-1.18-4-2-3-4.75a19.54,19.54,0,0,1,1-2L228.82,61.85C229.3,60.93,229.79,60,230.8,58.12Z" transform="translate(-32.21 -18.83)"/><path class="cls-2" d="M124.54,455.05c-28.34-1.46-51.89-15.69-64.29-44.73-12-28.19-7.32-54.88,12.88-78.18,7.51-8.65,16.15-16.3,24.07-24.6,2.12-2.22,3.13-1.49,4.87.26q22.83,23,45.81,45.88c17.7,17.7,35.37,35.45,53.17,53.06,2.21,2.19,2.24,3.37,0,5.52-8.28,7.94-16.11,16.36-24.58,24.09C162.7,448.93,146.14,454.75,124.54,455.05Z" transform="translate(-32.21 -18.83)"/><path class="cls-1" d="M451,278.27,387.37,311q-81.14,41.65-162.3,83.25c-1.39.71-2.66,2.52-4.74,1.13-3.68-2.45-3.7-3.73.14-6.08q97.44-59.71,194.84-119.46a7.51,7.51,0,0,1,7.05-.78C431.47,272.14,440.67,275,451,278.27Z" transform="translate(-32.21 -18.83)"/></svg>