<svg id="Camada_1" data-name="Camada 1" xmlns="http://www.w3.org/2000/svg" viewBox="0 0 409.64 409.5"><defs><style>.cls-1{fill:#8d0000;}.cls-2{fill:#a63838;}.cls-3{fill:#981717;}.cls-4{fill:#ba6464;}.cls-5{fill:#be6e6e;}.cls-6{fill:#f02525;}.cls-7{fill:#f12b2b;}.cls-8{fill:#fc7c7c;}.cls-9{fill:#f12d2d;}.cls-10{fill:#f12828;}.cls-11{fill:#ee2727;}.cls-12{fill:#f85858;}.cls-13{fill:#ee3030;}.cls-14{fill:#f23d3d;}.cls-15{fill:#fd7c7c;}.cls-16{fill:#f84444;}.cls-17{fill:#f02626;}.cls-18{fill:#f84343;}.cls-19{fill:#f74242;}.cls-20{fill:#f12c2c;}.cls-21{fill:#fd7f7f;}.cls-22{fill:#fd6161;}.cls-23{fill:#f12727;}.cls-24{fill:#fd7e7e;}.cls-25{fill:#f74343;}.cls-26{fill:#fb7373;}.cls-27{fill:#f74141;}.cls-28{fill:#fc7979;}.cls-29{fill:#fd8080;}.cls-30{fill:#fc5e5e;}.cls-31{fill:#f53d3d;}.cls-32{fill:#f02727;}.cls-33{fill:#f22f2f;}.cls-34{fill:#f12929;}.cls-35{fill:#fe6363;}.cls-36{fill:#fd6262;}.cls-37{fill:#fd8181;}.cls-38{fill:#fd6060;}.cls-39{fill:#f12a2a;}</style></defs><title>queimada</title><path class="cls-1" d="M463.7,264.58c-4.4,4.35-3.22,10.23-3.51,15.34-4.46,78.78-95.87,167-191.79,167.76-63.5.52-116.45-20.57-160.21-65.06-61.56-62.56-83.79-191.47,4.6-281.11,32.07-32.51,70.09-54.37,116-60.8,8-3.25,16.87,1.2,24.87-2.52H270c6,2.85,12.35.73,18.5,1.4,37.25.14,68.85,15.89,96.82,38.25,33.46,26.74,59.2,59.84,72.37,101.53,3.46,11,4.08,22.18,4.57,33.48.71,5.4-1.55,11.06,1.4,16.27v5.46a35.51,35.51,0,0,0,0,21.82Z" transform="translate(-54.07 -38.19)"/><path class="cls-2" d="M253.67,38.19c-7.9,4.65-16.48,2.71-24.87,2.52a2.26,2.26,0,0,0,.32-2.52Z" transform="translate(-54.07 -38.19)"/><path class="cls-3" d="M463.7,256.4c-4.29-7.27-4.18-14.55,0-21.82Z" transform="translate(-54.07 -38.19)"/><path class="cls-4" d="M289.13,38.19a7.39,7.39,0,0,0,.36,2.38c-6.63.39-13.4,1.91-19.45-2.38Z" transform="translate(-54.07 -38.19)"/><path class="cls-5" d="M461.29,212.46a6.55,6.55,0,0,1,2.41.3v16.36C459.58,224.05,460.76,218.21,461.29,212.46Z" transform="translate(-54.07 -38.19)"/><path class="cls-6" d="M308.21,62.72c35.94,7.6,64.52,27.57,89.7,53.29,37.13,37.9,51.84,83.72,49.83,136.17-3.09,80.73-61.09,151.22-137.34,173.75C229.72,449.77,130.11,409,91,331.1c-26.29-52.31-27.57-106.22-5.69-160.45,2.81-7,4.32-14.91,10.17-20.49,2.68-.07,5,.59,6.29,3.21.52,3.23-.65,6.14-2.17,8.8-3.72,6.52,2.11,4.41,4.65,5.29,3.55,6.06,9.49,7.95,15.84,9.18,2.8,5.45-1,10.14-1.7,14.94,11.17-2.28,13.93-13.73,21.46-20.19,7.7-3.34,15.26-5.86,20.61,3.69-1.31,12.08,10.49,4.6,14.08,9.39,1.3,1.41,2.42,3.47,1.6,4.92-7.7,13.66.82,17.63,11.82,20.22,2,3,.85,6,.39,9.12-.67,4.56-4.15,10.48,3.61,12,6.39,1.22,13.79,3.25,16.59-6.28,1.14-3.87,2.76-7.65,6.33-10.12,9-3.7,16.95.91,25.19,3.17a7.23,7.23,0,0,1,1.71,3.44c.25,5-1.89,9.56-3.44,14.17-2,6,.5,9.45,5.86,11.38,6.29,2.26,6-3.37,7.52-6.63,2-4.3,2.68-9.87,9.41-9.48a16.32,16.32,0,0,1,8.16,4.56c8.56,9.12,14.05,5.57,18.36-4,7.22-5.84,11.47.14,15.94,4.25s8.13,8.75,15.05,6a10,10,0,0,1,3.64.44c7.19,7.63,14.85,10.48,23.57,2.24a8.9,8.9,0,0,1,3.65.56c5,3.86,8.26,11.22,16.64,7.84,3.4.52,5.44,2.85,7.37,5.41s3.48,7.44,8,5.06c4.68-2.47,2.75-6.91,1.54-10.8-1.86-5.91-5.2-11.65-2.28-18.18,4.13-5.53,8.78-8.71,15.32-3.44,4.52,3.14,3.6,14.5,10.33,11.38,7.45-3.44-.28-10.88-1.12-16.6a33.2,33.2,0,0,1-.59-4c3.81-7.94,14.36-14.38,5.56-25.12,9.13-10.85,2.61-20.31-2.7-29.88a5.81,5.81,0,0,0-.08-1.33c-1.83-5.82,10.77-4.77,5.69-12.52-4.34-6.62-9.84-10.14-17.76-9.78a25.46,25.46,0,0,1-5.81-.89c-5.8-2-9.74-6.38-13.56-10.87-4.08-4.8-3.75-8.92,2.1-12,2.75-6-2.29-12.47-10.44-12.89-4.42-.22-8.81,1.32-13.3,1.08a23.48,23.48,0,0,1-5.9-.84c-5.54-2.57-11.32-4.85-13.74-11.23,3.48-7,9.5-6.14,14.66-6.18-6.32-3.5-14-6.67-22.91-5.87-4.76-.13-9.52.12-14.26-.27a14.13,14.13,0,0,1-5.67-1.73c-2.93-2.4-1.85-5.06.35-6.78,3.43-2.67,2.79-5.1.56-7.91A3.26,3.26,0,0,1,308.21,62.72Z" transform="translate(-54.07 -38.19)"/><path class="cls-7" d="M220.93,59.57c18.14-2.89,36.18-7.67,54.73-2.87-5.23,6.49-12.32,2.9-20,3.63,6.74,2,8.4,4.9,2.64,8.46s-12.05,5.65-17.79,9.08a14.12,14.12,0,0,1-6.09.56c-5.94-1.81-12.5-.37-18.21-3.43a4,4,0,0,1-1.68-3.58c2.42-5.72,7.4-7.55,12.94-8.52a20.31,20.31,0,0,1,3.9,0c-1.9-.69-3.89.06-5.82-.35A5.8,5.8,0,0,1,220.93,59.57Z" transform="translate(-54.07 -38.19)"/><path class="cls-8" d="M240.35,76.25C244,68,253.92,70,259.94,64.22l-7.49-3c7.25-6.25,15.69-3.14,23.21-4.54l5.15.7c1.1.93,1.82,3.11,1.16,3.36-8.16,3.12-.31,6.64-.37,9.88-3.93,7-14.44,4.51-17.7,12.42a10.32,10.32,0,0,1-7.6.65C251,81.11,244.71,80.77,240.35,76.25Z" transform="translate(-54.07 -38.19)"/><path class="cls-9" d="M171.68,76.15c12.16-6.33,24.64-11.74,38.41-13.48,1.46,3.83-2.13,4.78-3.74,6.79-.07,3.27,6,3.31,4,7.49-2.79,2.47-6,4.68-.53,8,1.74,1,.25,2.94-1.14,4.06-7.22,2.54-14.76,2.79-22.28,3.16-4.71-1.11-9.76-1-14-3.75,1-6.33,1-6.33,13.25-13.7C181.26,77.62,176.94,81.23,171.68,76.15Z" transform="translate(-54.07 -38.19)"/><path class="cls-10" d="M111.24,127.82c1.85-6,6.16-10,11.14-13.41a2.58,2.58,0,0,1,3.28-.37c.56,4.87,1.38,9.67,4,13.94.17,6.64-4.72,11.14-7.09,16.72a8.16,8.16,0,0,1-4,3.6c-3.54.58-7.07,1.65-10.7.42C99.05,140.17,112.07,135.1,111.24,127.82Z" transform="translate(-54.07 -38.19)"/><path class="cls-11" d="M125.48,114.56l-3.1-.15c8.76-10.6,18.28-20.35,30.58-26.93,4,1.29,9.79-1.92,11.51,4.78-2.34,6.75-7.38,10.8-13.64,13.63-3.57,1.07-7.4,1-10.84,2.65C134.83,109.78,131.89,116.39,125.48,114.56Z" transform="translate(-54.07 -38.19)"/><path class="cls-12" d="M163.62,92.73c-2.14-4.61-8.45-.77-10.66-5.25,6.06-4.08,11.4-9.33,18.72-11.33l15-1.3c-3.34,6.5-12.17,5.81-14.62,12.3C170.69,91.22,168.56,94.09,163.62,92.73Z" transform="translate(-54.07 -38.19)"/><path class="cls-13" d="M280.3,70.6l-8.15-6.31c2.13-3.27,9.31-.42,8.66-6.89,9.61-.7,18.58,1.94,27.4,5.32,0,.88,0,1.76,0,2.64-7.38,3-15.81,2.77-22.76,7.22A5.38,5.38,0,0,1,280.3,70.6Z" transform="translate(-54.07 -38.19)"/><path class="cls-14" d="M111.24,127.82c4.78,3,1.23,5.45-.24,8.44-1.66,3.39-6.76,6.53-1.9,11.13,0,5.88-3.51,6.47-8.13,5.34-2.22,0-4.27-.44-5.51-2.58C99.84,142.09,103.8,133.73,111.24,127.82Z" transform="translate(-54.07 -38.19)"/><path class="cls-15" d="M202,68.4l8.13-5.73,10.83-3.1,5.57.87c1.84,1.17,4.41,2,2.64,5l-12.91,5.75C210.9,73.12,205.57,75.09,202,68.4Z" transform="translate(-54.07 -38.19)"/><path class="cls-16" d="M215.46,215.38c-.85,2.1-1.8,4.17-2.53,6.31-4.3,12.61-13.92,17.13-26,12.58-4.74-1.79-4.68-5.46-3.89-8.85,1.22-5.25,3.39-10.28,5.16-15.4l1.56-1.53c8.93-3.46,17.12-.8,25.17,3.06A2.71,2.71,0,0,1,215.46,215.38Z" transform="translate(-54.07 -38.19)"/><path class="cls-17" d="M321.76,242.77h-2.55c-7.9-8.5-19.64-14-21.26-27.42,1.83-6.14,5.67-10.84,10.68-14.69C321.75,203,330.3,212,332.54,225.8A42.61,42.61,0,0,1,321.76,242.77Z" transform="translate(-54.07 -38.19)"/><path class="cls-16" d="M289.13,231.85a42.2,42.2,0,0,0-2.54,6.19c-2.41,10.28-6.84,11.9-13.77,3.41-3.12-3.83-9-4.49-11-9.55a9.29,9.29,0,0,1-2.55-5.51A18.21,18.21,0,0,1,266.35,212a8.39,8.39,0,0,1,4-1c8.43,2.93,16.12,6.86,20.57,15.19A7.54,7.54,0,0,1,289.13,231.85Z" transform="translate(-54.07 -38.19)"/><path class="cls-18" d="M261.8,226.28c0,1.87,0,3.74,0,5.62-7.44,1-5.91,8-8.16,12.46-1.9,3.74-2.21,10.28-8.67,6.07-4.68-3.05-15.19-2.06-10.81-13,2.17-5.42,3.89-11,5.82-16.53C248.11,219.3,254.33,225.3,261.8,226.28Z" transform="translate(-54.07 -38.19)"/><path class="cls-16" d="M215.46,215.38c0-.83,0-1.66,0-2.5-1.89-8.08,2.62-13.28,8.12-18a18.45,18.45,0,0,1,8.37-1.72c7.36.7,14.39,2,17.39,10.18-.17,6.83-3,12-9.33,15C231.33,221.81,224,213.42,215.46,215.38Z" transform="translate(-54.07 -38.19)"/><path class="cls-19" d="M188.22,210c-21.63-.12-21.63-.12-13.69-24.46-.65-2.81,1-3.52,3.3-3.63,6.43,3.26,15.26.77,19.92,8.28.22,8.25-4.09,14.32-9.55,19.83Z" transform="translate(-54.07 -38.19)"/><path class="cls-16" d="M321.76,242.77c-1.31-7.56,5.51-11,8.39-16.37a4.86,4.86,0,0,1,3.73-1.42c8.14,4.42,15.29,9.45,12.56,20.52C333,256.72,333,256.72,321.76,242.77Z" transform="translate(-54.07 -38.19)"/><path class="cls-17" d="M240.06,218.31q4.09-6.85,8.2-13.72A8.66,8.66,0,0,1,254,202c6.44,1.12,13.28,1.78,13.35,10.79l-5.57,13.52c-9.11,5.64-14.53-3.58-21.78-5.41C240,220,240,219.17,240.06,218.31Z" transform="translate(-54.07 -38.19)"/><path class="cls-19" d="M381.86,234.58c-.17,6.56,2.07,12.67,5.2,18,4.6,7.86.2,12.45-5.4,15.47-7.18,3.88-7.54-4-10-7.63-1.77-2.65-3-5.56-6.2-6.89a3.43,3.43,0,0,1-.88-2.26c0-.83.09-1.25.22-1.25,3.7-5.9,8.87-10.54,13.48-15.68A3.53,3.53,0,0,1,381.86,234.58Z" transform="translate(-54.07 -38.19)"/><path class="cls-20" d="M310.64,79.26l17,0c-1.55,1.41-1.1,5.79.73,7.38,2.57,2.24,3.91,4.9,2.88,8.38-3.07,4.42-8.1,6.48-12,9.92a8.32,8.32,0,0,1-7.47,0c-1.18-8.58-11.44-5.45-14.69-11.38C295.65,83.11,306.94,84.8,310.64,79.26Z" transform="translate(-54.07 -38.19)"/><path class="cls-21" d="M355.18,103.91c15.29-5.07,25.51,1.41,33,14.39-2.44,3-5.79,1.57-8.7,2A24.15,24.15,0,0,1,368.8,122C361.89,117.75,351.05,116.46,355.18,103.91Z" transform="translate(-54.07 -38.19)"/><path class="cls-19" d="M395.57,139.14c15-1.95,19.21,9.85,25.34,19.68-2.73,4.51-11.73-.69-11.73,7.56-2.11,2.23-4.59,2.3-7.26,1.26-2-6.16-3.41-12.4-8.32-17.4C389.89,146.45,390.5,142.07,395.57,139.14Z" transform="translate(-54.07 -38.19)"/><path class="cls-22" d="M368.48,119.91l11,.43c-2.45,2.25-6.58,3.94-1.69,8,4.14,3.41,7.89,7.28,11.81,11,.26,6.9-5.26,6.78-9.68,8a14.27,14.27,0,0,1-6.06-1,89.51,89.51,0,0,1-17.66-15.89C355.7,121.56,362.84,121.61,368.48,119.91Z" transform="translate(-54.07 -38.19)"/><path class="cls-23" d="M346.44,245.5c-2.35-7.94-6.53-14.57-13.63-19.12-2.93-7.38,2.19-10.75,7.08-14.24,6-1.27,8.95,2.89,11.35,7a30.33,30.33,0,0,0,9.87,10.3,7.28,7.28,0,0,1,.26,7c-4.53,2.43-8.3,5.93-12.34,9.05h-2.59Z" transform="translate(-54.07 -38.19)"/><path class="cls-18" d="M400.91,166.36l8.27,0a13.86,13.86,0,0,1,2,1.77c7,9.22,14.72,18.45.77,28.24-2.32.8-3.69-.52-4.91-2.18-3-9.29-12.26-15.56-12.63-26.13C396,165.27,398,164.2,400.91,166.36Z" transform="translate(-54.07 -38.19)"/><path class="cls-23" d="M400.91,166.36c-2.25.07-4.29.57-5.47,2.76a3.31,3.31,0,0,1-3.67.14c-5.16-7.64-16.51-12.15-12.45-24.48,3.95-.87,7.85-1.8,10.27-5.51l6-.13c-5.23,7.22,1.06,10.72,5.07,14.5C405.36,158.08,407.51,162,400.91,166.36Z" transform="translate(-54.07 -38.19)"/><path class="cls-18" d="M409.13,193.62l2.78,2.77c14.08,11.79,2,17.67-5.56,24.55a2.81,2.81,0,0,1-3.39.1c-4-6.17-6-13.52-11.23-19a6.27,6.27,0,0,1,.22-5.43C397.47,194.5,402.63,190.24,409.13,193.62Z" transform="translate(-54.07 -38.19)"/><path class="cls-7" d="M368.48,119.91c-.89,6.24-11,3.3-10.69,10.78-1.93,2.42-4.44,2.54-7.16,1.79,1.4-10.57-11.76-10-13.78-18,.85-7.64,7.32-8.71,12.78-11l5.55.36C355.23,112.89,364,114.63,368.48,119.91Z" transform="translate(-54.07 -38.19)"/><path class="cls-18" d="M289.13,231.85c0-1.8,0-3.6,0-5.41,2.85-3.6,4.07-8.29,7.65-11.41a2.76,2.76,0,0,1,3.17.45C300.61,223,307.41,226,311.5,231c3,3.67,7.68,6.2,7.71,11.81-4.23,5.83-7.63,4.43-12.7.11S299.25,228.51,289.13,231.85Z" transform="translate(-54.07 -38.19)"/><path class="cls-18" d="M403.63,220.92l2.72,0c1.84,4.05,3.63,8.12,5.52,12.14,2.87,6.1,2.67,11.66-4.39,14.16-7.79,2.74-8.48-4-10.19-8.93-.72-2.08-1.22-4.25-1.81-6.38a8.7,8.7,0,0,1-1.75-6.17C395.63,221.28,398,217.77,403.63,220.92Z" transform="translate(-54.07 -38.19)"/><path class="cls-23" d="M158.21,177.31c-5.06-10-12.28-4.83-19.06-2.74-5.06.41-9.87,3.56-15.18,1.36-5.75-4.51-3.15-9.7-1.23-14.85a8.08,8.08,0,0,1,4.39-3.94c5.11,0,10.09-1.55,15.22-1.41,4.93,7.8,12.85,10.85,21.21,13.24C164.69,173.63,164.19,177.24,158.21,177.31Z" transform="translate(-54.07 -38.19)"/><path class="cls-16" d="M158.21,177.31l5.45-8.19c.52-.52,1.05-1,1.57-1.56,7.2-2.46,14.29-3.72,20.69,2,.85,6.85-2.46,11-8.66,13.16l-2.73,2.81C169.7,181.61,156.43,194.34,158.21,177.31Z" transform="translate(-54.07 -38.19)"/><path class="cls-18" d="M125.46,174.61c4.56.56,9.11-5.94,13.68,0-4.62,10.4-9.58,20.4-24,19.53-.09-6.37,2.76-11.48,4.84-16.8C121.18,175.09,124,176.15,125.46,174.61Z" transform="translate(-54.07 -38.19)"/><path class="cls-24" d="M330,95.45c.55-3.58-1.37-5.9-4.26-7.32-11.16-5.49-.12-6.22,1.86-8.89,9.85-1.69,17.47,2.78,25.56,9.37L336,95.32A4.4,4.4,0,0,1,330,95.45Z" transform="translate(-54.07 -38.19)"/><path class="cls-25" d="M395.48,226.31v5.62c-5.65-4.82-9.35.38-13.62,2.65h-2.6c-6.32-2.33-7.66-9.16-12-13.29a6.05,6.05,0,0,1,.07-5.3c4.81-1.15,7.88-5.43,12.48-7C389.45,210.76,390.85,220,395.48,226.31Z" transform="translate(-54.07 -38.19)"/><path class="cls-24" d="M330,95.45l6-.13,13.65,8.23c-1.47,5.91-9.57,5.12-11.08,11a3,3,0,0,1-3.25.88c-4.77-4.54-11.89-6-15.57-12C319.44,96,325.5,96.71,330,95.45Z" transform="translate(-54.07 -38.19)"/><path class="cls-26" d="M286.45,70.9c5.46-9,13.58-7.46,21.8-5.54L318,70.61c-2.95,5-11.16,1.68-12,8.22-2,2.54-4.59,2.65-7.42,2C294,78.2,289.6,75.31,286.45,70.9Z" transform="translate(-54.07 -38.19)"/><path class="cls-18" d="M101,152.73l8.13-5.35c2.73.77,5.41-3.18,8.17-.08,1.48,6.18-2.63,10.31-5.47,14.91-2.37,2.71-4.75,5.43-8.15,6.93l-10.81,3.79C93.43,164.83,98.34,159.19,101,152.73Z" transform="translate(-54.07 -38.19)"/><path class="cls-27" d="M103.65,169.14l5.47-8.2c5.43,3.65,10.9-3.6,16.33,0,.7,4.54-5.86,9.09,0,13.63-1.19,2.18-3.22,2.64-5.45,2.69-.87,0-1.89-.25-2.59.1C108.48,181.83,104.32,178.43,103.65,169.14Z" transform="translate(-54.07 -38.19)"/><path class="cls-25" d="M349,245.5c1.36-5.83,2.8-11.57,11-8.16,4.52,3.43,9,6.88,5.49,13.55l0,2.68C352.85,265.5,353.77,249.72,349,245.5Z" transform="translate(-54.07 -38.19)"/><path class="cls-21" d="M297.2,79.05l8.78-.22,4.66.43c1.66,2.73,2,4.55-2,5.82-4.16,1.31-9,2.21-10.7,7.39a4.75,4.75,0,0,1-3.54,1.35c-4.87-3.34-17.18-.74-10.59-13.26C288.07,78.18,292.31,75.67,297.2,79.05Z" transform="translate(-54.07 -38.19)"/><path class="cls-7" d="M240.35,76.25c5.9.35,12.09-.12,16.13,5.6a52.67,52.67,0,0,0-7,12.63,13.36,13.36,0,0,1-9.68.08c-6.31-4.65-14.7-2.37-21.22-6.36-.53-11.45,7.85-11.26,15.58-11.91Z" transform="translate(-54.07 -38.19)"/><path class="cls-15" d="M234.16,76.29c-5.13,3.6-11.84,4.83-15.66,10.41,1.41,2.35-.16,3.29-1.95,4.13a6.54,6.54,0,0,1-6.14-3.72c-3.35-3.73-8.56-.81-12.47-3.53,2.21-5.07,7-6,11.49-7.34,1.88-1.73,3.26-4.61,6.65-2.92C222,74.84,228.75,71.51,234.16,76.29Z" transform="translate(-54.07 -38.19)"/><path class="cls-28" d="M216.08,73.32l-6.64,2.92c-1.8-3.7-5.47-1.91-8.18-2.87-6.76-2.41-1.39-3.55.7-5,4.07,4.39,9.54,1.67,14.25,2.83A3.81,3.81,0,0,0,216.08,73.32Z" transform="translate(-54.07 -38.19)"/><path class="cls-28" d="M229.13,65.48l-2.64-5.05h10.92C236.09,65,232.39,64.87,229.13,65.48Z" transform="translate(-54.07 -38.19)"/><path class="cls-20" d="M297.2,79.05l-12.77,3.09c-2.66,1.68-5.4,3.12-8.67,3.11-4,0-7.9-.18-10.68-3.65-.28-11.09,10.25-7.19,15.22-11l6.15.3C291,72.31,296.93,72,297.2,79.05Z" transform="translate(-54.07 -38.19)"/><path class="cls-29" d="M265.08,81.6l9.85.47c4.84,2.08,4.55,4.88.94,7.87a28,28,0,0,1-10.66,5.28,19.18,19.18,0,0,1-4.13.62c-3.55,0-7.09-.12-9.47-3.41-10.78-9.23,3.12-7.11,4.87-10.58Z" transform="translate(-54.07 -38.19)"/><path class="cls-10" d="M210.41,87.11c2-.06,3.6.47,4.25,2.59C211,97.12,203.93,100.42,197.1,104a30.64,30.64,0,0,1-7.87,2.63,11.07,11.07,0,0,1-2.66.33c-5.53-.34-13.89,1.83-14.55-5.31-.62-6.69,5.21-12,13.4-11.66C193.54,87.18,202,87.13,210.41,87.11Z" transform="translate(-54.07 -38.19)"/><path class="cls-30" d="M185.42,90c-4.72,3.23-9.16,6.72-12.69,13.85h17.82c.76,3.09-1.48,4.05-3.61,5.09-6.91,1.85-14,1.16-21,1.32-5.7-1.1-13.22,2.11-15.76-6.56l13.44-11,8.4-5.58C176.47,88.18,181.77,85.19,185.42,90Z" transform="translate(-54.07 -38.19)"/><path class="cls-19" d="M120,144.52c.58-6.55,6.42-10.42,8.26-16.32,1.7-4.37,5.3-6.43,9.48-7.79,4.8-.58,10.91-2.16,12.37,4,1.51,6.37-3.15,10.62-8.73,13.2,3.89-1.3,7.89-2.16,11.52,1.05-1.74,9.21-9.67,6-15.22,7.63C132,144.59,125.59,148.51,120,144.52Z" transform="translate(-54.07 -38.19)"/><path class="cls-17" d="M120,144.52c5.46.18,10.94-6.18,16.39,0,.92,6.78-2.64,10.85-8.28,13.64l-2.7,2.78c-5.44-.59-10.92,10.51-16.33,0q4.06-6.83,8.15-13.64Z" transform="translate(-54.07 -38.19)"/><path class="cls-31" d="M136.39,122.78l-8.09,5.42c-8.1-3.06-8.62-7.69-2.82-13.64,5-2,7.32-8.43,13.64-8.22,2.87-1.68,6.61-2.63,8,.62,1.82,4.2-2.23,7.06-4.71,10C140.69,119.18,137.58,120,136.39,122.78Z" transform="translate(-54.07 -38.19)"/><path class="cls-10" d="M139.12,117.3c-3.32-3.65,15.88-7.3,0-11,2.95-4,7.24-2.32,11.06-2.64,4.78,4.69,10.86,1.52,16.22,2.68,1,8.24-5.5,10.83-10.85,14.3C149.91,120.42,143.14,125.49,139.12,117.3Z" transform="translate(-54.07 -38.19)"/><path class="cls-17" d="M188.2,210c1-7.13,5.51-12.73,8.26-19.1,3-3.18,7-3.46,11-3.73,6.66.89,15.25-1.61,16.33,9.18l-8.27,16.49C206.3,213,197.56,208.49,188.2,210Z" transform="translate(-54.07 -38.19)"/><path class="cls-16" d="M299.94,215.48h-2.63c-9.79.37-15-6.43-20.37-13a11.46,11.46,0,0,1-1-5.57c1.4-6.58,5.24-12,8.29-17.89a6.09,6.09,0,0,1,5.38.17c5.85,7.29,15.65,10.48,20,19.32a4.62,4.62,0,0,1-1.35,3.4C308.34,208.19,302,210.54,299.94,215.48Z" transform="translate(-54.07 -38.19)"/><path class="cls-18" d="M308.25,201.92c0-.9,0-1.8,0-2.7,4-5,8.3-9.78,14.34-12.53,12.44,2.34,16.17,12.46,20.06,22.45a5.78,5.78,0,0,1-1.66,3.57c-1.87,5.06-8.5,7.29-8.14,13.67l-2.66,0C328.23,213.43,319.07,206.93,308.25,201.92Z" transform="translate(-54.07 -38.19)"/><path class="cls-32" d="M278.23,201.75l19.08,13.74c-.86,5-1.74,10.08-8.19,10.95L270,212.78C266.87,204.72,268,199.82,278.23,201.75Z" transform="translate(-54.07 -38.19)"/><path class="cls-19" d="M278.23,201.75c-7,.46-8.49,5.12-8.25,11l-2.61,0c-2.95-5.44-8.09-7.2-13.7-8.18-8.4-5.88-2.82-11.55.23-17.27A6.06,6.06,0,0,1,259,184.8c5.57,5.24,12.2,8.73,19.23,11.54Z" transform="translate(-54.07 -38.19)"/><path class="cls-18" d="M223.78,196.39c-3.59-7.44-10.49-5-16.41-5.49-12.76-4-12.77-4.1-2.69-20a7.65,7.65,0,0,1,5.11-2.88,193.83,193.83,0,0,0,27.89,6.15,5.8,5.8,0,0,1,.86,5.35c-4.73,4.61-7.53,10-6.65,16.83Z" transform="translate(-54.07 -38.19)"/><path class="cls-23" d="M231.89,196.37c-8.78-9-3.31-13.29,5.51-16.44,9.13-3.72,13.83,2.81,19,8.22-2,5.3-7.52,10-2.74,16.43h-5.41C244.62,198.24,238.63,196.56,231.89,196.37Z" transform="translate(-54.07 -38.19)"/><path class="cls-10" d="M207.31,171.73c-1.11,6.4-13.92,12.82.06,19.17l-10.91,0c-4.93-6.18-15.65,1.21-19.2-8.19q4.06-5.46,8.14-10.93c4.55-4.35,10.17-3.57,15.7-3.29C203.51,169,205.74,169.71,207.31,171.73Z" transform="translate(-54.07 -38.19)"/><path class="cls-32" d="M365.53,250.89,360,237.34l0-8.12c-1.08-6.49,3.26-7.69,8.15-8.36,7.84,1.23,7.35,9.15,11,13.72C377.82,242.66,371.41,246.55,365.53,250.89Z" transform="translate(-54.07 -38.19)"/><path class="cls-7" d="M319.73,103.4c6,2.63,13.54,3,15.65,11.13-1.76,5.17-6.41,7-10.69,9.32a7.79,7.79,0,0,1-3.68-.28c-5.54-4.08-11.65-7.32-17.13-11.51-3.1-7.15-1.63-10.64,6.83-8.51Z" transform="translate(-54.07 -38.19)"/><path class="cls-29" d="M310.71,103.55c-4.7.89-9,2-4.93,8.18-2.15,2.39-4.72,2.46-7.49,1.36-2-8.3-13-5.56-15.8-13,.41-7.76,4.46-10,11.54-7.61l3.91-.06C302.65,95.65,312.23,93.21,310.71,103.55Z" transform="translate(-54.07 -38.19)"/><path class="cls-18" d="M379.32,144.78c-.38,10.82,12.26,14.42,13.49,24.34-4,7.27-9.52,9.08-16.83,4.95-6.44-5.17-10.73-12.31-16.5-18.1a5.08,5.08,0,0,1,.12-3.64c4.5-3.16,8.92-6.48,14.37-7.94Z" transform="translate(-54.07 -38.19)"/><path class="cls-23" d="M374,144.39c-3,5.37-7,9.11-13.73,8.21-8.18-5.16-19.22-8.4-14.71-22a3.24,3.24,0,0,1,3.54.34l8.72-.21C365.32,132.74,369.34,138.93,374,144.39Z" transform="translate(-54.07 -38.19)"/><path class="cls-18" d="M368.22,220.86q-4.08,4.17-8.15,8.36c-5.13,2.84-7.14-.35-9-4.43-2.24-4.91-4.78-9.71-10.12-12.08,0-.89,0-1.78,0-2.67,4.59-5.45,7.43-12.64,15-15.18,9.7,3.5,14.95,9.67,12.31,20.56Z" transform="translate(-54.07 -38.19)"/><path class="cls-17" d="M376.41,171.87c6.41,4.71,11.11-.77,16.4-2.75h2.63c4.54,8.18,12.24,14.59,13.69,24.5-5.67-.4-10.06,6.76-16.34,2.76-8.15-4.26-10.7-13.61-17.42-19.17A5,5,0,0,1,376.41,171.87Z" transform="translate(-54.07 -38.19)"/><path class="cls-18" d="M376.45,177.4c10.21,2.23,11.69,12,16.34,19,0,1.79,0,3.57,0,5.36-2.06,6.86-6.74,8.54-13.21,6.7-6.55-3.6-9.58-9.61-11.38-16.5a17.85,17.85,0,0,1,.27-6.14C369.72,181.68,371.85,178.36,376.45,177.4Z" transform="translate(-54.07 -38.19)"/><path class="cls-23" d="M379.16,207.25c5.78,1.23,9.38-2.94,13.62-5.51,8.8,3.46,10.2,11.11,10.85,19.18a8.43,8.43,0,0,0-8.15,5.39c-9.25-1.58-7.64-14.09-16.32-16.24A2.24,2.24,0,0,1,379.16,207.25Z" transform="translate(-54.07 -38.19)"/><path class="cls-29" d="M349.07,130.9l-1.31,0-1.3.09a11.57,11.57,0,0,1-7.64,2.34c-6-1.81-11.5-4.21-13.93-10.66,1.63-5.12,6.52-6,10.49-8.12h3.17c4,2.76,8,5.51,11.92,8.29C355.72,126.49,350.89,128.44,349.07,130.9Z" transform="translate(-54.07 -38.19)"/><path class="cls-16" d="M128.15,158.2l8.28-13.64c4.64-4.21,11.88-.56,16.32-5.39,2.81-2,4.93-1.25,6.56,1.59.7,6.06-3.21,9.74-7,13.5-2.85,3-7.36,1.53-10.47,3.89C137.29,157.6,132.74,164,128.15,158.2Z" transform="translate(-54.07 -38.19)"/><path class="cls-25" d="M141.86,158.15q4.09-2.7,8.2-5.39c4,1.64,7.8-1.49,11.8-.63,3.86.48,9-.17,10,4.61,1.26,6.14-3.66,9.42-8.2,12.38h0C148.24,169.12,148.24,169.12,141.86,158.15Z" transform="translate(-54.07 -38.19)"/><path class="cls-7" d="M163.65,169.12c2.16-4.11,4.31-8.23,6.87-13.12l-9.57-.57c2.37-8.28,10.37-6.58,16-9.06,5.25,2.58,11.37,2.43,16.57,5.2,3.12,6.6,1.56,15.18,8.51,20.18l-16.65.07C178.71,166.39,170.87,170.25,163.65,169.12Z" transform="translate(-54.07 -38.19)"/><path class="cls-17" d="M379.16,207.25v2.82c-2.55,4-4.65,8.88-10.9,5.35-2.1-8.06-5.28-15.34-13.62-18.9a4.44,4.44,0,0,1-.93-5.11c5.69-2.17,11.28-8.95,17.21-.39C371.59,197.49,377.47,201.31,379.16,207.25Z" transform="translate(-54.07 -38.19)"/><path class="cls-33" d="M294,92.53c-4.47,1.58-9.81,2.06-10.42,8.42a6.22,6.22,0,0,1-5.57,1.53c-4.46-3-12.36-1.32-12.9-9.57,2.54-4.27,13.43-1,9.79-10.84l9.49.07C281.63,91.15,294.69,85.5,294,92.53Z" transform="translate(-54.07 -38.19)"/><path class="cls-29" d="M196.63,101l18-11.28,3.83-3c6.84,2.54,15.95-3.11,21,5.82-4,7.24-10.6,11.13-18.11,13.83-8.21.94-16.46,2.39-24.38-1.49A2.47,2.47,0,0,1,196.63,101Z" transform="translate(-54.07 -38.19)"/><path class="cls-34" d="M223.49,103.58c5.29-3.76,9.37-9.28,16-11l12.09-.1,9.83.45c0,11.05-9.41,12.43-16.5,16.24a29.2,29.2,0,0,1-6.58.82C232.94,108.91,225.56,112.43,223.49,103.58Z" transform="translate(-54.07 -38.19)"/><path class="cls-24" d="M245.31,106.33c5.4-4.46,13.08-6.17,16.13-13.45l3.69,0c3.24,4.45,10.34,2.59,13,8-3.16,5.68-8.76,9.43-11.9,15.14a10.41,10.41,0,0,1-7.59.11C254.47,112.5,246.26,114.32,245.31,106.33Z" transform="translate(-54.07 -38.19)"/><path class="cls-7" d="M196.63,101a8.38,8.38,0,0,0,0,2.5c4,3.19,8.63.88,12.91,1.57,2.95.48,7-1.45,8.56,2,1.71,3.81-1.8,6.5-4.16,9.09-1.51,1.66-3.19,3.15-4.76,4.75a12.07,12.07,0,0,1-7.77,3.38c-7-1.15-14.42.61-21.05-3.09-5.31-9.13,3-11.06,7.86-14.77l2.34-2.53Z" transform="translate(-54.07 -38.19)"/><path class="cls-22" d="M188.21,106.38c-1.53,5.23-8.58,7.17-8.11,13.59-1.24,3.08-3.67,4.2-6.8,4.23-6.12-2-14.82,2.73-18-6.92a31.08,31.08,0,0,0,11.07-10.9Z" transform="translate(-54.07 -38.19)"/><path class="cls-34" d="M155.33,117.28c5.17,6.54,14.2-.77,19.47,5.43.83,8-6.91,11.12-9.78,17-1.91,1.76-3.87,3.41-6.73,2.08-1.2-2.21-3.26-2.67-5.54-2.65-3.78-.6-7.84,1.16-11.59-1.35.88-5.32,7.82-7.65,6.71-13.92-3.59-2.26-7.64-.74-11.48-1.12-3.34-3.94,1.08-4,2.73-5.48C144.53,122.43,149.93,119.79,155.33,117.28Z" transform="translate(-54.07 -38.19)"/><path class="cls-17" d="M321.86,188.19c-3.38,5.12-6.75,10.27-13.65,11-5.25-7.53-16.83-8.77-19.12-19.24-1.19-6.76,4.24-9.88,7.74-14.08,2.63-1,5-.18,7.43.87,6.83,5.5,15.2,9.37,19.07,18A5,5,0,0,1,321.86,188.19Z" transform="translate(-54.07 -38.19)"/><path class="cls-32" d="M278.2,196.34c-9.45,1.81-16.18-1.16-19.08-10.87-1.43-6.66,3.81-9.07,7.81-12.28a12.93,12.93,0,0,1,3.87-1c5.56.56,10.65,1.88,12.72,8C287.41,187.46,279.12,190.68,278.2,196.34Z" transform="translate(-54.07 -38.19)"/><path class="cls-35" d="M283.52,180.22l-13.33-5.7c-3.82-10.07,4.27-12.39,10.38-16a22.25,22.25,0,0,1,8.86-.57c4.52,1.14,8.81,2.52,8.25,8.56-.38,6.08-6.26,8.66-8.59,13.5Z" transform="translate(-54.07 -38.19)"/><path class="cls-17" d="M321.86,188.19v-2.67c4.53-5.37,9.09-10.69,16.11-13a12.76,12.76,0,0,1,3.95.12c7.46,3.87,13.2,8.93,12.67,18.33,0,1.85,0,3.69.05,5.53-4.43,4.65-5.31,12.88-13.68,13.53C335.8,201.7,332.52,191.72,321.86,188.19Z" transform="translate(-54.07 -38.19)"/><path class="cls-36" d="M267.54,174.57l-8.42,10.9-2.71,2.68c-7.28-.57-11.57-8-19-8.22-.14-1.84-.27-3.67-.41-5.51-1.35-5.88,1.67-10.11,5.34-14.1a7.77,7.77,0,0,1,3.93-.56C253.74,164.14,265.74,162,267.54,174.57Z" transform="translate(-54.07 -38.19)"/><path class="cls-23" d="M242.48,161.05c.33,5.35-3.48,9-5.48,13.37-10.34,4.68-18.9.44-27.13-5.41-1.46-7,2.43-10.67,8.18-13.2a16.62,16.62,0,0,1,4.26-.68C229.31,156.14,236.68,155.92,242.48,161.05Z" transform="translate(-54.07 -38.19)"/><path class="cls-22" d="M217.89,158.11c-4.46,2.31-5.54,7.12-8,10.9-.85.91-1.7,1.82-2.56,2.72l-5.26,0c-14.76-.82-11-10.16-8.65-18.83,1.22-2.94,3.37-4.18,6.53-3.58C205.15,153.83,215.3,148.24,217.89,158.11Z" transform="translate(-54.07 -38.19)"/><path class="cls-37" d="M297.16,111.79l8.62-.06c6.53,1.94,12.85,4.17,16,11-1.38,5.71-6.06,7.74-10.8,9.73a11.69,11.69,0,0,1-3.82.19c-7.36-3.57-14.93-6.7-21.93-11C285.27,113.59,289.56,110.68,297.16,111.79Z" transform="translate(-54.07 -38.19)"/><path class="cls-10" d="M310.74,130.83l11.06-8.1,3.09-.08L338.11,131c4.26,9.34-6.86,11-8.65,17.34A6.26,6.26,0,0,1,324,148C320.34,141.73,310.73,140,310.74,130.83Z" transform="translate(-54.07 -38.19)"/><path class="cls-20" d="M297.16,111.79c-3.79,2.66-10.33,2.67-9.49,9.81a2.91,2.91,0,0,1-2.83,2.2c-5.8-2.91-12.46-4.3-17-9.47-4.75-10.76,6.54-9.21,10.29-13.43l5.49,0C288.54,104,298.11,101.35,297.16,111.79Z" transform="translate(-54.07 -38.19)"/><path class="cls-36" d="M329.83,147.34c-4.86-9.3,10.83-8.19,8.28-16.32l8.35-.05c-3.37,12.28,11,13.28,13.78,21.63,0,1-.05,2-.07,3-.19,6.59-5.48,7.86-10.16,9.78a10.12,10.12,0,0,1-3.79-.4C339.62,160.16,333.13,155.23,329.83,147.34Z" transform="translate(-54.07 -38.19)"/><path class="cls-17" d="M349.24,163.75l10.93-8.17c9.35,1.5,10.61,11.08,16.24,16.29,0,1.84,0,3.69,0,5.53l-5.54,8C358.86,185.23,351.74,178.14,349.24,163.75Z" transform="translate(-54.07 -38.19)"/><path class="cls-25" d="M349.24,163.75c6.28,8.15,9.78,19.09,21.67,21.61,0,1.89,0,3.77,0,5.66-5.43-6.26-10.9,4.27-16.33,0-4.31-5.67-6.7-12.94-13.67-16.4-3.13-6.24.42-9.06,5.64-11A26.62,26.62,0,0,1,349.24,163.75Z" transform="translate(-54.07 -38.19)"/><path class="cls-23" d="M158.29,141.82,164,139c7.79-3.42,15.71-10.33,23,.81-1,5.12-3.77,8.05-9.3,7.64-3.83,6.3-12,3.61-16.71,8-3.77-.32-8,1.4-10.89-2.67Z" transform="translate(-54.07 -38.19)"/><path class="cls-35" d="M177.66,147.43l7.46-5.68c2-1.95,3.47-4.64,6.58-5.25,5.73-.82,11.53-2,16.06,3.22.21,6.17-3.63,8.85-8.9,10.29l-5.46,2.9C188.26,150.78,179.88,157.93,177.66,147.43Z" transform="translate(-54.07 -38.19)"/><path class="cls-38" d="M207.44,119.94c-.18-6.13,7.47-6.3,8.8-12-5.72-4.49-14.28,1.72-19.62-4.42l26.88.1c4.64,5.08,10.77,2.08,16.18,3,4,9.54-7.21,10.8-9.23,17.07-2,1.86-4.25,3.18-7.15,2.66C218.43,123.14,211.75,124.49,207.44,119.94Z" transform="translate(-54.07 -38.19)"/><path class="cls-9" d="M229.41,122.56c-1.14-8.27,10.23-8.52,10.28-16l5.62-.21c3.19,5.14,12.07.73,13.85,8.24-1.77,5.92-6.06,9.49-11.32,12.18a13.23,13.23,0,0,1-3.87.2C239.05,125.71,233.34,127.07,229.41,122.56Z" transform="translate(-54.07 -38.19)"/><path class="cls-37" d="M248.88,125.12c2-4.91,5.85-8,10.28-10.55l8.67-.24c5.6,1.7,13.32-.53,15.13,8.18-.78,4.81-4.7,6.23-8.44,7.86a24.83,24.83,0,0,1-8.22,1.08C260.06,130.55,253.51,130.46,248.88,125.12Z" transform="translate(-54.07 -38.19)"/><path class="cls-35" d="M191.15,139l-6,2.73c-.12-5.16-3.17-5.08-7.12-4.37-4.63.84-9.37,1.09-14.06,1.6-.16-7.94,8.05-10.31,10.85-16.27l5.3-2.74c7.25,1.21,15.16-2.88,21.84,2.78C200.12,129.35,193.57,132.81,191.15,139Z" transform="translate(-54.07 -38.19)"/><path class="cls-39" d="M191.15,139c-2.81-9.67,6.11-11.57,10.79-16.27l5.5-2.81c5.26,2.09,13.49-4.46,16.05,5.51-1.52,6.67-7.51,10-11.22,15-1.48,1.31-3,2.33-5.12,1.34C202.57,136.6,196.5,139.83,191.15,139Z" transform="translate(-54.07 -38.19)"/><path class="cls-16" d="M338.21,174.56c-6.24,2.47-8.61,10.72-16.35,11l-19.15-16.4c-3.46-10.1,6.26-13.31,10.22-19.53a6.53,6.53,0,0,1,3.92-.48c7.54,4.1,12.66,11.08,19.33,16.25C339,167.56,341.05,170.73,338.21,174.56Z" transform="translate(-54.07 -38.19)"/><path class="cls-23" d="M313.58,150.14c.19,8.51-11,10.49-10.87,19l-5-2.64c-1.84-3.36-4.53-5.43-8.5-5.56-2.44-2-7.75-1.55-6.7-6.56,1.52-7.2,6.73-10.92,13.63-12.58a19.49,19.49,0,0,1,6.33.15C307.1,143.36,311.85,144.72,313.58,150.14Z" transform="translate(-54.07 -38.19)"/><path class="cls-23" d="M267.54,174.57c-4.69-9-16.44-6.43-22.2-13.64-.63-8.16,5.26-10.86,11.27-13.49a23.2,23.2,0,0,1,6.54-.66c7.43,2.6,18.73.43,17.35,14-4.51,3.79-10,6.81-10.31,13.77C269.31,174.55,268.43,174.57,267.54,174.57Z" transform="translate(-54.07 -38.19)"/><path class="cls-36" d="M280.5,160.75c-2.94-9.19-11.05-9.47-18.57-10.76-4.83-2.76-5.32-6.49-2.31-10.89,2.45-3.58,5.27-6.92,7.47-10.69l8.13-.32a45.42,45.42,0,0,1,18.27,7.16c3.08,2,7.38,4.21,3.35,9.11-5.06,4.36-18.75,4.72-7.67,16.56Z" transform="translate(-54.07 -38.19)"/><path class="cls-10" d="M338.21,174.56c-3.7-11.22-17-13.85-21.61-24.29,1.35-3.76,3.57-5.48,7.5-3.2l5.73.27c6.69,4.25,11.86,10.08,16.73,16.21-1.53,3.85-6,6.22-5.64,11Z" transform="translate(-54.07 -38.19)"/><path class="cls-35" d="M255.91,149.87l-10.57,11.06-2.86.12-21.4-2.9c-3.9-8.44,1.27-12.52,7.69-16a33.71,33.71,0,0,1,9-1.23C244.62,142.32,254,138.65,255.91,149.87Z" transform="translate(-54.07 -38.19)"/><path class="cls-34" d="M229,144.53a16.17,16.17,0,0,0-7.94,13.62l-3.17,0c-4.62-6.75-16.16,2.76-19-8.1l8.29-8.19,3-2.93C218.07,135.28,225.4,133.68,229,144.53Z" transform="translate(-54.07 -38.19)"/><path class="cls-34" d="M296.84,144.36c-.32-7.1-7-6.91-11.14-9.36-3.63-2.13-8.68-2-10.48-6.91l7.75-5.58,4.69-.9c8.47-.43,13.93,5.83,20.65,9.27,1.44,5.91-4.37,8.87-5.58,13.7Z" transform="translate(-54.07 -38.19)"/><path class="cls-22" d="M302.73,144.58c-4.7-7.24,4.54-8.8,5.58-13.7.81,0,1.62-.06,2.43,0,2.66,6.89,14.17,6.5,13.36,16.24l-7.5,3.2-3-.13Z" transform="translate(-54.07 -38.19)"/><path class="cls-36" d="M229,144.53c-4.92-6.49-12.2-5-18.87-5.63a40.49,40.49,0,0,1,13.35-13.45l5.92-2.89c5.41.87,11.44-1.74,16.15,2.92,1.56,6.23-3.05,10.47-7,11.71-7.68,2.42,1.06,5.21-.94,7.23Z" transform="translate(-54.07 -38.19)"/><path class="cls-23" d="M237.61,144.42c-1.86-2.39-6.78-3.8-2-8.13,3.62-3.26,6.63-7.18,9.92-10.81l3.31-.35,18.22,3.28c3.93,4.79-.14,7.35-3,10-3.66,3.42-6.05,6.85-2.18,11.57l-6-.12C251.13,143.63,244.19,144.64,237.61,144.42Z" transform="translate(-54.07 -38.19)"/></svg>