<svg id="Camada_1" data-name="Camada 1" xmlns="http://www.w3.org/2000/svg" viewBox="0 0 437.08 469.44"><defs><style>.cls-1{fill:#373636;}.cls-2{fill:#f9af00;}.cls-3{fill:#d7d7d7;}.cls-4{fill:#ded6c0;}.cls-5{fill:#fde7ad;}.cls-6{fill:#939497;}.cls-7{fill:#f6f6f6;}.cls-8{fill:#f9b106;}.cls-9{fill:#2c2a29;}.cls-10{fill:#fce7b0;}.cls-11{fill:#dacba4;}.cls-12{fill:#bec0c3;}.cls-13{fill:#dfcea2;}.cls-14{fill:#cccccd;}.cls-15{fill:#9ea1a8;}.cls-16{fill:#bfbdb8;}.cls-17{fill:#e0d1aa;}.cls-18{fill:#a6a9ae;}.cls-19{fill:#e3dcc8;}.cls-20{fill:#fde4a1;}.cls-21{fill:#d3cbb8;}.cls-22{fill:#e2e2e1;}.cls-23{fill:#dac898;}.cls-24{fill:#dcd0ae;}.cls-25{fill:#dccda5;}.cls-26{fill:#d2c39d;}.cls-27{fill:#c6bb9d;}.cls-28{fill:#e8e8e7;}.cls-29{fill:#eee2c6;}.cls-30{fill:#eaeae9;}.cls-31{fill:#74767d;}.cls-32{fill:#f0f0f0;}.cls-33{fill:#f8e3aa;}.cls-34{fill:#e7e7e7;}.cls-35{fill:#d4d4d3;}.cls-36{fill:#e2ce9b;}.cls-37{fill:#fde39a;}.cls-38{fill:#a0a3a8;}.cls-39{fill:#c3bba7;}.cls-40{fill:#dbdcde;}.cls-41{fill:#eeeeed;}.cls-42{fill:#ddd6c6;}.cls-43{fill:#dccea7;}.cls-44{fill:#fae6b2;}.cls-45{fill:#5a5c62;}.cls-46{fill:#9b9ea4;}.cls-47{fill:#fdde87;}</style></defs><title>volei</title><path class="cls-1" d="M202.94,81.35c-2-3.32-3.93-6.64-4.33-11.23-5,5.52-8.62,12-18.15,11.69,4.52-2.91,3.87-5.88,2.59-9.28-3.53-9.33-4.06-18.76-.47-28.29,1.55-4.11,4.21-6.9,8.37-7.82a125.49,125.49,0,0,1,14.62-2.19c3.73-.36,6.28-1.18,8.93-3.89,7.85-8,17.63-9.43,28.15-6.94a54.43,54.43,0,0,1,21.73,10.81c5.94,4.79,9.77,10.69,9.27,18.9-.35,5.63,2.4,10.37,6.4,14.13,3.47,3.25,4.24,5.72,1.09,10.14-2.41,3.37-2.83,8.29-3.71,12.61a45.35,45.35,0,0,0-.52,9.63c0,3.95-3,5.37-10.6,5.72,7.11,6.85,10.18,15.68,14,24.06a63.43,63.43,0,0,0,12.67,19c13.82,13.73,27.41,27.66,44.14,38.08,8.05,5,13.63,12.82,18.55,20.7,7.51,12.05,17.16,22,27.83,31.12,9.14,7.8,16.47,17.41,25.62,25.21,4.13,3.51,5.41,8.63,5.86,13.92.38,4.34.61,8.81,5.8,10.55.4.13.66.67,1,1-3,1.59-1.94,4.39-2.39,6.9-.62,3.51-3.44,3.45-6.29,2.32a1.47,1.47,0,0,0-1.33.38c-3.63,5.27-9.16,3.13-13.11,2-6.88-2-14.37-4.44-16.09-13.24-.16-.81-.6-1.57-.73-2.38-2.08-13.42-10.95-20.3-22.85-25.07-21.52-8.62-41.37-20.57-61.34-32.19-4.28-2.5-8.06-5.89-12-9A75.41,75.41,0,0,0,268.31,208c-21.38-9-39.14-23.07-55.68-38.92-.56-.54-.93-1.46-2-1-4.57-1.06-6.3-5.85-10.22-7.75-3.15-1.76-6.37-1.4-9.62-.31a4.55,4.55,0,0,1-1.39.46c-7.61-.68-10.55-2.72-12.15-8.4a17.55,17.55,0,0,0-.09-8.12c-.47-3.57,1.51-5.94,3.93-8.14a38.82,38.82,0,0,1,18.84-9.68c2.45-.67,5.05-.12,7.49-.89a9.25,9.25,0,0,1,1.49-.36,58.48,58.48,0,0,1,9.17-.12,10,10,0,0,1,1.41.26,37.27,37.27,0,0,0,6.54,1.37,3.25,3.25,0,0,1,1.25.42c1,.92,1.68,2,2.67,2.94,11.75,9.95,22.49,20.77,30.48,34.07a14.2,14.2,0,0,0,4,3.73c6.8,5.09,13.55,10.23,20.39,15.26,5.9,4.34,11.71,8.76,16.46,14.41-12-13-24.4-25.57-38.36-36.62-8.27-6.55-15.64-14.4-20.76-23.95,0-2,.67-3.83,1-5.75.72-2.08.48-4.24.55-6.38-.41-1.47,1.07-3.39-1.08-4.42-4.31,2.34-8.33,5.34-13.54,5.26a3.39,3.39,0,0,1-1-.94c-1-1.6-1.18-3.5-1.8-5.24a29.55,29.55,0,0,0-1.92-5,10.08,10.08,0,0,1-.41-1.32,24.82,24.82,0,0,0-1.77-5.21,17.09,17.09,0,0,1-.46-4.21,9.09,9.09,0,0,0-1.49-5.16A19.3,19.3,0,0,0,211,90.39C207,88.61,203.39,86.33,202.94,81.35Z" transform="translate(-39.48 -22.28)"/><path class="cls-1" d="M151.11,308.06c-1.57,1-2.37,3.14-5,2.22-9.74-3.38-20.23-3.63-30-7.1A106.71,106.71,0,0,1,94.2,292.55c-2.59-1.65-4.85-4-8.43-3.46-1.33.19-2.47-.95-3.3-2-4.94-6.22-11.72-10.2-17.91-14.93-13.87-10.62-23.35-24-24.94-41.9-.89-10,2.43-18.92,7.64-27.33,2.53-4.1,3.9.06,5.79.49,2-.85,3.65.28,5.4.86a14.58,14.58,0,0,0,6.13,1.4c4.39,0,8.39,1.7,12.5,2.95a35.23,35.23,0,0,0,6.26,2,21.34,21.34,0,0,1,4.14,1.28c1.94.91,4.08,1.17,6.09,1.86,2.44.9,5.06,1.19,7.4,2.38a38.41,38.41,0,0,0,6.86,3.09c.84.33,1.66.71,2.5,1a28.44,28.44,0,0,0,5.88,1.4c.46,0,.92,0,1.37.05a17.38,17.38,0,0,0,6.14-.49c4.63-1.41,9.24-2.84,11.38-7.86,1-1.89.63-4.38,2.64-5.8,6.27-3.16,12.7-6,18.93-9.29,2.51-1.71,5.45-1.7,8.29-2.06,27.56,1.21,55.21,1.53,82.09,8.93,3,.84,6,1.9,9,2.86,1.65.49,3.08,1.23,3.62,3a4.84,4.84,0,0,1,.05,2.82,27.62,27.62,0,0,1-4.87,7.45,18,18,0,0,0-3.3,4,53.49,53.49,0,0,1-4,4.27,21.27,21.27,0,0,0-4.15,4.92c-4.76,4.42-8.26,10.24-14.45,13.08-2.71,2.47-6,3.13-9.54,3.51-16,1.73-32,3.61-47.75,7.19.08,2.14,1.92,2.71,3.07,3.74,8.81,7.88,17.32,16,23.62,26.16,1.11,1.79,2.44,3.58,2.5,5.86a1.5,1.5,0,0,1-1.39,1.35,6.74,6.74,0,0,1-4.2-2.34c-2.89-3.34-6.61-4.6-10.84-4.83-2.91-1.5-6-.67-9.06-.83-9.44,1-17.94,4-24.37,11.39-.29.33-.6.66-.9,1a2.58,2.58,0,0,0-.14,3.45,11.89,11.89,0,0,1,.77,1.09C151.35,305.48,152.16,306.68,151.11,308.06Z" transform="translate(-39.48 -22.28)"/><path class="cls-2" d="M157,199.54c-6.27,2.71-11.94,6.71-18.61,8.52-3.12,1.12-1.54,4.07-2.38,6.08-2.08,5.51-6.89,6.92-12,7.92-2.32,1.08-4.89-.19-7.22.8l-.43.1-.43,0c-1.52-2-4-1-5.83-1.85l-2.1-.51c-1.78-1.94-4.4-2.25-6.57-3.44l-8.65-2.25c-1.56-2-3.74-2.06-6-2l-3.72-1.13c-1.78-1.73-4.08-1.67-6.31-1.84-4.28-1.16-8.41-3-13-3-1.66-1.56-4-1-5.87-1.82l-4.94-1.66c-4.35-5.72-4.22-5.62.68-11.54,25.65-31,54-59.18,86-83.62,16.81-12.82,35.59-21.18,55.85-26.59,2.41-.65,4.83-1.34,7.32-.33,2.71,3.89,5.75,7.19,10.49,8.92a12.39,12.39,0,0,1,7.72,7.56c.25,1.76,1.43,3.28,1.33,5.13.16,2.21-.48,4.51.78,6.59.67,1.3,1.2,2.67,1.77,4l0-.1c.88,2.48,1.48,5,2.33,7.54a35.89,35.89,0,0,1,.6,4,2.42,2.42,0,0,1-1.1,2.08l-.29,0-.29,0c-2-1-4.24-.07-6.22-1l-.4,0-.36-.14A26.46,26.46,0,0,0,208,126h.11c-2.48,1.48-5.59-.72-8,1.36a41,41,0,0,0-17.6,8.78c-2.51,2.06-4.29,4.5-4.62,7.82-.1.41-.22.81-.35,1.21a7.33,7.33,0,0,0,.2,4.89,2.72,2.72,0,0,1,.48,1.79c.87,4.39,3.9,6.41,8,7a8.68,8.68,0,0,1,3.62,1c2.46-1.48,5.17-.66,7.77-.87a5.33,5.33,0,0,1,3.37.82c4.4,1.38,6.28,5.73,9.69,8.27-9.78,13.62-21.89,23.18-39.74,22.58-4.2-.14-6.24,3.3-9.19,5.24C160.46,197.55,158,197.55,157,199.54Z" transform="translate(-39.48 -22.28)"/><path class="cls-1" d="M437,228.21a39.67,39.67,0,1,1,39.55-39.81A39.64,39.64,0,0,1,437,228.21Z" transform="translate(-39.48 -22.28)"/><path class="cls-3" d="M149.86,299c3.29-6,9-8.6,15.09-10.69a32.57,32.57,0,0,1,10.1-2.16c3.4,1,7.25-.62,10.44,1.73,4.06-2.15,6.79.85,9.31,2.93,1.7,1.4,3.37,2.88,5.2,4.13,1.1.62,1.13,1.93,1.82,2.82.56,3.43,1.31,6.84,1.63,10.29s.15,6.92-2.59,9.66a6.19,6.19,0,0,0-1.71,2.39C194.75,335.42,182.8,343.67,170,351c-2.78,1.6-3.91,4.88-7,5.94-1.75.55-2.39-.92-3-1.92-3-5.14-7.44-9.11-11.4-13.45a4.71,4.71,0,0,0-3.55-2.58c-4.47-2.53-9.79-3.66-13.2-7.94.58-3.08,2.75-5.06,4.72-7.28,4.73-5.33,11-9.28,14.5-15.73.28-1.57-.92-2.68-1.25-4.06,0-.21,0-.42,0-.63,0-1.25,0-2.49,0-3.74C149.83,299.42,149.84,299.21,149.86,299Z" transform="translate(-39.48 -22.28)"/><path class="cls-1" d="M246.08,369.17c1.73-.73,2.87.3,3.93,1.39,3.23,3.35,6.76,6.48,9.58,10.15,6.49,8.45,15.27,13.14,25.09,16.31,2.85.92,5.84,1.39,8.62,2.46,3.57,1.37,5.42,4.17,5.67,8.07.24,3.72-1.78,6-4.74,7.54-9.11,4.67-18.91,6.05-29,5.45a45.05,45.05,0,0,1-6.85-1.34c-8.22-1.83-16.22-3.7-24.93-1.88-7.29,1.53-15,.44-22.25-1.62-9.61-2.71-12.71-10.46-8-19.37a14.05,14.05,0,0,0,.92-3.32c1.35-5.76,3.5-11.1,7.88-15.29,2.36-.85,3.31.84,4.34,2.39a9.74,9.74,0,0,1,.65,1.18c.74,1.56,1.12,3.29,2.22,4.68a15,15,0,0,0,1.2,1.32c.58.48,1.22.89,1.77,1.41.24.31.47.61.73.89,1.27.24,2.54.9,3.7-.25a2.69,2.69,0,0,1,.5-1.13c4-2.85,9-4,12.36-7.72,1.52-1.15,1.63-3,2.21-4.59a13.4,13.4,0,0,1,.65-1.84q.84-1.72,1.77-3.42A2.65,2.65,0,0,1,246.08,369.17Z" transform="translate(-39.48 -22.28)"/><path class="cls-1" d="M105.49,436.85c2.58,4.13,1.77,8.36.09,12.46-3.72,9.09-1.9,16.89,5.17,23.57a13.64,13.64,0,0,1,4.2,7.21c1.59,7.63-.36,10.43-8.08,11.18-12.16,1.18-24,.43-34.33-7.11-3.26-2.37-6.31-4.86-8.11-8.62-.62-1.29-1.23-2.78-3-3.05-7.21-1.09-9.88-7.34-13.71-12.2a4.69,4.69,0,0,1-.2-5.67c5.68-7.9,13.07-14.12,20.51-20.28,4.14,5.09,5.81,5.45,11.76,2.62,1.18-.56,2.33-1.21,3.53-1.74,1.68-1.12,4.05-.35,5.54-2,2.24-2.66,5.22-4.46,7.75-6.77,2.31-1.19,4.62-3.27,7.27-1,2.85,2.42,2.19,5.57,1.2,8.65a6.86,6.86,0,0,0-.12.91C104.39,435.77,104.9,436.32,105.49,436.85Z" transform="translate(-39.48 -22.28)"/><path class="cls-3" d="M246.9,228.65c.94-1.68,2.61-2.56,4.08-3.65.92-1.49,2.44-2.57,2.92-4.34l5-6.83c1-.9.79-1.85.1-2.81l-3-3c6.11-1.71,16.84,4.83,19.76,11.74,7.21,17.1,3.71,33.06-5,48.5A9.42,9.42,0,0,1,267,272a7.37,7.37,0,0,0-3.84,5,7.76,7.76,0,0,1-3-.31c-3.47-.87-7.06,0-10.53-.72a9.76,9.76,0,0,0-5.71-.27c-7.68-1.4-14.23-5.31-20.68-9.43a69.07,69.07,0,0,1,5.29-12.24c1.18-2.12-2-4.52.47-6.52,4.15-5,9.11-9.25,14-13.55C244.11,232.1,246.23,230.91,246.9,228.65Z" transform="translate(-39.48 -22.28)"/><path class="cls-1" d="M131.89,331.07q6.83,3.51,13.63,7c1.63.24,2.46,1.55,3.46,2.62A102.91,102.91,0,0,1,163,357c.61,2.28-1,3.72-2.09,5.3-8.23,12-19.21,21.27-29.89,30.86-1.53,1.23-3.2,2.28-4.62,3.66a16.22,16.22,0,0,1-5.62,4c-2.18.6-4.28,0-6.4-.41-1.24-.76-1.33-1.95-1.21-3.22a13.34,13.34,0,0,0,0-7.54c-1.24-4.08-5.9-5.78-6.93-10-2.84-.78-3.78-2.38-2.24-5.1q11.67-20.61,23.31-41.23A4,4,0,0,1,131.89,331.07Z" transform="translate(-39.48 -22.28)"/><path class="cls-1" d="M223.2,266.3c2.15-.94,3.38.91,4.89,1.72,5.13,2.73,10.23,5.51,16,6.78,1.87-.54,3.54.42,5.3.69,3.86.58,7.76.12,11.63.45.86.05,1.89-.21,2.12,1.09-5.06,17.88-11.35,35.43-15.13,53.68-.22,1.06,0,2.55-1.95,2a3.38,3.38,0,0,1-3.09-.88,5.31,5.31,0,0,1-1.21-1.42,7.78,7.78,0,0,1-.39-1.05c-1.43-.67-2.75-.05-4.07.34a6.86,6.86,0,0,1-1.1.59,13.17,13.17,0,0,1-3,0,3.28,3.28,0,0,1-.94-.71,5.46,5.46,0,0,0-1.42-1.1,4.36,4.36,0,0,0-3.79.41,9.28,9.28,0,0,1-1.13.7,19.79,19.79,0,0,1-2.5.83c-1.43.41-2.71,1.83-4.38.68-1.31-.59-1.33-1.75-1.33-2.95,0-16.81-.52-33.66,2.43-50.33C220.79,273.93,222.15,270.14,223.2,266.3Z" transform="translate(-39.48 -22.28)"/><path class="cls-2" d="M121.07,399.55a15,15,0,0,0,4.6-3.68c1.44-.15,2.51-2.07,4.24-.92a224.09,224.09,0,0,1-15.27,29.17,25.55,25.55,0,0,1-7.67,8.09c-.82.08-1.36-.43-1.16-1.1.8-2.73.08-4.4-2.56-5.89-2.88-1.62-4.15.26-5.84,1.67a1.18,1.18,0,0,1-.91.2c-1.2,3.77-5.07,4.5-7.62,6.73-1.44,1.06-3.39.76-4.83,1.81-5.64,4.63-10.75,5.9-14.22,3.1a4.14,4.14,0,0,1-1.8-4.39,147.07,147.07,0,0,0,13-20.42c5.72-10.49,10.79-21.32,17.35-31.36,2.16-3.32,4.41-4.14,7.87-3,2.83,2.83,6.48,4.92,7.78,9,.64,2.81,1,5.61-.4,8.32.82.84,0,2.34,1.21,3C116.87,399.3,119.13,402.11,121.07,399.55Z" transform="translate(-39.48 -22.28)"/><path class="cls-2" d="M219,331.11c1.62.11,2.35-1.4,3.6-2,3.41,1.38,7.16-2.09,10.47.72a2.46,2.46,0,0,1,2.74,0,2.68,2.68,0,0,1,1.45-.46,14.05,14.05,0,0,1,5.88,1.55l2.89,1.71c.36,10.93.69,21.86,1.13,32.79.06,1.45-.67,2.48-1.08,3.7l-1.37,1.77a4.64,4.64,0,0,0-1.7,3.22l-.1,2c-2,.77-1.08,3.43-2.78,4.41-1.45,3.75-5,4.88-8.19,6.34a34.22,34.22,0,0,0-4.83,2.27,2.85,2.85,0,0,1-1.48.42,41.21,41.21,0,0,1-6-1.58.69.69,0,0,1-.69-.49c-1.17-2.11-1.48-4.6-2.95-6.56l0,.09c-.25-2.17-3-3.36-2.31-5.9a30.57,30.57,0,0,0,.68-14.06c-1.52-8.87.23-17.75,1.88-26.51C216.57,333.29,218.08,332.26,219,331.11Z" transform="translate(-39.48 -22.28)"/><path class="cls-4" d="M96.5,427.09c2-1.77,3.07-4.22,7-2.54,4.16,1.8,4.17,4.28,3.51,7.66L105.08,434c-.31-1.44-1.07-3-.82-4.28.32-1.65,1.14-2.81-1.1-3.85-2-.91-3.32-1-4.66.79C98,427.3,97.36,428,96.5,427.09Z" transform="translate(-39.48 -22.28)"/><path class="cls-5" d="M157,199.54c.63-2.44,2.7-3,4.73-3.62l3.26.27A27.17,27.17,0,0,0,157,199.54Z" transform="translate(-39.48 -22.28)"/><path class="cls-3" d="M213.76,375.13c.1,2.23,2.83,3.43,2.31,5.9-1.38-1.08-1.51-3.72-4.1-3.31Z" transform="translate(-39.48 -22.28)"/><path class="cls-3" d="M129.91,395l-4.24.92c1.4-1.68,3.35-2.28,5.37-2.75A1.79,1.79,0,0,1,129.91,395Z" transform="translate(-39.48 -22.28)"/><path class="cls-6" d="M201.82,297.76a2.72,2.72,0,0,1-1.82-2.82l.86-.94C202.38,294.94,202.19,296.33,201.82,297.76Z" transform="translate(-39.48 -22.28)"/><path class="cls-7" d="M105.49,436.85c-.34.42-.75,1.29-1.26.46a1.58,1.58,0,0,1,.73-2.38C105.14,435.57,105.32,436.21,105.49,436.85Z" transform="translate(-39.48 -22.28)"/><path class="cls-8" d="M239,136.3c-3-2.49-5.21-5.9-9.07-7.29-1.77-1.06-2.35-2.35-.82-4.07,4.57-1.72,9.3-3.09,13.28-6.08,2,.23,2,.23,2,4.19a15.63,15.63,0,0,1-.06,1.67c-.76,2.09-.1,4.36-.81,6.47C242.78,133.51,243.53,137.25,239,136.3Z" transform="translate(-39.48 -22.28)"/><path class="cls-9" d="M177,144.14a8.39,8.39,0,0,1,.84-.18c1.83,2.56,1.49,5.21.33,7.89l-1.07-.9A9,9,0,0,1,177,144.14Z" transform="translate(-39.48 -22.28)"/><path class="cls-9" d="M201,159.83l-2.53.15c-2.7-1.27-5.72.28-8.41-1C193.76,157.9,197.53,156.4,201,159.83Z" transform="translate(-39.48 -22.28)"/><path class="cls-7" d="M229.15,124.94A3.47,3.47,0,0,0,230,129l-1.14,1.36a4.58,4.58,0,0,1-2-3.31l.66-2.34c.24-.65.61-1,1.33-.61A1.69,1.69,0,0,1,229.15,124.94Z" transform="translate(-39.48 -22.28)"/><path class="cls-10" d="M208,126a14.17,14.17,0,0,1,11.31-.05Z" transform="translate(-39.48 -22.28)"/><path class="cls-11" d="M239,136.3c3.68,0,3.24-3.06,4-5.24l.53-.41.57.37c-.43,2-.85,3.95-1.28,5.93C241.59,136.73,240.13,137.63,239,136.3Z" transform="translate(-39.48 -22.28)"/><path class="cls-12" d="M244,124.11c-.72-1.7.88-4.1-1.61-5.25.65-1.67,1.62-2.85,2.38-.25.49,1.65.05,3.56,0,5.36C244.65,124.44,244.37,124.47,244,124.11Z" transform="translate(-39.48 -22.28)"/><path class="cls-13" d="M227,121.16a16.32,16.32,0,0,1-2-7.71c1.71,1.36,1.88,3.33,2.12,5.28A2,2,0,0,1,227,121.16Z" transform="translate(-39.48 -22.28)"/><path class="cls-14" d="M200.09,127.36c2.24-2.91,5.36-.64,8-1.36C205.58,127.45,202.7,126.63,200.09,127.36Z" transform="translate(-39.48 -22.28)"/><path class="cls-15" d="M190,159c2.79.35,5.78-.94,8.41,1a27.32,27.32,0,0,1-8.61-.1A6.31,6.31,0,0,0,190,159Z" transform="translate(-39.48 -22.28)"/><path class="cls-16" d="M227,121.16c.05-.81.1-1.62.16-2.43.56,1.79,1.13,3.59,1.7,5.38l-1.33.61C227.3,123.53,227.13,122.35,227,121.16Z" transform="translate(-39.48 -22.28)"/><path class="cls-17" d="M220,126.06c2.16-.25,4.36-.66,6.22,1C224,128,222,126.82,220,126.06Z" transform="translate(-39.48 -22.28)"/><path class="cls-18" d="M244,124.11a7,7,0,0,1,.8-.14c.07,2.38.45,4.79-.7,7.05l-.42-.05a14.63,14.63,0,0,1,.15-6.18A1.08,1.08,0,0,1,244,124.11Z" transform="translate(-39.48 -22.28)"/><path class="cls-19" d="M225,113.55l-2.19-3.21a2.1,2.1,0,0,1,.21-2.4A6.38,6.38,0,0,1,225,113.55Z" transform="translate(-39.48 -22.28)"/><path class="cls-20" d="M223.05,107.94l-.21,2.4c-1.42-2.36-.65-4.94-.73-7.43.35-.34.64-.31.86.15C223,104.68,223,106.31,223.05,107.94Z" transform="translate(-39.48 -22.28)"/><path class="cls-21" d="M223,103.06l-.86-.15c-.29-1.7-1.41-3.25-1-5.09C222.82,99.19,223,101.08,223,103.06Z" transform="translate(-39.48 -22.28)"/><path class="cls-22" d="M185.49,287.88c-3.39-1.14-7.12-.18-10.44-1.73C178.57,286.49,182.53,284.12,185.49,287.88Z" transform="translate(-39.48 -22.28)"/><path class="cls-23" d="M86.84,212.9c2.61-1.22,4.72-.94,6,2Z" transform="translate(-39.48 -22.28)"/><path class="cls-3" d="M101.46,217.13a7.3,7.3,0,0,1,6.57,3.44C105.77,219.55,103.35,218.85,101.46,217.13Z" transform="translate(-39.48 -22.28)"/><path class="cls-24" d="M58,205.08c2.11.13,4.69-1.3,5.87,1.82C61.59,207.29,59.79,206.19,58,205.08Z" transform="translate(-39.48 -22.28)"/><path class="cls-25" d="M136,214.14c-.5-2.53-1.43-5.23,2.38-6.08C136.58,209.7,137.64,212.45,136,214.14Z" transform="translate(-39.48 -22.28)"/><path class="cls-26" d="M76.81,209.93c2.6-1.08,4.76-.67,6.31,1.84Z" transform="translate(-39.48 -22.28)"/><path class="cls-27" d="M110.13,221.08c2.12.06,4.69-1.3,5.83,1.85C114,222.45,111.78,222.62,110.13,221.08Z" transform="translate(-39.48 -22.28)"/><path class="cls-28" d="M246.9,228.65c.1,2.83-2,4-4,5.34C243.12,231.37,245.26,230.19,246.9,228.65Z" transform="translate(-39.48 -22.28)"/><path class="cls-29" d="M116.82,222.86c2.25-1.66,4.79-.73,7.22-.8C121.79,223.79,119.26,222.86,116.82,222.86Z" transform="translate(-39.48 -22.28)"/><path class="cls-30" d="M253.9,220.66c.22,2.24-1.22,3.38-2.92,4.34C251,222.93,252.4,221.75,253.9,220.66Z" transform="translate(-39.48 -22.28)"/><path class="cls-31" d="M149.24,299a2.56,2.56,0,0,0,.62,0l.41,0a12.45,12.45,0,0,1,0,4.94l-.41,0-.31,0h-.31A4.11,4.11,0,0,1,149.24,299Z" transform="translate(-39.48 -22.28)"/><path class="cls-32" d="M259,211c2.05,0,.72,1.52.94,2.29s-.21,1.28-1,.52C258.92,212.89,259,212,259,211Z" transform="translate(-39.48 -22.28)"/><path class="cls-9" d="M149.24,299v5C147.41,302.33,147.41,300.67,149.24,299Z" transform="translate(-39.48 -22.28)"/><path class="cls-33" d="M177,144.14q.06,3.41.1,6.81C175.11,148.71,175.58,146.43,177,144.14Z" transform="translate(-39.48 -22.28)"/><path class="cls-7" d="M150.27,304a9.21,9.21,0,0,1,0-4.94A4.14,4.14,0,0,1,150.27,304Z" transform="translate(-39.48 -22.28)"/><path class="cls-34" d="M149,340.73a6.52,6.52,0,0,1-3.46-2.62C147.46,338,148.76,338.63,149,340.73Z" transform="translate(-39.48 -22.28)"/><path class="cls-35" d="M240.13,380.54c.91-1.48,0-4.1,2.78-4.41C241.58,377.35,243,380.32,240.13,380.54Z" transform="translate(-39.48 -22.28)"/><path class="cls-36" d="M216,380.94c2.6,1.46,2.26,4.24,2.95,6.55C216.72,385.88,216.45,383.38,216,380.94Z" transform="translate(-39.48 -22.28)"/><path class="cls-9" d="M226.87,389.94c-1.3,2.11-3.22.72-4.87.84-.05,0-.18-.25-.17-.37a1.24,1.24,0,0,1,.2-.42C223.63,388.67,225.25,389.06,226.87,389.94Z" transform="translate(-39.48 -22.28)"/><path class="cls-37" d="M219.67,388c2.07.06,4.19-.33,6.09.87-1.26,1.06-2.64.67-4,.31C220.89,389.07,220,389,219.67,388Z" transform="translate(-39.48 -22.28)"/><path class="cls-29" d="M243,374.16c-.69-1.74-.09-2.79,1.7-3.22Z" transform="translate(-39.48 -22.28)"/><path class="cls-38" d="M221.74,389.17l4-.31,1.34.29a3.78,3.78,0,0,1-.24.79L222,390C221.92,389.72,221.83,389.45,221.74,389.17Z" transform="translate(-39.48 -22.28)"/><path class="cls-39" d="M84.05,435.63c1.13-1.88,3-1.7,4.83-1.81C87.79,435.79,85.76,435.3,84.05,435.63Z" transform="translate(-39.48 -22.28)"/><path class="cls-40" d="M261,275.94c-4,1.24-8,.84-12-.07-.22-.21-.29-.4-.21-.6s.17-.28.24-.28C253,275.48,257.13,274,261,275.94Z" transform="translate(-39.48 -22.28)"/><path class="cls-41" d="M249,275l0,.88c-1.85.57-3.35-.43-4.93-1.07A3.58,3.58,0,0,1,249,275Z" transform="translate(-39.48 -22.28)"/><path class="cls-42" d="M113.61,396.91c.13-2.78.27-5.55.4-8.32C115.61,391.44,115.86,394.24,113.61,396.91Z" transform="translate(-39.48 -22.28)"/><path class="cls-43" d="M121.07,399.55c-1.89,3.41-4.13.84-6.25.39C116.77,397.78,119.09,401.41,121.07,399.55Z" transform="translate(-39.48 -22.28)"/><path class="cls-44" d="M233.07,329.85c-3.49-.3-7.1,1.27-10.47-.72l3.33-.33a7,7,0,0,1,7,.27A4.17,4.17,0,0,1,233.07,329.85Z" transform="translate(-39.48 -22.28)"/><path class="cls-45" d="M233,329.07l-7-.27c0-.28,0-.56.07-.84a9.09,9.09,0,0,1,5.94,0Z" transform="translate(-39.48 -22.28)"/><path class="cls-9" d="M236,329c1.78-1.77,3.92-.94,6-.81.07,0,.18.27.16.41s-.15.28-.23.42C239.93,330.47,238,330,236,329Z" transform="translate(-39.48 -22.28)"/><path class="cls-9" d="M231.94,327.92,226,328A4.64,4.64,0,0,1,231.94,327.92Z" transform="translate(-39.48 -22.28)"/><path class="cls-46" d="M236,329l5.89,0c.11.26.22.52.31.79-1.8,1.1-3.66.73-5.52.24a1.61,1.61,0,0,1-.88-.2A5,5,0,0,0,236,329Z" transform="translate(-39.48 -22.28)"/><path class="cls-37" d="M236.69,330.08l5.52-.24.93,1.13C241,330.71,238.71,331.33,236.69,330.08Z" transform="translate(-39.48 -22.28)"/><path class="cls-47" d="M243.87,124.79l-.15,6.18-.68.09C243.15,128.94,242.6,126.75,243.87,124.79Z" transform="translate(-39.48 -22.28)"/></svg>